<svg xmlns="http://www.w3.org/2000/svg" viewBox="0 0 880 430" style="width:100%;height:auto;background:#fafaf7;font-family:-apple-system,BlinkMacSystemFont,Segoe UI,Helvetica Neue,Arial,sans-serif;font-size:11px;margin:14px 0 22px;border:1px solid #e6e3dc;border-radius:6px;">
<text x="75" y="24" font-size="14" font-weight="600" fill="#1a1c20">Price dispersion by model (coefficient of variation of output price)</text>
<text x="75" y="41" font-size="11" fill="#5b6470">MoE panels (red) disperse less than dense (green): median CV 0.34 vs 0.54, Spearman(E/k, CV) = −0.40. Consistent with selection: only EP-scale providers list big MoE.</text>
<rect x="75" y="60" width="775" height="270" fill="#ffffff" stroke="#e6e3dc"/>
<line x1="75" y1="276" x2="850" y2="276" stroke="#e6e3dc" stroke-dasharray="2,3"/><text x="69" y="280" text-anchor="end" font-size="10" fill="#5b6470">0.2</text>
<line x1="75" y1="222" x2="850" y2="222" stroke="#e6e3dc" stroke-dasharray="2,3"/><text x="69" y="226" text-anchor="end" font-size="10" fill="#5b6470">0.4</text>
<line x1="75" y1="168" x2="850" y2="168" stroke="#e6e3dc" stroke-dasharray="2,3"/><text x="69" y="172" text-anchor="end" font-size="10" fill="#5b6470">0.6</text>
<line x1="75" y1="114" x2="850" y2="114" stroke="#e6e3dc" stroke-dasharray="2,3"/><text x="69" y="118" text-anchor="end" font-size="10" fill="#5b6470">0.8</text>
<text x="24" y="195.0" transform="rotate(-90 24 195.0)" text-anchor="middle" font-size="11" fill="#1a1c20">CV of output price</text>
<rect x="83" y="86" width="27" height="244" fill="#dc2626" opacity="0.85"/>
<text x="97" y="83" text-anchor="middle" font-size="8.5" font-weight="600" fill="#1a1c20">0.90</text>
<text x="97" y="343" text-anchor="middle" font-size="8.5" fill="#1a1c20" transform="rotate(38 97 343)">DeepSeek V3 (n=5)</text>
<rect x="126" y="199" width="27" height="131" fill="#dc2626" opacity="0.85"/>
<text x="140" y="196" text-anchor="middle" font-size="8.5" font-weight="600" fill="#1a1c20">0.49</text>
<text x="140" y="343" text-anchor="middle" font-size="8.5" fill="#1a1c20" transform="rotate(38 140 343)">DeepSeek R1 (n=6)</text>
<rect x="169" y="206" width="27" height="124" fill="#dc2626" opacity="0.85"/>
<text x="183" y="203" text-anchor="middle" font-size="8.5" font-weight="600" fill="#1a1c20">0.46</text>
<text x="183" y="343" text-anchor="middle" font-size="8.5" fill="#1a1c20" transform="rotate(38 183 343)">GPT-OSS 120B (n=17)</text>
<rect x="212" y="222" width="27" height="108" fill="#dc2626" opacity="0.85"/>
<text x="226" y="219" text-anchor="middle" font-size="8.5" font-weight="600" fill="#1a1c20">0.40</text>
<text x="226" y="343" text-anchor="middle" font-size="8.5" fill="#1a1c20" transform="rotate(38 226 343)">Llama 4 Scout (n=4)</text>
<rect x="255" y="231" width="27" height="99" fill="#dc2626" opacity="0.85"/>
<text x="269" y="228" text-anchor="middle" font-size="8.5" font-weight="600" fill="#1a1c20">0.37</text>
<text x="269" y="343" text-anchor="middle" font-size="8.5" fill="#1a1c20" transform="rotate(38 269 343)">Qwen3 30B-A3B (n=7)</text>
<rect x="298" y="237" width="27" height="93" fill="#dc2626" opacity="0.85"/>
<text x="312" y="234" text-anchor="middle" font-size="8.5" font-weight="600" fill="#1a1c20">0.34</text>
<text x="312" y="343" text-anchor="middle" font-size="8.5" fill="#1a1c20" transform="rotate(38 312 343)">Qwen3 235B-A22B (n=10)</text>
<rect x="342" y="239" width="27" height="91" fill="#dc2626" opacity="0.85"/>
<text x="355" y="236" text-anchor="middle" font-size="8.5" font-weight="600" fill="#1a1c20">0.34</text>
<text x="355" y="343" text-anchor="middle" font-size="8.5" fill="#1a1c20" transform="rotate(38 355 343)">GPT-OSS 20B (n=11)</text>
<rect x="385" y="257" width="27" height="73" fill="#dc2626" opacity="0.85"/>
<text x="398" y="254" text-anchor="middle" font-size="8.5" font-weight="600" fill="#1a1c20">0.27</text>
<text x="398" y="343" text-anchor="middle" font-size="8.5" fill="#1a1c20" transform="rotate(38 398 343)">DeepSeek V3.1 (n=10)</text>
<rect x="428" y="269" width="27" height="61" fill="#dc2626" opacity="0.85"/>
<text x="441" y="266" text-anchor="middle" font-size="8.5" font-weight="600" fill="#1a1c20">0.23</text>
<text x="441" y="343" text-anchor="middle" font-size="8.5" fill="#1a1c20" transform="rotate(38 441 343)">Llama 4 Maverick (n=5)</text>
<rect x="471" y="276" width="27" height="54" fill="#dc2626" opacity="0.85"/>
<text x="484" y="273" text-anchor="middle" font-size="8.5" font-weight="600" fill="#1a1c20">0.20</text>
<text x="484" y="343" text-anchor="middle" font-size="8.5" fill="#1a1c20" transform="rotate(38 484 343)">Kimi K2 (n=3)</text>
<rect x="514" y="291" width="27" height="39" fill="#dc2626" opacity="0.85"/>
<text x="527" y="288" text-anchor="middle" font-size="8.5" font-weight="600" fill="#1a1c20">0.14</text>
<text x="527" y="343" text-anchor="middle" font-size="8.5" fill="#1a1c20" transform="rotate(38 527 343)">GLM 4.5 Air (n=4)</text>
<rect x="557" y="330" width="27" height="0" fill="#dc2626" opacity="0.85"/>
<text x="570" y="327" text-anchor="middle" font-size="8.5" font-weight="600" fill="#1a1c20">0.00</text>
<text x="570" y="343" text-anchor="middle" font-size="8.5" fill="#1a1c20" transform="rotate(38 570 343)">MiniMax M2 (n=4)</text>
<rect x="600" y="100" width="27" height="230" fill="#16a34a" opacity="0.85"/>
<text x="613" y="97" text-anchor="middle" font-size="8.5" font-weight="600" fill="#1a1c20">0.85</text>
<text x="613" y="343" text-anchor="middle" font-size="8.5" fill="#1a1c20" transform="rotate(38 613 343)">Llama 3.1 8B (n=5)</text>
<rect x="643" y="138" width="27" height="192" fill="#16a34a" opacity="0.85"/>
<text x="656" y="135" text-anchor="middle" font-size="8.5" font-weight="600" fill="#1a1c20">0.71</text>
<text x="656" y="343" text-anchor="middle" font-size="8.5" fill="#1a1c20" transform="rotate(38 656 343)">Llama 3.3 70B (n=11)</text>
<rect x="686" y="178" width="27" height="152" fill="#16a34a" opacity="0.85"/>
<text x="699" y="175" text-anchor="middle" font-size="8.5" font-weight="600" fill="#1a1c20">0.56</text>
<text x="699" y="343" text-anchor="middle" font-size="8.5" fill="#1a1c20" transform="rotate(38 699 343)">Gemma 3 12B (n=3)</text>
<rect x="729" y="191" width="27" height="139" fill="#16a34a" opacity="0.85"/>
<text x="742" y="188" text-anchor="middle" font-size="8.5" font-weight="600" fill="#1a1c20">0.51</text>
<text x="742" y="343" text-anchor="middle" font-size="8.5" fill="#1a1c20" transform="rotate(38 742 343)">Qwen2.5 72B (n=6)</text>
<rect x="772" y="204" width="27" height="126" fill="#16a34a" opacity="0.85"/>
<text x="785" y="201" text-anchor="middle" font-size="8.5" font-weight="600" fill="#1a1c20">0.47</text>
<text x="785" y="343" text-anchor="middle" font-size="8.5" fill="#1a1c20" transform="rotate(38 785 343)">Gemma 3 27B (n=4)</text>
<rect x="815" y="281" width="27" height="49" fill="#16a34a" opacity="0.85"/>
<text x="828" y="278" text-anchor="middle" font-size="8.5" font-weight="600" fill="#1a1c20">0.18</text>
<text x="828" y="343" text-anchor="middle" font-size="8.5" fill="#1a1c20" transform="rotate(38 828 343)">Mistral Small 3 (n=4)</text>
<rect x="85" y="68" width="12" height="10" fill="#dc2626" opacity="0.85"/><text x="101" y="77" font-size="10" fill="#1a1c20">MoE</text>
<rect x="155" y="68" width="12" height="10" fill="#16a34a" opacity="0.85"/><text x="171" y="77" font-size="10" fill="#1a1c20">Dense</text>
</svg>