<svg xmlns="http://www.w3.org/2000/svg" viewBox="0 0 880 520" style="width:100%;height:auto;background:#fafaf7;font-family:-apple-system,BlinkMacSystemFont,Segoe UI,Helvetica Neue,Arial,sans-serif;font-size:11px;margin:14px 0 22px;border:1px solid #e6e3dc;border-radius:6px;">
<text x="75" y="24" font-size="14" font-weight="600" fill="#1a1c20">Median output price vs active parameters — MoE models sit far above the dense line</text>
<text x="75" y="41" font-size="11" fill="#5b6470">18 models, median across providers (OpenRouter endpoints API + Artificial Analysis, 2026-07-01). If the market priced compute (active params), MoE would sit ON the dense line.</text>
<rect x="75" y="60" width="775" height="400" fill="#ffffff" stroke="#e6e3dc"/>
<line x1="75" y1="60" x2="75" y2="460" stroke="#e6e3dc" stroke-dasharray="2,3"/><text x="75" y="475" text-anchor="middle" font-size="10" fill="#5b6470">2</text>
<line x1="248" y1="60" x2="248" y2="460" stroke="#e6e3dc" stroke-dasharray="2,3"/><text x="248" y="475" text-anchor="middle" font-size="10" fill="#5b6470">5</text>
<line x1="380" y1="60" x2="380" y2="460" stroke="#e6e3dc" stroke-dasharray="2,3"/><text x="380" y="475" text-anchor="middle" font-size="10" fill="#5b6470">10</text>
<line x1="511" y1="60" x2="511" y2="460" stroke="#e6e3dc" stroke-dasharray="2,3"/><text x="511" y="475" text-anchor="middle" font-size="10" fill="#5b6470">20</text>
<line x1="684" y1="60" x2="684" y2="460" stroke="#e6e3dc" stroke-dasharray="2,3"/><text x="684" y="475" text-anchor="middle" font-size="10" fill="#5b6470">50</text>
<line x1="815" y1="60" x2="815" y2="460" stroke="#e6e3dc" stroke-dasharray="2,3"/><text x="815" y="475" text-anchor="middle" font-size="10" fill="#5b6470">100</text>
<line x1="75" y1="442" x2="850" y2="442" stroke="#e6e3dc" stroke-dasharray="2,3"/><text x="69" y="446" text-anchor="end" font-size="10" fill="#5b6470">$0.05</text>
<line x1="75" y1="387" x2="850" y2="387" stroke="#e6e3dc" stroke-dasharray="2,3"/><text x="69" y="391" text-anchor="end" font-size="10" fill="#5b6470">$0.1</text>
<line x1="75" y1="299" x2="850" y2="299" stroke="#e6e3dc" stroke-dasharray="2,3"/><text x="69" y="303" text-anchor="end" font-size="10" fill="#5b6470">$0.3</text>
<line x1="75" y1="203" x2="850" y2="203" stroke="#e6e3dc" stroke-dasharray="2,3"/><text x="69" y="207" text-anchor="end" font-size="10" fill="#5b6470">$1</text>
<line x1="75" y1="115" x2="850" y2="115" stroke="#e6e3dc" stroke-dasharray="2,3"/><text x="69" y="119" text-anchor="end" font-size="10" fill="#5b6470">$3</text>
<text x="462.5" y="498" text-anchor="middle" font-size="11" fill="#1a1c20">Active parameters per token (B, log)</text>
<text x="24" y="260.0" transform="rotate(-90 24 260.0)" text-anchor="middle" font-size="11" fill="#1a1c20">Median output price ($/M tokens, log)</text>
<line x1="75" y1="469" x2="850" y2="209" stroke="#16a34a" stroke-width="1.6" stroke-dasharray="7,4"/>
<text x="719" y="271" font-size="10" font-style="italic" fill="#16a34a">dense price line (what compute-based pricing predicts)</text>
<circle cx="627" cy="133" r="5" fill="#dc2626" opacity="0.85"/>
<text x="633" y="127" font-size="8.5" fill="#1a1c20" text-anchor="start">DeepSeek R1</text>
<circle cx="627" cy="194" r="5" fill="#dc2626" opacity="0.85"/>
<text x="633" y="204" font-size="8.5" fill="#1a1c20" text-anchor="start">DeepSeek V3</text>
<circle cx="627" cy="182" r="5" fill="#dc2626" opacity="0.85"/>
<text x="633" y="178" font-size="8.5" fill="#1a1c20" text-anchor="start">DeepSeek V3.1</text>
<circle cx="414" cy="205" r="5" fill="#dc2626" opacity="0.85"/>
<text x="420" y="217" font-size="8.5" fill="#1a1c20" text-anchor="start">GLM 4.5 Air</text>
<circle cx="252" cy="258" r="5" fill="#dc2626" opacity="0.85"/>
<text x="258" y="252" font-size="8.5" fill="#1a1c20" text-anchor="start">GPT-OSS 120B</text>
<circle cx="186" cy="354" r="5" fill="#dc2626" opacity="0.85"/>
<text x="192" y="348" font-size="8.5" fill="#1a1c20" text-anchor="start">GPT-OSS 20B</text>
<circle cx="417" cy="302" r="5" fill="#16a34a" opacity="0.85"/>
<text x="423" y="296" font-size="8.5" fill="#1a1c20" text-anchor="start">Gemma 3 12B</text>
<circle cx="570" cy="314" r="5" fill="#16a34a" opacity="0.85"/>
<text x="576" y="326" font-size="8.5" fill="#1a1c20" text-anchor="start">Gemma 3 27B</text>
<circle cx="600" cy="130" r="5" fill="#dc2626" opacity="0.85"/>
<text x="606" y="124" font-size="8.5" fill="#1a1c20" text-anchor="start">Kimi K2</text>
<circle cx="338" cy="421" r="5" fill="#16a34a" opacity="0.85"/>
<text x="344" y="433" font-size="8.5" fill="#1a1c20" text-anchor="start">Llama 3.1 8B</text>
<circle cx="750" cy="230" r="5" fill="#16a34a" opacity="0.85"/>
<text x="756" y="224" font-size="8.5" fill="#1a1c20" text-anchor="start">Llama 3.3 70B</text>
<circle cx="480" cy="214" r="5" fill="#dc2626" opacity="0.85"/>
<text x="486" y="226" font-size="8.5" fill="#1a1c20" text-anchor="start">Llama 4 Maverick</text>
<circle cx="480" cy="264" r="5" fill="#dc2626" opacity="0.85"/>
<text x="486" y="258" font-size="8.5" fill="#1a1c20" text-anchor="start">Llama 4 Scout</text>
<circle cx="380" cy="188" r="5" fill="#dc2626" opacity="0.85"/>
<text x="386" y="182" font-size="8.5" fill="#1a1c20" text-anchor="start">MiniMax M2</text>
<circle cx="542" cy="306" r="5" fill="#16a34a" opacity="0.85"/>
<text x="548" y="318" font-size="8.5" fill="#1a1c20" text-anchor="start">Mistral Small 3</text>
<circle cx="755" cy="259" r="5" fill="#16a34a" opacity="0.85"/>
<text x="761" y="273" font-size="8.5" fill="#1a1c20" text-anchor="start">Qwen2.5 72B</text>
<circle cx="529" cy="223" r="5" fill="#dc2626" opacity="0.85"/>
<text x="521" y="215" font-size="8.5" fill="#1a1c20" text-anchor="end">Qwen3 235B-A22B</text>
<circle cx="170" cy="299" r="5" fill="#dc2626" opacity="0.85"/>
<text x="176" y="293" font-size="8.5" fill="#1a1c20" text-anchor="start">Qwen3 30B-A3B</text>
<circle cx="89" cy="76" r="5" fill="#dc2626" opacity="0.85"/><text x="99" y="80" font-size="10" fill="#1a1c20">MoE (12)</text>
<circle cx="175" cy="76" r="5" fill="#16a34a" opacity="0.85"/><text x="185" y="80" font-size="10" fill="#1a1c20">Dense (6)</text>
<line x1="627" y1="133" x2="627" y2="284" stroke="#92400e" stroke-width="1.2" stroke-dasharray="3,2"/>
<text x="635" y="208" font-size="9" font-weight="600" fill="#92400e">7× above dense line</text>
</svg>