<?xml version="1.0" encoding="utf-8" standalone="no"?>
<!DOCTYPE svg PUBLIC "-//W3C//DTD SVG 1.1//EN"
  "http://www.w3.org/Graphics/SVG/1.1/DTD/svg11.dtd">
<svg xmlns:xlink="http://www.w3.org/1999/xlink" width="504pt" height="331.2pt" viewBox="0 0 504 331.2" xmlns="http://www.w3.org/2000/svg" version="1.1">
 <metadata>
  <rdf:RDF xmlns:dc="http://purl.org/dc/elements/1.1/" xmlns:cc="http://creativecommons.org/ns#" xmlns:rdf="http://www.w3.org/1999/02/22-rdf-syntax-ns#">
   <cc:Work>
    <dc:type rdf:resource="http://purl.org/dc/dcmitype/StillImage"/>
    <dc:date>2026-07-04T17:02:52.566325</dc:date>
    <dc:format>image/svg+xml</dc:format>
    <dc:creator>
     <cc:Agent>
      <dc:title>Matplotlib v3.10.8, https://matplotlib.org/</dc:title>
     </cc:Agent>
    </dc:creator>
   </cc:Work>
  </rdf:RDF>
 </metadata>
 <defs>
  <style type="text/css">*{stroke-linejoin: round; stroke-linecap: butt}</style>
 </defs>
 <g id="figure_1">
  <g id="patch_1">
   <path d="M 0 331.2 
L 504 331.2 
L 504 0 
L 0 0 
z
" style="fill: #ffffff"/>
  </g>
  <g id="axes_1">
   <g id="patch_2">
    <path d="M 48.89 292.84 
L 493.2 292.84 
L 493.2 12.036073 
L 48.89 12.036073 
z
" style="fill: #ffffff"/>
   </g>
   <g id="line2d_1">
    <path d="M 59.828198 280.076185 
L 68.318582 276.165116 
L 76.808965 272.254046 
L 85.299348 268.342977 
L 93.789731 264.431908 
L 102.280114 260.520838 
L 110.770497 256.609769 
L 119.26088 252.698699 
L 127.751263 248.78763 
L 136.241646 244.87656 
L 144.732029 240.965491 
L 153.222412 237.054422 
L 161.712795 233.143352 
L 170.203178 229.232283 
L 178.693561 225.321213 
L 187.183944 221.410144 
L 195.674327 217.499075 
L 204.164711 213.588005 
L 212.655094 209.676936 
L 221.145477 205.765866 
L 229.63586 201.854797 
L 238.126243 197.943728 
L 246.616626 194.032658 
L 255.107009 190.121589 
L 263.597392 186.210519 
L 272.087775 182.29945 
L 280.578158 178.388381 
L 289.068541 174.477311 
L 297.558924 170.566242 
L 306.049307 166.655172 
L 314.53969 162.744103 
L 323.030073 158.833033 
L 331.520456 154.921964 
L 340.01084 151.010895 
L 348.501223 147.099825 
L 356.991606 143.188756 
L 365.481989 139.277686 
L 373.972372 135.366617 
L 382.462755 131.455548 
L 390.953138 127.544478 
L 399.443521 123.633409 
L 407.933904 119.722339 
L 416.424287 115.81127 
L 424.91467 111.900201 
L 433.405053 107.989131 
L 441.895436 104.078062 
L 450.385819 100.166992 
L 458.876202 96.255923 
L 467.366586 92.344854 
L 475.856969 88.433784 
" clip-path="url(#p4629b35f32)" style="fill: none; stroke-dasharray: 5.18,2.24; stroke-dashoffset: 0; stroke: #16a34a; stroke-width: 1.4"/>
   </g>
   <g id="matplotlib.axis_1">
    <g id="xtick_1">
     <g id="line2d_2">
      <path d="M 59.828198 292.84 
L 59.828198 12.036073 
" clip-path="url(#p4629b35f32)" style="fill: none; stroke-dasharray: 0.5,0.825; stroke-dashoffset: 0; stroke: #b0b0b0; stroke-opacity: 0.5; stroke-width: 0.5"/>
     </g>
     <g id="line2d_3">
      <defs>
       <path id="m3a273aa3f2" d="M 0 0 
L 0 3.5 
" style="stroke: #000000; stroke-width: 0.8"/>
      </defs>
      <g>
       <use xlink:href="#m3a273aa3f2" x="59.828198" y="292.84" style="stroke: #000000; stroke-width: 0.8"/>
      </g>
     </g>
     <g id="text_1">
      <!-- 2 -->
      <g transform="translate(57.283198 305.91875) scale(0.08 -0.08)">
       <defs>
        <path id="DejaVuSans-32" d="M 1228 531 
L 3431 531 
L 3431 0 
L 469 0 
L 469 531 
Q 828 903 1448 1529 
Q 2069 2156 2228 2338 
Q 2531 2678 2651 2914 
Q 2772 3150 2772 3378 
Q 2772 3750 2511 3984 
Q 2250 4219 1831 4219 
Q 1534 4219 1204 4116 
Q 875 4013 500 3803 
L 500 4441 
Q 881 4594 1212 4672 
Q 1544 4750 1819 4750 
Q 2544 4750 2975 4387 
Q 3406 4025 3406 3419 
Q 3406 3131 3298 2873 
Q 3191 2616 2906 2266 
Q 2828 2175 2409 1742 
Q 1991 1309 1228 531 
z
" transform="scale(0.015625)"/>
       </defs>
       <use xlink:href="#DejaVuSans-32"/>
      </g>
     </g>
    </g>
    <g id="xtick_2">
     <g id="line2d_4">
      <path d="M 154.95463 292.84 
L 154.95463 12.036073 
" clip-path="url(#p4629b35f32)" style="fill: none; stroke-dasharray: 0.5,0.825; stroke-dashoffset: 0; stroke: #b0b0b0; stroke-opacity: 0.5; stroke-width: 0.5"/>
     </g>
     <g id="line2d_5">
      <g>
       <use xlink:href="#m3a273aa3f2" x="154.95463" y="292.84" style="stroke: #000000; stroke-width: 0.8"/>
      </g>
     </g>
     <g id="text_2">
      <!-- 5 -->
      <g transform="translate(152.40963 305.91875) scale(0.08 -0.08)">
       <defs>
        <path id="DejaVuSans-35" d="M 691 4666 
L 3169 4666 
L 3169 4134 
L 1269 4134 
L 1269 2991 
Q 1406 3038 1543 3061 
Q 1681 3084 1819 3084 
Q 2600 3084 3056 2656 
Q 3513 2228 3513 1497 
Q 3513 744 3044 326 
Q 2575 -91 1722 -91 
Q 1428 -91 1123 -41 
Q 819 9 494 109 
L 494 744 
Q 775 591 1075 516 
Q 1375 441 1709 441 
Q 2250 441 2565 725 
Q 2881 1009 2881 1497 
Q 2881 1984 2565 2268 
Q 2250 2553 1709 2553 
Q 1456 2553 1204 2497 
Q 953 2441 691 2322 
L 691 4666 
z
" transform="scale(0.015625)"/>
       </defs>
       <use xlink:href="#DejaVuSans-35"/>
      </g>
     </g>
    </g>
    <g id="xtick_3">
     <g id="line2d_6">
      <path d="M 226.914998 292.84 
L 226.914998 12.036073 
" clip-path="url(#p4629b35f32)" style="fill: none; stroke-dasharray: 0.5,0.825; stroke-dashoffset: 0; stroke: #b0b0b0; stroke-opacity: 0.5; stroke-width: 0.5"/>
     </g>
     <g id="line2d_7">
      <g>
       <use xlink:href="#m3a273aa3f2" x="226.914998" y="292.84" style="stroke: #000000; stroke-width: 0.8"/>
      </g>
     </g>
     <g id="text_3">
      <!-- 10 -->
      <g transform="translate(221.824998 305.91875) scale(0.08 -0.08)">
       <defs>
        <path id="DejaVuSans-31" d="M 794 531 
L 1825 531 
L 1825 4091 
L 703 3866 
L 703 4441 
L 1819 4666 
L 2450 4666 
L 2450 531 
L 3481 531 
L 3481 0 
L 794 0 
L 794 531 
z
" transform="scale(0.015625)"/>
        <path id="DejaVuSans-30" d="M 2034 4250 
Q 1547 4250 1301 3770 
Q 1056 3291 1056 2328 
Q 1056 1369 1301 889 
Q 1547 409 2034 409 
Q 2525 409 2770 889 
Q 3016 1369 3016 2328 
Q 3016 3291 2770 3770 
Q 2525 4250 2034 4250 
z
M 2034 4750 
Q 2819 4750 3233 4129 
Q 3647 3509 3647 2328 
Q 3647 1150 3233 529 
Q 2819 -91 2034 -91 
Q 1250 -91 836 529 
Q 422 1150 422 2328 
Q 422 3509 836 4129 
Q 1250 4750 2034 4750 
z
" transform="scale(0.015625)"/>
       </defs>
       <use xlink:href="#DejaVuSans-31"/>
       <use xlink:href="#DejaVuSans-30" transform="translate(63.623047 0)"/>
      </g>
     </g>
    </g>
    <g id="xtick_4">
     <g id="line2d_8">
      <path d="M 298.875365 292.84 
L 298.875365 12.036073 
" clip-path="url(#p4629b35f32)" style="fill: none; stroke-dasharray: 0.5,0.825; stroke-dashoffset: 0; stroke: #b0b0b0; stroke-opacity: 0.5; stroke-width: 0.5"/>
     </g>
     <g id="line2d_9">
      <g>
       <use xlink:href="#m3a273aa3f2" x="298.875365" y="292.84" style="stroke: #000000; stroke-width: 0.8"/>
      </g>
     </g>
     <g id="text_4">
      <!-- 20 -->
      <g transform="translate(293.785365 305.91875) scale(0.08 -0.08)">
       <use xlink:href="#DejaVuSans-32"/>
       <use xlink:href="#DejaVuSans-30" transform="translate(63.623047 0)"/>
      </g>
     </g>
    </g>
    <g id="xtick_5">
     <g id="line2d_10">
      <path d="M 394.001797 292.84 
L 394.001797 12.036073 
" clip-path="url(#p4629b35f32)" style="fill: none; stroke-dasharray: 0.5,0.825; stroke-dashoffset: 0; stroke: #b0b0b0; stroke-opacity: 0.5; stroke-width: 0.5"/>
     </g>
     <g id="line2d_11">
      <g>
       <use xlink:href="#m3a273aa3f2" x="394.001797" y="292.84" style="stroke: #000000; stroke-width: 0.8"/>
      </g>
     </g>
     <g id="text_5">
      <!-- 50 -->
      <g transform="translate(388.911797 305.91875) scale(0.08 -0.08)">
       <use xlink:href="#DejaVuSans-35"/>
       <use xlink:href="#DejaVuSans-30" transform="translate(63.623047 0)"/>
      </g>
     </g>
    </g>
    <g id="xtick_6">
     <g id="line2d_12">
      <path d="M 465.962164 292.84 
L 465.962164 12.036073 
" clip-path="url(#p4629b35f32)" style="fill: none; stroke-dasharray: 0.5,0.825; stroke-dashoffset: 0; stroke: #b0b0b0; stroke-opacity: 0.5; stroke-width: 0.5"/>
     </g>
     <g id="line2d_13">
      <g>
       <use xlink:href="#m3a273aa3f2" x="465.962164" y="292.84" style="stroke: #000000; stroke-width: 0.8"/>
      </g>
     </g>
     <g id="text_6">
      <!-- 100 -->
      <g transform="translate(458.327164 305.91875) scale(0.08 -0.08)">
       <use xlink:href="#DejaVuSans-31"/>
       <use xlink:href="#DejaVuSans-30" transform="translate(63.623047 0)"/>
       <use xlink:href="#DejaVuSans-30" transform="translate(127.246094 0)"/>
      </g>
     </g>
    </g>
    <g id="xtick_7">
     <g id="line2d_14">
      <defs>
       <path id="m79d285d394" d="M 0 0 
L 0 2 
" style="stroke: #000000; stroke-width: 0.6"/>
      </defs>
      <g>
       <use xlink:href="#m79d285d394" x="101.922315" y="292.84" style="stroke: #000000; stroke-width: 0.6"/>
      </g>
     </g>
    </g>
    <g id="xtick_8">
     <g id="line2d_15">
      <g>
       <use xlink:href="#m79d285d394" x="131.788566" y="292.84" style="stroke: #000000; stroke-width: 0.6"/>
      </g>
     </g>
    </g>
    <g id="xtick_9">
     <g id="line2d_16">
      <g>
       <use xlink:href="#m79d285d394" x="173.882683" y="292.84" style="stroke: #000000; stroke-width: 0.6"/>
      </g>
     </g>
    </g>
    <g id="xtick_10">
     <g id="line2d_17">
      <g>
       <use xlink:href="#m79d285d394" x="189.886123" y="292.84" style="stroke: #000000; stroke-width: 0.6"/>
      </g>
     </g>
    </g>
    <g id="xtick_11">
     <g id="line2d_18">
      <g>
       <use xlink:href="#m79d285d394" x="203.748934" y="292.84" style="stroke: #000000; stroke-width: 0.6"/>
      </g>
     </g>
    </g>
    <g id="xtick_12">
     <g id="line2d_19">
      <g>
       <use xlink:href="#m79d285d394" x="215.976799" y="292.84" style="stroke: #000000; stroke-width: 0.6"/>
      </g>
     </g>
    </g>
    <g id="xtick_13">
     <g id="line2d_20">
      <g>
       <use xlink:href="#m79d285d394" x="340.969482" y="292.84" style="stroke: #000000; stroke-width: 0.6"/>
      </g>
     </g>
    </g>
    <g id="xtick_14">
     <g id="line2d_21">
      <g>
       <use xlink:href="#m79d285d394" x="370.835733" y="292.84" style="stroke: #000000; stroke-width: 0.6"/>
      </g>
     </g>
    </g>
    <g id="xtick_15">
     <g id="line2d_22">
      <g>
       <use xlink:href="#m79d285d394" x="412.929849" y="292.84" style="stroke: #000000; stroke-width: 0.6"/>
      </g>
     </g>
    </g>
    <g id="xtick_16">
     <g id="line2d_23">
      <g>
       <use xlink:href="#m79d285d394" x="428.93329" y="292.84" style="stroke: #000000; stroke-width: 0.6"/>
      </g>
     </g>
    </g>
    <g id="xtick_17">
     <g id="line2d_24">
      <g>
       <use xlink:href="#m79d285d394" x="442.7961" y="292.84" style="stroke: #000000; stroke-width: 0.6"/>
      </g>
     </g>
    </g>
    <g id="xtick_18">
     <g id="line2d_25">
      <g>
       <use xlink:href="#m79d285d394" x="455.023966" y="292.84" style="stroke: #000000; stroke-width: 0.6"/>
      </g>
     </g>
    </g>
    <g id="text_7">
     <!-- Active parameters per token (billions, log scale) -->
     <g transform="translate(163.181406 318.421094) scale(0.09 -0.09)">
      <defs>
       <path id="DejaVuSans-41" d="M 2188 4044 
L 1331 1722 
L 3047 1722 
L 2188 4044 
z
M 1831 4666 
L 2547 4666 
L 4325 0 
L 3669 0 
L 3244 1197 
L 1141 1197 
L 716 0 
L 50 0 
L 1831 4666 
z
" transform="scale(0.015625)"/>
       <path id="DejaVuSans-63" d="M 3122 3366 
L 3122 2828 
Q 2878 2963 2633 3030 
Q 2388 3097 2138 3097 
Q 1578 3097 1268 2742 
Q 959 2388 959 1747 
Q 959 1106 1268 751 
Q 1578 397 2138 397 
Q 2388 397 2633 464 
Q 2878 531 3122 666 
L 3122 134 
Q 2881 22 2623 -34 
Q 2366 -91 2075 -91 
Q 1284 -91 818 406 
Q 353 903 353 1747 
Q 353 2603 823 3093 
Q 1294 3584 2113 3584 
Q 2378 3584 2631 3529 
Q 2884 3475 3122 3366 
z
" transform="scale(0.015625)"/>
       <path id="DejaVuSans-74" d="M 1172 4494 
L 1172 3500 
L 2356 3500 
L 2356 3053 
L 1172 3053 
L 1172 1153 
Q 1172 725 1289 603 
Q 1406 481 1766 481 
L 2356 481 
L 2356 0 
L 1766 0 
Q 1100 0 847 248 
Q 594 497 594 1153 
L 594 3053 
L 172 3053 
L 172 3500 
L 594 3500 
L 594 4494 
L 1172 4494 
z
" transform="scale(0.015625)"/>
       <path id="DejaVuSans-69" d="M 603 3500 
L 1178 3500 
L 1178 0 
L 603 0 
L 603 3500 
z
M 603 4863 
L 1178 4863 
L 1178 4134 
L 603 4134 
L 603 4863 
z
" transform="scale(0.015625)"/>
       <path id="DejaVuSans-76" d="M 191 3500 
L 800 3500 
L 1894 563 
L 2988 3500 
L 3597 3500 
L 2284 0 
L 1503 0 
L 191 3500 
z
" transform="scale(0.015625)"/>
       <path id="DejaVuSans-65" d="M 3597 1894 
L 3597 1613 
L 953 1613 
Q 991 1019 1311 708 
Q 1631 397 2203 397 
Q 2534 397 2845 478 
Q 3156 559 3463 722 
L 3463 178 
Q 3153 47 2828 -22 
Q 2503 -91 2169 -91 
Q 1331 -91 842 396 
Q 353 884 353 1716 
Q 353 2575 817 3079 
Q 1281 3584 2069 3584 
Q 2775 3584 3186 3129 
Q 3597 2675 3597 1894 
z
M 3022 2063 
Q 3016 2534 2758 2815 
Q 2500 3097 2075 3097 
Q 1594 3097 1305 2825 
Q 1016 2553 972 2059 
L 3022 2063 
z
" transform="scale(0.015625)"/>
       <path id="DejaVuSans-20" transform="scale(0.015625)"/>
       <path id="DejaVuSans-70" d="M 1159 525 
L 1159 -1331 
L 581 -1331 
L 581 3500 
L 1159 3500 
L 1159 2969 
Q 1341 3281 1617 3432 
Q 1894 3584 2278 3584 
Q 2916 3584 3314 3078 
Q 3713 2572 3713 1747 
Q 3713 922 3314 415 
Q 2916 -91 2278 -91 
Q 1894 -91 1617 61 
Q 1341 213 1159 525 
z
M 3116 1747 
Q 3116 2381 2855 2742 
Q 2594 3103 2138 3103 
Q 1681 3103 1420 2742 
Q 1159 2381 1159 1747 
Q 1159 1113 1420 752 
Q 1681 391 2138 391 
Q 2594 391 2855 752 
Q 3116 1113 3116 1747 
z
" transform="scale(0.015625)"/>
       <path id="DejaVuSans-61" d="M 2194 1759 
Q 1497 1759 1228 1600 
Q 959 1441 959 1056 
Q 959 750 1161 570 
Q 1363 391 1709 391 
Q 2188 391 2477 730 
Q 2766 1069 2766 1631 
L 2766 1759 
L 2194 1759 
z
M 3341 1997 
L 3341 0 
L 2766 0 
L 2766 531 
Q 2569 213 2275 61 
Q 1981 -91 1556 -91 
Q 1019 -91 701 211 
Q 384 513 384 1019 
Q 384 1609 779 1909 
Q 1175 2209 1959 2209 
L 2766 2209 
L 2766 2266 
Q 2766 2663 2505 2880 
Q 2244 3097 1772 3097 
Q 1472 3097 1187 3025 
Q 903 2953 641 2809 
L 641 3341 
Q 956 3463 1253 3523 
Q 1550 3584 1831 3584 
Q 2591 3584 2966 3190 
Q 3341 2797 3341 1997 
z
" transform="scale(0.015625)"/>
       <path id="DejaVuSans-72" d="M 2631 2963 
Q 2534 3019 2420 3045 
Q 2306 3072 2169 3072 
Q 1681 3072 1420 2755 
Q 1159 2438 1159 1844 
L 1159 0 
L 581 0 
L 581 3500 
L 1159 3500 
L 1159 2956 
Q 1341 3275 1631 3429 
Q 1922 3584 2338 3584 
Q 2397 3584 2469 3576 
Q 2541 3569 2628 3553 
L 2631 2963 
z
" transform="scale(0.015625)"/>
       <path id="DejaVuSans-6d" d="M 3328 2828 
Q 3544 3216 3844 3400 
Q 4144 3584 4550 3584 
Q 5097 3584 5394 3201 
Q 5691 2819 5691 2113 
L 5691 0 
L 5113 0 
L 5113 2094 
Q 5113 2597 4934 2840 
Q 4756 3084 4391 3084 
Q 3944 3084 3684 2787 
Q 3425 2491 3425 1978 
L 3425 0 
L 2847 0 
L 2847 2094 
Q 2847 2600 2669 2842 
Q 2491 3084 2119 3084 
Q 1678 3084 1418 2786 
Q 1159 2488 1159 1978 
L 1159 0 
L 581 0 
L 581 3500 
L 1159 3500 
L 1159 2956 
Q 1356 3278 1631 3431 
Q 1906 3584 2284 3584 
Q 2666 3584 2933 3390 
Q 3200 3197 3328 2828 
z
" transform="scale(0.015625)"/>
       <path id="DejaVuSans-73" d="M 2834 3397 
L 2834 2853 
Q 2591 2978 2328 3040 
Q 2066 3103 1784 3103 
Q 1356 3103 1142 2972 
Q 928 2841 928 2578 
Q 928 2378 1081 2264 
Q 1234 2150 1697 2047 
L 1894 2003 
Q 2506 1872 2764 1633 
Q 3022 1394 3022 966 
Q 3022 478 2636 193 
Q 2250 -91 1575 -91 
Q 1294 -91 989 -36 
Q 684 19 347 128 
L 347 722 
Q 666 556 975 473 
Q 1284 391 1588 391 
Q 1994 391 2212 530 
Q 2431 669 2431 922 
Q 2431 1156 2273 1281 
Q 2116 1406 1581 1522 
L 1381 1569 
Q 847 1681 609 1914 
Q 372 2147 372 2553 
Q 372 3047 722 3315 
Q 1072 3584 1716 3584 
Q 2034 3584 2315 3537 
Q 2597 3491 2834 3397 
z
" transform="scale(0.015625)"/>
       <path id="DejaVuSans-6f" d="M 1959 3097 
Q 1497 3097 1228 2736 
Q 959 2375 959 1747 
Q 959 1119 1226 758 
Q 1494 397 1959 397 
Q 2419 397 2687 759 
Q 2956 1122 2956 1747 
Q 2956 2369 2687 2733 
Q 2419 3097 1959 3097 
z
M 1959 3584 
Q 2709 3584 3137 3096 
Q 3566 2609 3566 1747 
Q 3566 888 3137 398 
Q 2709 -91 1959 -91 
Q 1206 -91 779 398 
Q 353 888 353 1747 
Q 353 2609 779 3096 
Q 1206 3584 1959 3584 
z
" transform="scale(0.015625)"/>
       <path id="DejaVuSans-6b" d="M 581 4863 
L 1159 4863 
L 1159 1991 
L 2875 3500 
L 3609 3500 
L 1753 1863 
L 3688 0 
L 2938 0 
L 1159 1709 
L 1159 0 
L 581 0 
L 581 4863 
z
" transform="scale(0.015625)"/>
       <path id="DejaVuSans-6e" d="M 3513 2113 
L 3513 0 
L 2938 0 
L 2938 2094 
Q 2938 2591 2744 2837 
Q 2550 3084 2163 3084 
Q 1697 3084 1428 2787 
Q 1159 2491 1159 1978 
L 1159 0 
L 581 0 
L 581 3500 
L 1159 3500 
L 1159 2956 
Q 1366 3272 1645 3428 
Q 1925 3584 2291 3584 
Q 2894 3584 3203 3211 
Q 3513 2838 3513 2113 
z
" transform="scale(0.015625)"/>
       <path id="DejaVuSans-28" d="M 1984 4856 
Q 1566 4138 1362 3434 
Q 1159 2731 1159 2009 
Q 1159 1288 1364 580 
Q 1569 -128 1984 -844 
L 1484 -844 
Q 1016 -109 783 600 
Q 550 1309 550 2009 
Q 550 2706 781 3412 
Q 1013 4119 1484 4856 
L 1984 4856 
z
" transform="scale(0.015625)"/>
       <path id="DejaVuSans-62" d="M 3116 1747 
Q 3116 2381 2855 2742 
Q 2594 3103 2138 3103 
Q 1681 3103 1420 2742 
Q 1159 2381 1159 1747 
Q 1159 1113 1420 752 
Q 1681 391 2138 391 
Q 2594 391 2855 752 
Q 3116 1113 3116 1747 
z
M 1159 2969 
Q 1341 3281 1617 3432 
Q 1894 3584 2278 3584 
Q 2916 3584 3314 3078 
Q 3713 2572 3713 1747 
Q 3713 922 3314 415 
Q 2916 -91 2278 -91 
Q 1894 -91 1617 61 
Q 1341 213 1159 525 
L 1159 0 
L 581 0 
L 581 4863 
L 1159 4863 
L 1159 2969 
z
" transform="scale(0.015625)"/>
       <path id="DejaVuSans-6c" d="M 603 4863 
L 1178 4863 
L 1178 0 
L 603 0 
L 603 4863 
z
" transform="scale(0.015625)"/>
       <path id="DejaVuSans-2c" d="M 750 794 
L 1409 794 
L 1409 256 
L 897 -744 
L 494 -744 
L 750 256 
L 750 794 
z
" transform="scale(0.015625)"/>
       <path id="DejaVuSans-67" d="M 2906 1791 
Q 2906 2416 2648 2759 
Q 2391 3103 1925 3103 
Q 1463 3103 1205 2759 
Q 947 2416 947 1791 
Q 947 1169 1205 825 
Q 1463 481 1925 481 
Q 2391 481 2648 825 
Q 2906 1169 2906 1791 
z
M 3481 434 
Q 3481 -459 3084 -895 
Q 2688 -1331 1869 -1331 
Q 1566 -1331 1297 -1286 
Q 1028 -1241 775 -1147 
L 775 -588 
Q 1028 -725 1275 -790 
Q 1522 -856 1778 -856 
Q 2344 -856 2625 -561 
Q 2906 -266 2906 331 
L 2906 616 
Q 2728 306 2450 153 
Q 2172 0 1784 0 
Q 1141 0 747 490 
Q 353 981 353 1791 
Q 353 2603 747 3093 
Q 1141 3584 1784 3584 
Q 2172 3584 2450 3431 
Q 2728 3278 2906 2969 
L 2906 3500 
L 3481 3500 
L 3481 434 
z
" transform="scale(0.015625)"/>
       <path id="DejaVuSans-29" d="M 513 4856 
L 1013 4856 
Q 1481 4119 1714 3412 
Q 1947 2706 1947 2009 
Q 1947 1309 1714 600 
Q 1481 -109 1013 -844 
L 513 -844 
Q 928 -128 1133 580 
Q 1338 1288 1338 2009 
Q 1338 2731 1133 3434 
Q 928 4138 513 4856 
z
" transform="scale(0.015625)"/>
      </defs>
      <use xlink:href="#DejaVuSans-41"/>
      <use xlink:href="#DejaVuSans-63" transform="translate(66.658203 0)"/>
      <use xlink:href="#DejaVuSans-74" transform="translate(121.638672 0)"/>
      <use xlink:href="#DejaVuSans-69" transform="translate(160.847656 0)"/>
      <use xlink:href="#DejaVuSans-76" transform="translate(188.630859 0)"/>
      <use xlink:href="#DejaVuSans-65" transform="translate(247.810547 0)"/>
      <use xlink:href="#DejaVuSans-20" transform="translate(309.333984 0)"/>
      <use xlink:href="#DejaVuSans-70" transform="translate(341.121094 0)"/>
      <use xlink:href="#DejaVuSans-61" transform="translate(404.597656 0)"/>
      <use xlink:href="#DejaVuSans-72" transform="translate(465.876953 0)"/>
      <use xlink:href="#DejaVuSans-61" transform="translate(506.990234 0)"/>
      <use xlink:href="#DejaVuSans-6d" transform="translate(568.269531 0)"/>
      <use xlink:href="#DejaVuSans-65" transform="translate(665.681641 0)"/>
      <use xlink:href="#DejaVuSans-74" transform="translate(727.205078 0)"/>
      <use xlink:href="#DejaVuSans-65" transform="translate(766.414062 0)"/>
      <use xlink:href="#DejaVuSans-72" transform="translate(827.9375 0)"/>
      <use xlink:href="#DejaVuSans-73" transform="translate(869.050781 0)"/>
      <use xlink:href="#DejaVuSans-20" transform="translate(921.150391 0)"/>
      <use xlink:href="#DejaVuSans-70" transform="translate(952.9375 0)"/>
      <use xlink:href="#DejaVuSans-65" transform="translate(1016.414062 0)"/>
      <use xlink:href="#DejaVuSans-72" transform="translate(1077.9375 0)"/>
      <use xlink:href="#DejaVuSans-20" transform="translate(1119.050781 0)"/>
      <use xlink:href="#DejaVuSans-74" transform="translate(1150.837891 0)"/>
      <use xlink:href="#DejaVuSans-6f" transform="translate(1190.046875 0)"/>
      <use xlink:href="#DejaVuSans-6b" transform="translate(1251.228516 0)"/>
      <use xlink:href="#DejaVuSans-65" transform="translate(1305.513672 0)"/>
      <use xlink:href="#DejaVuSans-6e" transform="translate(1367.037109 0)"/>
      <use xlink:href="#DejaVuSans-20" transform="translate(1430.416016 0)"/>
      <use xlink:href="#DejaVuSans-28" transform="translate(1462.203125 0)"/>
      <use xlink:href="#DejaVuSans-62" transform="translate(1501.216797 0)"/>
      <use xlink:href="#DejaVuSans-69" transform="translate(1564.693359 0)"/>
      <use xlink:href="#DejaVuSans-6c" transform="translate(1592.476562 0)"/>
      <use xlink:href="#DejaVuSans-6c" transform="translate(1620.259766 0)"/>
      <use xlink:href="#DejaVuSans-69" transform="translate(1648.042969 0)"/>
      <use xlink:href="#DejaVuSans-6f" transform="translate(1675.826172 0)"/>
      <use xlink:href="#DejaVuSans-6e" transform="translate(1737.007812 0)"/>
      <use xlink:href="#DejaVuSans-73" transform="translate(1800.386719 0)"/>
      <use xlink:href="#DejaVuSans-2c" transform="translate(1852.486328 0)"/>
      <use xlink:href="#DejaVuSans-20" transform="translate(1884.273438 0)"/>
      <use xlink:href="#DejaVuSans-6c" transform="translate(1916.060547 0)"/>
      <use xlink:href="#DejaVuSans-6f" transform="translate(1943.84375 0)"/>
      <use xlink:href="#DejaVuSans-67" transform="translate(2005.025391 0)"/>
      <use xlink:href="#DejaVuSans-20" transform="translate(2068.501953 0)"/>
      <use xlink:href="#DejaVuSans-73" transform="translate(2100.289062 0)"/>
      <use xlink:href="#DejaVuSans-63" transform="translate(2152.388672 0)"/>
      <use xlink:href="#DejaVuSans-61" transform="translate(2207.369141 0)"/>
      <use xlink:href="#DejaVuSans-6c" transform="translate(2268.648438 0)"/>
      <use xlink:href="#DejaVuSans-65" transform="translate(2296.431641 0)"/>
      <use xlink:href="#DejaVuSans-29" transform="translate(2357.955078 0)"/>
     </g>
    </g>
   </g>
   <g id="matplotlib.axis_2">
    <g id="ytick_1">
     <g id="line2d_26">
      <path d="M 48.89 259.830528 
L 493.2 259.830528 
" clip-path="url(#p4629b35f32)" style="fill: none; stroke-dasharray: 0.5,0.825; stroke-dashoffset: 0; stroke: #b0b0b0; stroke-opacity: 0.5; stroke-width: 0.5"/>
     </g>
     <g id="line2d_27">
      <defs>
       <path id="m574af708d2" d="M 0 0 
L -3.5 0 
" style="stroke: #000000; stroke-width: 0.8"/>
      </defs>
      <g>
       <use xlink:href="#m574af708d2" x="48.89" y="259.830528" style="stroke: #000000; stroke-width: 0.8"/>
      </g>
     </g>
     <g id="text_8">
      <!-- 0.05 -->
      <g transform="translate(24.0775 262.869903) scale(0.08 -0.08)">
       <defs>
        <path id="DejaVuSans-2e" d="M 684 794 
L 1344 794 
L 1344 0 
L 684 0 
L 684 794 
z
" transform="scale(0.015625)"/>
       </defs>
       <use xlink:href="#DejaVuSans-30"/>
       <use xlink:href="#DejaVuSans-2e" transform="translate(63.623047 0)"/>
       <use xlink:href="#DejaVuSans-30" transform="translate(95.410156 0)"/>
       <use xlink:href="#DejaVuSans-35" transform="translate(159.033203 0)"/>
      </g>
     </g>
    </g>
    <g id="ytick_2">
     <g id="line2d_28">
      <path d="M 48.89 218.186901 
L 493.2 218.186901 
" clip-path="url(#p4629b35f32)" style="fill: none; stroke-dasharray: 0.5,0.825; stroke-dashoffset: 0; stroke: #b0b0b0; stroke-opacity: 0.5; stroke-width: 0.5"/>
     </g>
     <g id="line2d_29">
      <g>
       <use xlink:href="#m574af708d2" x="48.89" y="218.186901" style="stroke: #000000; stroke-width: 0.8"/>
      </g>
     </g>
     <g id="text_9">
      <!-- 0.1 -->
      <g transform="translate(29.1675 221.226276) scale(0.08 -0.08)">
       <use xlink:href="#DejaVuSans-30"/>
       <use xlink:href="#DejaVuSans-2e" transform="translate(63.623047 0)"/>
       <use xlink:href="#DejaVuSans-31" transform="translate(95.410156 0)"/>
      </g>
     </g>
    </g>
    <g id="ytick_3">
     <g id="line2d_30">
      <path d="M 48.89 152.183315 
L 493.2 152.183315 
" clip-path="url(#p4629b35f32)" style="fill: none; stroke-dasharray: 0.5,0.825; stroke-dashoffset: 0; stroke: #b0b0b0; stroke-opacity: 0.5; stroke-width: 0.5"/>
     </g>
     <g id="line2d_31">
      <g>
       <use xlink:href="#m574af708d2" x="48.89" y="152.183315" style="stroke: #000000; stroke-width: 0.8"/>
      </g>
     </g>
     <g id="text_10">
      <!-- 0.3 -->
      <g transform="translate(29.1675 155.22269) scale(0.08 -0.08)">
       <defs>
        <path id="DejaVuSans-33" d="M 2597 2516 
Q 3050 2419 3304 2112 
Q 3559 1806 3559 1356 
Q 3559 666 3084 287 
Q 2609 -91 1734 -91 
Q 1441 -91 1130 -33 
Q 819 25 488 141 
L 488 750 
Q 750 597 1062 519 
Q 1375 441 1716 441 
Q 2309 441 2620 675 
Q 2931 909 2931 1356 
Q 2931 1769 2642 2001 
Q 2353 2234 1838 2234 
L 1294 2234 
L 1294 2753 
L 1863 2753 
Q 2328 2753 2575 2939 
Q 2822 3125 2822 3475 
Q 2822 3834 2567 4026 
Q 2313 4219 1838 4219 
Q 1578 4219 1281 4162 
Q 984 4106 628 3988 
L 628 4550 
Q 988 4650 1302 4700 
Q 1616 4750 1894 4750 
Q 2613 4750 3031 4423 
Q 3450 4097 3450 3541 
Q 3450 3153 3228 2886 
Q 3006 2619 2597 2516 
z
" transform="scale(0.015625)"/>
       </defs>
       <use xlink:href="#DejaVuSans-30"/>
       <use xlink:href="#DejaVuSans-2e" transform="translate(63.623047 0)"/>
       <use xlink:href="#DejaVuSans-33" transform="translate(95.410156 0)"/>
      </g>
     </g>
    </g>
    <g id="ytick_4">
     <g id="line2d_32">
      <path d="M 48.89 79.849768 
L 493.2 79.849768 
" clip-path="url(#p4629b35f32)" style="fill: none; stroke-dasharray: 0.5,0.825; stroke-dashoffset: 0; stroke: #b0b0b0; stroke-opacity: 0.5; stroke-width: 0.5"/>
     </g>
     <g id="line2d_33">
      <g>
       <use xlink:href="#m574af708d2" x="48.89" y="79.849768" style="stroke: #000000; stroke-width: 0.8"/>
      </g>
     </g>
     <g id="text_11">
      <!-- 1 -->
      <g transform="translate(36.8 82.889143) scale(0.08 -0.08)">
       <use xlink:href="#DejaVuSans-31"/>
      </g>
     </g>
    </g>
    <g id="ytick_5">
     <g id="line2d_34">
      <path d="M 48.89 13.846182 
L 493.2 13.846182 
" clip-path="url(#p4629b35f32)" style="fill: none; stroke-dasharray: 0.5,0.825; stroke-dashoffset: 0; stroke: #b0b0b0; stroke-opacity: 0.5; stroke-width: 0.5"/>
     </g>
     <g id="line2d_35">
      <g>
       <use xlink:href="#m574af708d2" x="48.89" y="13.846182" style="stroke: #000000; stroke-width: 0.8"/>
      </g>
     </g>
     <g id="text_12">
      <!-- 3 -->
      <g transform="translate(36.8 16.885557) scale(0.08 -0.08)">
       <use xlink:href="#DejaVuSans-33"/>
      </g>
     </g>
    </g>
    <g id="ytick_6">
     <g id="line2d_36">
      <defs>
       <path id="m49b7c487e3" d="M 0 0 
L -2 0 
" style="stroke: #000000; stroke-width: 0.6"/>
      </defs>
      <g>
       <use xlink:href="#m49b7c487e3" x="48.89" y="290.520448" style="stroke: #000000; stroke-width: 0.6"/>
      </g>
     </g>
    </g>
    <g id="ytick_7">
     <g id="line2d_37">
      <g>
       <use xlink:href="#m49b7c487e3" x="48.89" y="273.236781" style="stroke: #000000; stroke-width: 0.6"/>
      </g>
     </g>
    </g>
    <g id="ytick_8">
     <g id="line2d_38">
      <g>
       <use xlink:href="#m49b7c487e3" x="48.89" y="248.876821" style="stroke: #000000; stroke-width: 0.6"/>
      </g>
     </g>
    </g>
    <g id="ytick_9">
     <g id="line2d_39">
      <g>
       <use xlink:href="#m49b7c487e3" x="48.89" y="239.615594" style="stroke: #000000; stroke-width: 0.6"/>
      </g>
     </g>
    </g>
    <g id="ytick_10">
     <g id="line2d_40">
      <g>
       <use xlink:href="#m49b7c487e3" x="48.89" y="231.593155" style="stroke: #000000; stroke-width: 0.6"/>
      </g>
     </g>
    </g>
    <g id="ytick_11">
     <g id="line2d_41">
      <g>
       <use xlink:href="#m49b7c487e3" x="48.89" y="224.516861" style="stroke: #000000; stroke-width: 0.6"/>
      </g>
     </g>
    </g>
    <g id="ytick_12">
     <g id="line2d_42">
      <g>
       <use xlink:href="#m49b7c487e3" x="48.89" y="176.543275" style="stroke: #000000; stroke-width: 0.6"/>
      </g>
     </g>
    </g>
    <g id="ytick_13">
     <g id="line2d_43">
      <g>
       <use xlink:href="#m49b7c487e3" x="48.89" y="134.899648" style="stroke: #000000; stroke-width: 0.6"/>
      </g>
     </g>
    </g>
    <g id="ytick_14">
     <g id="line2d_44">
      <g>
       <use xlink:href="#m49b7c487e3" x="48.89" y="121.493395" style="stroke: #000000; stroke-width: 0.6"/>
      </g>
     </g>
    </g>
    <g id="ytick_15">
     <g id="line2d_45">
      <g>
       <use xlink:href="#m49b7c487e3" x="48.89" y="110.539688" style="stroke: #000000; stroke-width: 0.6"/>
      </g>
     </g>
    </g>
    <g id="ytick_16">
     <g id="line2d_46">
      <g>
       <use xlink:href="#m49b7c487e3" x="48.89" y="101.278461" style="stroke: #000000; stroke-width: 0.6"/>
      </g>
     </g>
    </g>
    <g id="ytick_17">
     <g id="line2d_47">
      <g>
       <use xlink:href="#m49b7c487e3" x="48.89" y="93.256022" style="stroke: #000000; stroke-width: 0.6"/>
      </g>
     </g>
    </g>
    <g id="ytick_18">
     <g id="line2d_48">
      <g>
       <use xlink:href="#m49b7c487e3" x="48.89" y="86.179728" style="stroke: #000000; stroke-width: 0.6"/>
      </g>
     </g>
    </g>
    <g id="ytick_19">
     <g id="line2d_49">
      <g>
       <use xlink:href="#m49b7c487e3" x="48.89" y="38.206142" style="stroke: #000000; stroke-width: 0.6"/>
      </g>
     </g>
    </g>
    <g id="text_13">
     <!-- Median output price ($/M tokens, log scale) -->
     <g transform="translate(18.205781 250.013505) rotate(-90) scale(0.09 -0.09)">
      <defs>
       <path id="DejaVuSans-4d" d="M 628 4666 
L 1569 4666 
L 2759 1491 
L 3956 4666 
L 4897 4666 
L 4897 0 
L 4281 0 
L 4281 4097 
L 3078 897 
L 2444 897 
L 1241 4097 
L 1241 0 
L 628 0 
L 628 4666 
z
" transform="scale(0.015625)"/>
       <path id="DejaVuSans-64" d="M 2906 2969 
L 2906 4863 
L 3481 4863 
L 3481 0 
L 2906 0 
L 2906 525 
Q 2725 213 2448 61 
Q 2172 -91 1784 -91 
Q 1150 -91 751 415 
Q 353 922 353 1747 
Q 353 2572 751 3078 
Q 1150 3584 1784 3584 
Q 2172 3584 2448 3432 
Q 2725 3281 2906 2969 
z
M 947 1747 
Q 947 1113 1208 752 
Q 1469 391 1925 391 
Q 2381 391 2643 752 
Q 2906 1113 2906 1747 
Q 2906 2381 2643 2742 
Q 2381 3103 1925 3103 
Q 1469 3103 1208 2742 
Q 947 2381 947 1747 
z
" transform="scale(0.015625)"/>
       <path id="DejaVuSans-75" d="M 544 1381 
L 544 3500 
L 1119 3500 
L 1119 1403 
Q 1119 906 1312 657 
Q 1506 409 1894 409 
Q 2359 409 2629 706 
Q 2900 1003 2900 1516 
L 2900 3500 
L 3475 3500 
L 3475 0 
L 2900 0 
L 2900 538 
Q 2691 219 2414 64 
Q 2138 -91 1772 -91 
Q 1169 -91 856 284 
Q 544 659 544 1381 
z
M 1991 3584 
L 1991 3584 
z
" transform="scale(0.015625)"/>
       <path id="DejaVuSans-24" d="M 2163 -941 
L 1850 -941 
L 1847 0 
Q 1519 6 1191 76 
Q 863 147 531 288 
L 531 850 
Q 850 650 1176 548 
Q 1503 447 1850 444 
L 1850 1869 
Q 1159 1981 845 2250 
Q 531 2519 531 2988 
Q 531 3497 872 3790 
Q 1213 4084 1850 4128 
L 1850 4863 
L 2163 4863 
L 2163 4138 
Q 2453 4125 2725 4076 
Q 2997 4028 3256 3944 
L 3256 3397 
Q 2997 3528 2723 3600 
Q 2450 3672 2163 3684 
L 2163 2350 
Q 2872 2241 3206 1959 
Q 3541 1678 3541 1191 
Q 3541 663 3186 358 
Q 2831 53 2163 6 
L 2163 -941 
z
M 1850 2406 
L 1850 3688 
Q 1488 3647 1297 3481 
Q 1106 3316 1106 3041 
Q 1106 2772 1282 2622 
Q 1459 2472 1850 2406 
z
M 2163 1806 
L 2163 453 
Q 2559 506 2761 678 
Q 2963 850 2963 1131 
Q 2963 1406 2770 1568 
Q 2578 1731 2163 1806 
z
" transform="scale(0.015625)"/>
       <path id="DejaVuSans-2f" d="M 1625 4666 
L 2156 4666 
L 531 -594 
L 0 -594 
L 1625 4666 
z
" transform="scale(0.015625)"/>
      </defs>
      <use xlink:href="#DejaVuSans-4d"/>
      <use xlink:href="#DejaVuSans-65" transform="translate(86.279297 0)"/>
      <use xlink:href="#DejaVuSans-64" transform="translate(147.802734 0)"/>
      <use xlink:href="#DejaVuSans-69" transform="translate(211.279297 0)"/>
      <use xlink:href="#DejaVuSans-61" transform="translate(239.0625 0)"/>
      <use xlink:href="#DejaVuSans-6e" transform="translate(300.341797 0)"/>
      <use xlink:href="#DejaVuSans-20" transform="translate(363.720703 0)"/>
      <use xlink:href="#DejaVuSans-6f" transform="translate(395.507812 0)"/>
      <use xlink:href="#DejaVuSans-75" transform="translate(456.689453 0)"/>
      <use xlink:href="#DejaVuSans-74" transform="translate(520.068359 0)"/>
      <use xlink:href="#DejaVuSans-70" transform="translate(559.277344 0)"/>
      <use xlink:href="#DejaVuSans-75" transform="translate(622.753906 0)"/>
      <use xlink:href="#DejaVuSans-74" transform="translate(686.132812 0)"/>
      <use xlink:href="#DejaVuSans-20" transform="translate(725.341797 0)"/>
      <use xlink:href="#DejaVuSans-70" transform="translate(757.128906 0)"/>
      <use xlink:href="#DejaVuSans-72" transform="translate(820.605469 0)"/>
      <use xlink:href="#DejaVuSans-69" transform="translate(861.71875 0)"/>
      <use xlink:href="#DejaVuSans-63" transform="translate(889.501953 0)"/>
      <use xlink:href="#DejaVuSans-65" transform="translate(944.482422 0)"/>
      <use xlink:href="#DejaVuSans-20" transform="translate(1006.005859 0)"/>
      <use xlink:href="#DejaVuSans-28" transform="translate(1037.792969 0)"/>
      <use xlink:href="#DejaVuSans-24" transform="translate(1076.806641 0)"/>
      <use xlink:href="#DejaVuSans-2f" transform="translate(1140.429688 0)"/>
      <use xlink:href="#DejaVuSans-4d" transform="translate(1174.121094 0)"/>
      <use xlink:href="#DejaVuSans-20" transform="translate(1260.400391 0)"/>
      <use xlink:href="#DejaVuSans-74" transform="translate(1292.1875 0)"/>
      <use xlink:href="#DejaVuSans-6f" transform="translate(1331.396484 0)"/>
      <use xlink:href="#DejaVuSans-6b" transform="translate(1392.578125 0)"/>
      <use xlink:href="#DejaVuSans-65" transform="translate(1446.863281 0)"/>
      <use xlink:href="#DejaVuSans-6e" transform="translate(1508.386719 0)"/>
      <use xlink:href="#DejaVuSans-73" transform="translate(1571.765625 0)"/>
      <use xlink:href="#DejaVuSans-2c" transform="translate(1623.865234 0)"/>
      <use xlink:href="#DejaVuSans-20" transform="translate(1655.652344 0)"/>
      <use xlink:href="#DejaVuSans-6c" transform="translate(1687.439453 0)"/>
      <use xlink:href="#DejaVuSans-6f" transform="translate(1715.222656 0)"/>
      <use xlink:href="#DejaVuSans-67" transform="translate(1776.404297 0)"/>
      <use xlink:href="#DejaVuSans-20" transform="translate(1839.880859 0)"/>
      <use xlink:href="#DejaVuSans-73" transform="translate(1871.667969 0)"/>
      <use xlink:href="#DejaVuSans-63" transform="translate(1923.767578 0)"/>
      <use xlink:href="#DejaVuSans-61" transform="translate(1978.748047 0)"/>
      <use xlink:href="#DejaVuSans-6c" transform="translate(2040.027344 0)"/>
      <use xlink:href="#DejaVuSans-65" transform="translate(2067.810547 0)"/>
      <use xlink:href="#DejaVuSans-29" transform="translate(2129.333984 0)"/>
     </g>
    </g>
   </g>
   <g id="line2d_50">
    <path d="M 362.74201 140.539849 
L 362.74201 27.427922 
" clip-path="url(#p4629b35f32)" style="fill: none; stroke-dasharray: 1.1,1.815; stroke-dashoffset: 0; stroke: #92400e; stroke-width: 1.1"/>
   </g>
   <g id="patch_3">
    <path d="M 48.89 292.84 
L 48.89 12.036073 
" style="fill: none; stroke: #000000; stroke-width: 0.8; stroke-linejoin: miter; stroke-linecap: square"/>
   </g>
   <g id="patch_4">
    <path d="M 493.2 292.84 
L 493.2 12.036073 
" style="fill: none; stroke: #000000; stroke-width: 0.8; stroke-linejoin: miter; stroke-linecap: square"/>
   </g>
   <g id="patch_5">
    <path d="M 48.89 292.84 
L 493.2 292.84 
" style="fill: none; stroke: #000000; stroke-width: 0.8; stroke-linejoin: miter; stroke-linecap: square"/>
   </g>
   <g id="patch_6">
    <path d="M 48.89 12.036073 
L 493.2 12.036073 
" style="fill: none; stroke: #000000; stroke-width: 0.8; stroke-linejoin: miter; stroke-linecap: square"/>
   </g>
   <g id="PathCollection_1">
    <defs>
     <path id="mece985f7a6" d="M 0 3.316625 
C 0.879579 3.316625 1.723251 2.967164 2.345208 2.345208 
C 2.967164 1.723251 3.316625 0.879579 3.316625 0 
C 3.316625 -0.879579 2.967164 -1.723251 2.345208 -2.345208 
C 1.723251 -2.967164 0.879579 -3.316625 0 -3.316625 
C -0.879579 -3.316625 -1.723251 -2.967164 -2.345208 -2.345208 
C -2.967164 -1.723251 -3.316625 -0.879579 -3.316625 0 
C -3.316625 0.879579 -2.967164 1.723251 -2.345208 2.345208 
C -1.723251 2.967164 -0.879579 3.316625 0 3.316625 
z
" style="stroke: #1a1c20; stroke-width: 0.4"/>
    </defs>
    <g clip-path="url(#p4629b35f32)">
     <use xlink:href="#mece985f7a6" x="247.559071" y="154.220088" style="fill: #16a34a; stroke: #1a1c20; stroke-width: 0.4"/>
     <use xlink:href="#mece985f7a6" x="331.558029" y="163.137021" style="fill: #16a34a; stroke: #1a1c20; stroke-width: 0.4"/>
     <use xlink:href="#mece985f7a6" x="204.137519" y="244.067931" style="fill: #16a34a; stroke: #1a1c20; stroke-width: 0.4"/>
     <use xlink:href="#mece985f7a6" x="429.819357" y="100.426262" style="fill: #16a34a; stroke: #1a1c20; stroke-width: 0.4"/>
     <use xlink:href="#mece985f7a6" x="316.058555" y="157.410876" style="fill: #16a34a; stroke: #1a1c20; stroke-width: 0.4"/>
     <use xlink:href="#mece985f7a6" x="432.862358" y="122.097209" style="fill: #16a34a; stroke: #1a1c20; stroke-width: 0.4"/>
    </g>
   </g>
   <g id="PathCollection_2">
    <defs>
     <path id="m8461d4bcb3" d="M 0 -3.605551 
L -3.605551 3.605551 
L 3.605551 3.605551 
z
" style="stroke: #1a1c20; stroke-width: 0.4"/>
    </defs>
    <g clip-path="url(#p4629b35f32)">
     <use xlink:href="#m8461d4bcb3" x="362.74201" y="27.427922" style="fill: #dc2626; stroke: #1a1c20; stroke-width: 0.4"/>
     <use xlink:href="#m8461d4bcb3" x="362.74201" y="73.041088" style="fill: #dc2626; stroke: #1a1c20; stroke-width: 0.4"/>
     <use xlink:href="#m8461d4bcb3" x="362.74201" y="64.087172" style="fill: #dc2626; stroke: #1a1c20; stroke-width: 0.4"/>
     <use xlink:href="#m8461d4bcb3" x="245.84305" y="81.063528" style="fill: #dc2626; stroke: #1a1c20; stroke-width: 0.4"/>
     <use xlink:href="#m8461d4bcb3" x="157.010477" y="121.493395" style="fill: #dc2626; stroke: #1a1c20; stroke-width: 0.4"/>
     <use xlink:href="#m8461d4bcb3" x="120.850368" y="193.826941" style="fill: #dc2626; stroke: #1a1c20; stroke-width: 0.4"/>
     <use xlink:href="#m8461d4bcb3" x="347.669669" y="24.799888" style="fill: #dc2626; stroke: #1a1c20; stroke-width: 0.4"/>
     <use xlink:href="#m8461d4bcb3" x="282.003159" y="88.216501" style="fill: #dc2626; stroke: #1a1c20; stroke-width: 0.4"/>
     <use xlink:href="#m8461d4bcb3" x="282.003159" y="125.853373" style="fill: #dc2626; stroke: #1a1c20; stroke-width: 0.4"/>
     <use xlink:href="#m8461d4bcb3" x="226.914998" y="68.896062" style="fill: #dc2626; stroke: #1a1c20; stroke-width: 0.4"/>
     <use xlink:href="#m8461d4bcb3" x="308.770169" y="95.163453" style="fill: #dc2626; stroke: #1a1c20; stroke-width: 0.4"/>
     <use xlink:href="#m8461d4bcb3" x="111.817119" y="152.183315" style="fill: #dc2626; stroke: #1a1c20; stroke-width: 0.4"/>
    </g>
   </g>
   <g id="patch_7">
    <path d="M 410.70665 58.13468 
Q 387.604053 70.585181 364.501455 83.035682 
" style="fill: none; stroke: #92400e; stroke-width: 0.8; stroke-linecap: round"/>
   </g>
   <g id="text_14">
    <!-- 6.6x above -->
    <g style="fill: #92400e" transform="translate(409.410297 44.561577) scale(0.08 -0.08)">
     <defs>
      <path id="DejaVuSans-36" d="M 2113 2584 
Q 1688 2584 1439 2293 
Q 1191 2003 1191 1497 
Q 1191 994 1439 701 
Q 1688 409 2113 409 
Q 2538 409 2786 701 
Q 3034 994 3034 1497 
Q 3034 2003 2786 2293 
Q 2538 2584 2113 2584 
z
M 3366 4563 
L 3366 3988 
Q 3128 4100 2886 4159 
Q 2644 4219 2406 4219 
Q 1781 4219 1451 3797 
Q 1122 3375 1075 2522 
Q 1259 2794 1537 2939 
Q 1816 3084 2150 3084 
Q 2853 3084 3261 2657 
Q 3669 2231 3669 1497 
Q 3669 778 3244 343 
Q 2819 -91 2113 -91 
Q 1303 -91 875 529 
Q 447 1150 447 2328 
Q 447 3434 972 4092 
Q 1497 4750 2381 4750 
Q 2619 4750 2861 4703 
Q 3103 4656 3366 4563 
z
" transform="scale(0.015625)"/>
      <path id="DejaVuSans-78" d="M 3513 3500 
L 2247 1797 
L 3578 0 
L 2900 0 
L 1881 1375 
L 863 0 
L 184 0 
L 1544 1831 
L 300 3500 
L 978 3500 
L 1906 2253 
L 2834 3500 
L 3513 3500 
z
" transform="scale(0.015625)"/>
     </defs>
     <use xlink:href="#DejaVuSans-36"/>
     <use xlink:href="#DejaVuSans-2e" transform="translate(63.623047 0)"/>
     <use xlink:href="#DejaVuSans-36" transform="translate(95.410156 0)"/>
     <use xlink:href="#DejaVuSans-78" transform="translate(159.033203 0)"/>
     <use xlink:href="#DejaVuSans-20" transform="translate(218.212891 0)"/>
     <use xlink:href="#DejaVuSans-61" transform="translate(250 0)"/>
     <use xlink:href="#DejaVuSans-62" transform="translate(311.279297 0)"/>
     <use xlink:href="#DejaVuSans-6f" transform="translate(374.755859 0)"/>
     <use xlink:href="#DejaVuSans-76" transform="translate(435.9375 0)"/>
     <use xlink:href="#DejaVuSans-65" transform="translate(495.117188 0)"/>
    </g>
    <!-- dense line -->
    <g style="fill: #92400e" transform="translate(409.410297 53.519827) scale(0.08 -0.08)">
     <use xlink:href="#DejaVuSans-64"/>
     <use xlink:href="#DejaVuSans-65" transform="translate(63.476562 0)"/>
     <use xlink:href="#DejaVuSans-6e" transform="translate(125 0)"/>
     <use xlink:href="#DejaVuSans-73" transform="translate(188.378906 0)"/>
     <use xlink:href="#DejaVuSans-65" transform="translate(240.478516 0)"/>
     <use xlink:href="#DejaVuSans-20" transform="translate(302.001953 0)"/>
     <use xlink:href="#DejaVuSans-6c" transform="translate(333.789062 0)"/>
     <use xlink:href="#DejaVuSans-69" transform="translate(361.572266 0)"/>
     <use xlink:href="#DejaVuSans-6e" transform="translate(389.355469 0)"/>
     <use xlink:href="#DejaVuSans-65" transform="translate(452.734375 0)"/>
    </g>
   </g>
   <g id="text_15">
    <!-- DeepSeek R1 -->
    <g style="fill: #1a1c20" transform="translate(368.74201 24.427922) scale(0.065 -0.065)">
     <defs>
      <path id="DejaVuSans-44" d="M 1259 4147 
L 1259 519 
L 2022 519 
Q 2988 519 3436 956 
Q 3884 1394 3884 2338 
Q 3884 3275 3436 3711 
Q 2988 4147 2022 4147 
L 1259 4147 
z
M 628 4666 
L 1925 4666 
Q 3281 4666 3915 4102 
Q 4550 3538 4550 2338 
Q 4550 1131 3912 565 
Q 3275 0 1925 0 
L 628 0 
L 628 4666 
z
" transform="scale(0.015625)"/>
      <path id="DejaVuSans-53" d="M 3425 4513 
L 3425 3897 
Q 3066 4069 2747 4153 
Q 2428 4238 2131 4238 
Q 1616 4238 1336 4038 
Q 1056 3838 1056 3469 
Q 1056 3159 1242 3001 
Q 1428 2844 1947 2747 
L 2328 2669 
Q 3034 2534 3370 2195 
Q 3706 1856 3706 1288 
Q 3706 609 3251 259 
Q 2797 -91 1919 -91 
Q 1588 -91 1214 -16 
Q 841 59 441 206 
L 441 856 
Q 825 641 1194 531 
Q 1563 422 1919 422 
Q 2459 422 2753 634 
Q 3047 847 3047 1241 
Q 3047 1584 2836 1778 
Q 2625 1972 2144 2069 
L 1759 2144 
Q 1053 2284 737 2584 
Q 422 2884 422 3419 
Q 422 4038 858 4394 
Q 1294 4750 2059 4750 
Q 2388 4750 2728 4690 
Q 3069 4631 3425 4513 
z
" transform="scale(0.015625)"/>
      <path id="DejaVuSans-52" d="M 2841 2188 
Q 3044 2119 3236 1894 
Q 3428 1669 3622 1275 
L 4263 0 
L 3584 0 
L 2988 1197 
Q 2756 1666 2539 1819 
Q 2322 1972 1947 1972 
L 1259 1972 
L 1259 0 
L 628 0 
L 628 4666 
L 2053 4666 
Q 2853 4666 3247 4331 
Q 3641 3997 3641 3322 
Q 3641 2881 3436 2590 
Q 3231 2300 2841 2188 
z
M 1259 4147 
L 1259 2491 
L 2053 2491 
Q 2509 2491 2742 2702 
Q 2975 2913 2975 3322 
Q 2975 3731 2742 3939 
Q 2509 4147 2053 4147 
L 1259 4147 
z
" transform="scale(0.015625)"/>
     </defs>
     <use xlink:href="#DejaVuSans-44"/>
     <use xlink:href="#DejaVuSans-65" transform="translate(77.001953 0)"/>
     <use xlink:href="#DejaVuSans-65" transform="translate(138.525391 0)"/>
     <use xlink:href="#DejaVuSans-70" transform="translate(200.048828 0)"/>
     <use xlink:href="#DejaVuSans-53" transform="translate(263.525391 0)"/>
     <use xlink:href="#DejaVuSans-65" transform="translate(327.001953 0)"/>
     <use xlink:href="#DejaVuSans-65" transform="translate(388.525391 0)"/>
     <use xlink:href="#DejaVuSans-6b" transform="translate(450.048828 0)"/>
     <use xlink:href="#DejaVuSans-20" transform="translate(507.958984 0)"/>
     <use xlink:href="#DejaVuSans-52" transform="translate(539.746094 0)"/>
     <use xlink:href="#DejaVuSans-31" transform="translate(609.228516 0)"/>
    </g>
   </g>
   <g id="text_16">
    <!-- DeepSeek V3 -->
    <g style="fill: #1a1c20" transform="translate(312.074197 76.041088) scale(0.065 -0.065)">
     <defs>
      <path id="DejaVuSans-56" d="M 1831 0 
L 50 4666 
L 709 4666 
L 2188 738 
L 3669 4666 
L 4325 4666 
L 2547 0 
L 1831 0 
z
" transform="scale(0.015625)"/>
     </defs>
     <use xlink:href="#DejaVuSans-44"/>
     <use xlink:href="#DejaVuSans-65" transform="translate(77.001953 0)"/>
     <use xlink:href="#DejaVuSans-65" transform="translate(138.525391 0)"/>
     <use xlink:href="#DejaVuSans-70" transform="translate(200.048828 0)"/>
     <use xlink:href="#DejaVuSans-53" transform="translate(263.525391 0)"/>
     <use xlink:href="#DejaVuSans-65" transform="translate(327.001953 0)"/>
     <use xlink:href="#DejaVuSans-65" transform="translate(388.525391 0)"/>
     <use xlink:href="#DejaVuSans-6b" transform="translate(450.048828 0)"/>
     <use xlink:href="#DejaVuSans-20" transform="translate(507.958984 0)"/>
     <use xlink:href="#DejaVuSans-56" transform="translate(539.746094 0)"/>
     <use xlink:href="#DejaVuSans-33" transform="translate(608.154297 0)"/>
    </g>
   </g>
   <g id="text_17">
    <!-- DeepSeek V3.1 -->
    <g style="fill: #1a1c20" transform="translate(368.74201 63.087172) scale(0.065 -0.065)">
     <use xlink:href="#DejaVuSans-44"/>
     <use xlink:href="#DejaVuSans-65" transform="translate(77.001953 0)"/>
     <use xlink:href="#DejaVuSans-65" transform="translate(138.525391 0)"/>
     <use xlink:href="#DejaVuSans-70" transform="translate(200.048828 0)"/>
     <use xlink:href="#DejaVuSans-53" transform="translate(263.525391 0)"/>
     <use xlink:href="#DejaVuSans-65" transform="translate(327.001953 0)"/>
     <use xlink:href="#DejaVuSans-65" transform="translate(388.525391 0)"/>
     <use xlink:href="#DejaVuSans-6b" transform="translate(450.048828 0)"/>
     <use xlink:href="#DejaVuSans-20" transform="translate(507.958984 0)"/>
     <use xlink:href="#DejaVuSans-56" transform="translate(539.746094 0)"/>
     <use xlink:href="#DejaVuSans-33" transform="translate(608.154297 0)"/>
     <use xlink:href="#DejaVuSans-2e" transform="translate(671.777344 0)"/>
     <use xlink:href="#DejaVuSans-31" transform="translate(703.564453 0)"/>
    </g>
   </g>
   <g id="text_18">
    <!-- GLM 4.5 Air -->
    <g style="fill: #1a1c20" transform="translate(251.84305 78.063528) scale(0.065 -0.065)">
     <defs>
      <path id="DejaVuSans-47" d="M 3809 666 
L 3809 1919 
L 2778 1919 
L 2778 2438 
L 4434 2438 
L 4434 434 
Q 4069 175 3628 42 
Q 3188 -91 2688 -91 
Q 1594 -91 976 548 
Q 359 1188 359 2328 
Q 359 3472 976 4111 
Q 1594 4750 2688 4750 
Q 3144 4750 3555 4637 
Q 3966 4525 4313 4306 
L 4313 3634 
Q 3963 3931 3569 4081 
Q 3175 4231 2741 4231 
Q 1884 4231 1454 3753 
Q 1025 3275 1025 2328 
Q 1025 1384 1454 906 
Q 1884 428 2741 428 
Q 3075 428 3337 486 
Q 3600 544 3809 666 
z
" transform="scale(0.015625)"/>
      <path id="DejaVuSans-4c" d="M 628 4666 
L 1259 4666 
L 1259 531 
L 3531 531 
L 3531 0 
L 628 0 
L 628 4666 
z
" transform="scale(0.015625)"/>
      <path id="DejaVuSans-34" d="M 2419 4116 
L 825 1625 
L 2419 1625 
L 2419 4116 
z
M 2253 4666 
L 3047 4666 
L 3047 1625 
L 3713 1625 
L 3713 1100 
L 3047 1100 
L 3047 0 
L 2419 0 
L 2419 1100 
L 313 1100 
L 313 1709 
L 2253 4666 
z
" transform="scale(0.015625)"/>
     </defs>
     <use xlink:href="#DejaVuSans-47"/>
     <use xlink:href="#DejaVuSans-4c" transform="translate(77.490234 0)"/>
     <use xlink:href="#DejaVuSans-4d" transform="translate(133.203125 0)"/>
     <use xlink:href="#DejaVuSans-20" transform="translate(219.482422 0)"/>
     <use xlink:href="#DejaVuSans-34" transform="translate(251.269531 0)"/>
     <use xlink:href="#DejaVuSans-2e" transform="translate(314.892578 0)"/>
     <use xlink:href="#DejaVuSans-35" transform="translate(346.679688 0)"/>
     <use xlink:href="#DejaVuSans-20" transform="translate(410.302734 0)"/>
     <use xlink:href="#DejaVuSans-41" transform="translate(442.089844 0)"/>
     <use xlink:href="#DejaVuSans-69" transform="translate(510.498047 0)"/>
     <use xlink:href="#DejaVuSans-72" transform="translate(538.28125 0)"/>
    </g>
   </g>
   <g id="text_19">
    <!-- GPT-OSS 120B -->
    <g style="fill: #1a1c20" transform="translate(163.010477 119.493395) scale(0.065 -0.065)">
     <defs>
      <path id="DejaVuSans-50" d="M 1259 4147 
L 1259 2394 
L 2053 2394 
Q 2494 2394 2734 2622 
Q 2975 2850 2975 3272 
Q 2975 3691 2734 3919 
Q 2494 4147 2053 4147 
L 1259 4147 
z
M 628 4666 
L 2053 4666 
Q 2838 4666 3239 4311 
Q 3641 3956 3641 3272 
Q 3641 2581 3239 2228 
Q 2838 1875 2053 1875 
L 1259 1875 
L 1259 0 
L 628 0 
L 628 4666 
z
" transform="scale(0.015625)"/>
      <path id="DejaVuSans-54" d="M -19 4666 
L 3928 4666 
L 3928 4134 
L 2272 4134 
L 2272 0 
L 1638 0 
L 1638 4134 
L -19 4134 
L -19 4666 
z
" transform="scale(0.015625)"/>
      <path id="DejaVuSans-2d" d="M 313 2009 
L 1997 2009 
L 1997 1497 
L 313 1497 
L 313 2009 
z
" transform="scale(0.015625)"/>
      <path id="DejaVuSans-4f" d="M 2522 4238 
Q 1834 4238 1429 3725 
Q 1025 3213 1025 2328 
Q 1025 1447 1429 934 
Q 1834 422 2522 422 
Q 3209 422 3611 934 
Q 4013 1447 4013 2328 
Q 4013 3213 3611 3725 
Q 3209 4238 2522 4238 
z
M 2522 4750 
Q 3503 4750 4090 4092 
Q 4678 3434 4678 2328 
Q 4678 1225 4090 567 
Q 3503 -91 2522 -91 
Q 1538 -91 948 565 
Q 359 1222 359 2328 
Q 359 3434 948 4092 
Q 1538 4750 2522 4750 
z
" transform="scale(0.015625)"/>
      <path id="DejaVuSans-42" d="M 1259 2228 
L 1259 519 
L 2272 519 
Q 2781 519 3026 730 
Q 3272 941 3272 1375 
Q 3272 1813 3026 2020 
Q 2781 2228 2272 2228 
L 1259 2228 
z
M 1259 4147 
L 1259 2741 
L 2194 2741 
Q 2656 2741 2882 2914 
Q 3109 3088 3109 3444 
Q 3109 3797 2882 3972 
Q 2656 4147 2194 4147 
L 1259 4147 
z
M 628 4666 
L 2241 4666 
Q 2963 4666 3353 4366 
Q 3744 4066 3744 3513 
Q 3744 3084 3544 2831 
Q 3344 2578 2956 2516 
Q 3422 2416 3680 2098 
Q 3938 1781 3938 1306 
Q 3938 681 3513 340 
Q 3088 0 2303 0 
L 628 0 
L 628 4666 
z
" transform="scale(0.015625)"/>
     </defs>
     <use xlink:href="#DejaVuSans-47"/>
     <use xlink:href="#DejaVuSans-50" transform="translate(77.490234 0)"/>
     <use xlink:href="#DejaVuSans-54" transform="translate(137.792969 0)"/>
     <use xlink:href="#DejaVuSans-2d" transform="translate(189.751953 0)"/>
     <use xlink:href="#DejaVuSans-4f" transform="translate(228.585938 0)"/>
     <use xlink:href="#DejaVuSans-53" transform="translate(307.296875 0)"/>
     <use xlink:href="#DejaVuSans-53" transform="translate(370.773438 0)"/>
     <use xlink:href="#DejaVuSans-20" transform="translate(434.25 0)"/>
     <use xlink:href="#DejaVuSans-31" transform="translate(466.037109 0)"/>
     <use xlink:href="#DejaVuSans-32" transform="translate(529.660156 0)"/>
     <use xlink:href="#DejaVuSans-30" transform="translate(593.283203 0)"/>
     <use xlink:href="#DejaVuSans-42" transform="translate(656.90625 0)"/>
    </g>
   </g>
   <g id="text_20">
    <!-- GPT-OSS 20B -->
    <g style="fill: #1a1c20" transform="translate(126.850368 191.826941) scale(0.065 -0.065)">
     <use xlink:href="#DejaVuSans-47"/>
     <use xlink:href="#DejaVuSans-50" transform="translate(77.490234 0)"/>
     <use xlink:href="#DejaVuSans-54" transform="translate(137.792969 0)"/>
     <use xlink:href="#DejaVuSans-2d" transform="translate(189.751953 0)"/>
     <use xlink:href="#DejaVuSans-4f" transform="translate(228.585938 0)"/>
     <use xlink:href="#DejaVuSans-53" transform="translate(307.296875 0)"/>
     <use xlink:href="#DejaVuSans-53" transform="translate(370.773438 0)"/>
     <use xlink:href="#DejaVuSans-20" transform="translate(434.25 0)"/>
     <use xlink:href="#DejaVuSans-32" transform="translate(466.037109 0)"/>
     <use xlink:href="#DejaVuSans-30" transform="translate(529.660156 0)"/>
     <use xlink:href="#DejaVuSans-42" transform="translate(593.283203 0)"/>
    </g>
   </g>
   <g id="text_21">
    <!-- Gemma 3 12B -->
    <g style="fill: #1a1c20" transform="translate(253.559071 151.220088) scale(0.065 -0.065)">
     <use xlink:href="#DejaVuSans-47"/>
     <use xlink:href="#DejaVuSans-65" transform="translate(77.490234 0)"/>
     <use xlink:href="#DejaVuSans-6d" transform="translate(139.013672 0)"/>
     <use xlink:href="#DejaVuSans-6d" transform="translate(236.425781 0)"/>
     <use xlink:href="#DejaVuSans-61" transform="translate(333.837891 0)"/>
     <use xlink:href="#DejaVuSans-20" transform="translate(395.117188 0)"/>
     <use xlink:href="#DejaVuSans-33" transform="translate(426.904297 0)"/>
     <use xlink:href="#DejaVuSans-20" transform="translate(490.527344 0)"/>
     <use xlink:href="#DejaVuSans-31" transform="translate(522.314453 0)"/>
     <use xlink:href="#DejaVuSans-32" transform="translate(585.9375 0)"/>
     <use xlink:href="#DejaVuSans-42" transform="translate(649.560547 0)"/>
    </g>
   </g>
   <g id="text_22">
    <!-- Gemma 3 27B -->
    <g style="fill: #1a1c20" transform="translate(337.558029 172.137021) scale(0.065 -0.065)">
     <defs>
      <path id="DejaVuSans-37" d="M 525 4666 
L 3525 4666 
L 3525 4397 
L 1831 0 
L 1172 0 
L 2766 4134 
L 525 4134 
L 525 4666 
z
" transform="scale(0.015625)"/>
     </defs>
     <use xlink:href="#DejaVuSans-47"/>
     <use xlink:href="#DejaVuSans-65" transform="translate(77.490234 0)"/>
     <use xlink:href="#DejaVuSans-6d" transform="translate(139.013672 0)"/>
     <use xlink:href="#DejaVuSans-6d" transform="translate(236.425781 0)"/>
     <use xlink:href="#DejaVuSans-61" transform="translate(333.837891 0)"/>
     <use xlink:href="#DejaVuSans-20" transform="translate(395.117188 0)"/>
     <use xlink:href="#DejaVuSans-33" transform="translate(426.904297 0)"/>
     <use xlink:href="#DejaVuSans-20" transform="translate(490.527344 0)"/>
     <use xlink:href="#DejaVuSans-32" transform="translate(522.314453 0)"/>
     <use xlink:href="#DejaVuSans-37" transform="translate(585.9375 0)"/>
     <use xlink:href="#DejaVuSans-42" transform="translate(649.560547 0)"/>
    </g>
   </g>
   <g id="text_23">
    <!-- Kimi K2 -->
    <g style="fill: #1a1c20" transform="translate(317.000138 21.799888) scale(0.065 -0.065)">
     <defs>
      <path id="DejaVuSans-4b" d="M 628 4666 
L 1259 4666 
L 1259 2694 
L 3353 4666 
L 4166 4666 
L 1850 2491 
L 4331 0 
L 3500 0 
L 1259 2247 
L 1259 0 
L 628 0 
L 628 4666 
z
" transform="scale(0.015625)"/>
     </defs>
     <use xlink:href="#DejaVuSans-4b"/>
     <use xlink:href="#DejaVuSans-69" transform="translate(65.576172 0)"/>
     <use xlink:href="#DejaVuSans-6d" transform="translate(93.359375 0)"/>
     <use xlink:href="#DejaVuSans-69" transform="translate(190.771484 0)"/>
     <use xlink:href="#DejaVuSans-20" transform="translate(218.554688 0)"/>
     <use xlink:href="#DejaVuSans-4b" transform="translate(250.341797 0)"/>
     <use xlink:href="#DejaVuSans-32" transform="translate(315.917969 0)"/>
    </g>
   </g>
   <g id="text_24">
    <!-- Llama 3.1 8B -->
    <g style="fill: #1a1c20" transform="translate(210.137519 253.067931) scale(0.065 -0.065)">
     <defs>
      <path id="DejaVuSans-38" d="M 2034 2216 
Q 1584 2216 1326 1975 
Q 1069 1734 1069 1313 
Q 1069 891 1326 650 
Q 1584 409 2034 409 
Q 2484 409 2743 651 
Q 3003 894 3003 1313 
Q 3003 1734 2745 1975 
Q 2488 2216 2034 2216 
z
M 1403 2484 
Q 997 2584 770 2862 
Q 544 3141 544 3541 
Q 544 4100 942 4425 
Q 1341 4750 2034 4750 
Q 2731 4750 3128 4425 
Q 3525 4100 3525 3541 
Q 3525 3141 3298 2862 
Q 3072 2584 2669 2484 
Q 3125 2378 3379 2068 
Q 3634 1759 3634 1313 
Q 3634 634 3220 271 
Q 2806 -91 2034 -91 
Q 1263 -91 848 271 
Q 434 634 434 1313 
Q 434 1759 690 2068 
Q 947 2378 1403 2484 
z
M 1172 3481 
Q 1172 3119 1398 2916 
Q 1625 2713 2034 2713 
Q 2441 2713 2670 2916 
Q 2900 3119 2900 3481 
Q 2900 3844 2670 4047 
Q 2441 4250 2034 4250 
Q 1625 4250 1398 4047 
Q 1172 3844 1172 3481 
z
" transform="scale(0.015625)"/>
     </defs>
     <use xlink:href="#DejaVuSans-4c"/>
     <use xlink:href="#DejaVuSans-6c" transform="translate(55.712891 0)"/>
     <use xlink:href="#DejaVuSans-61" transform="translate(83.496094 0)"/>
     <use xlink:href="#DejaVuSans-6d" transform="translate(144.775391 0)"/>
     <use xlink:href="#DejaVuSans-61" transform="translate(242.1875 0)"/>
     <use xlink:href="#DejaVuSans-20" transform="translate(303.466797 0)"/>
     <use xlink:href="#DejaVuSans-33" transform="translate(335.253906 0)"/>
     <use xlink:href="#DejaVuSans-2e" transform="translate(398.876953 0)"/>
     <use xlink:href="#DejaVuSans-31" transform="translate(430.664062 0)"/>
     <use xlink:href="#DejaVuSans-20" transform="translate(494.287109 0)"/>
     <use xlink:href="#DejaVuSans-38" transform="translate(526.074219 0)"/>
     <use xlink:href="#DejaVuSans-42" transform="translate(589.697266 0)"/>
    </g>
   </g>
   <g id="text_25">
    <!-- Llama 3.3 70B -->
    <g style="fill: #1a1c20" transform="translate(435.819357 97.426262) scale(0.065 -0.065)">
     <use xlink:href="#DejaVuSans-4c"/>
     <use xlink:href="#DejaVuSans-6c" transform="translate(55.712891 0)"/>
     <use xlink:href="#DejaVuSans-61" transform="translate(83.496094 0)"/>
     <use xlink:href="#DejaVuSans-6d" transform="translate(144.775391 0)"/>
     <use xlink:href="#DejaVuSans-61" transform="translate(242.1875 0)"/>
     <use xlink:href="#DejaVuSans-20" transform="translate(303.466797 0)"/>
     <use xlink:href="#DejaVuSans-33" transform="translate(335.253906 0)"/>
     <use xlink:href="#DejaVuSans-2e" transform="translate(398.876953 0)"/>
     <use xlink:href="#DejaVuSans-33" transform="translate(430.664062 0)"/>
     <use xlink:href="#DejaVuSans-20" transform="translate(494.287109 0)"/>
     <use xlink:href="#DejaVuSans-37" transform="translate(526.074219 0)"/>
     <use xlink:href="#DejaVuSans-30" transform="translate(589.697266 0)"/>
     <use xlink:href="#DejaVuSans-42" transform="translate(653.320312 0)"/>
    </g>
   </g>
   <g id="text_26">
    <!-- Llama 4 Maverick -->
    <g style="fill: #1a1c20" transform="translate(288.003159 87.216501) scale(0.065 -0.065)">
     <use xlink:href="#DejaVuSans-4c"/>
     <use xlink:href="#DejaVuSans-6c" transform="translate(55.712891 0)"/>
     <use xlink:href="#DejaVuSans-61" transform="translate(83.496094 0)"/>
     <use xlink:href="#DejaVuSans-6d" transform="translate(144.775391 0)"/>
     <use xlink:href="#DejaVuSans-61" transform="translate(242.1875 0)"/>
     <use xlink:href="#DejaVuSans-20" transform="translate(303.466797 0)"/>
     <use xlink:href="#DejaVuSans-34" transform="translate(335.253906 0)"/>
     <use xlink:href="#DejaVuSans-20" transform="translate(398.876953 0)"/>
     <use xlink:href="#DejaVuSans-4d" transform="translate(430.664062 0)"/>
     <use xlink:href="#DejaVuSans-61" transform="translate(516.943359 0)"/>
     <use xlink:href="#DejaVuSans-76" transform="translate(578.222656 0)"/>
     <use xlink:href="#DejaVuSans-65" transform="translate(637.402344 0)"/>
     <use xlink:href="#DejaVuSans-72" transform="translate(698.925781 0)"/>
     <use xlink:href="#DejaVuSans-69" transform="translate(740.039062 0)"/>
     <use xlink:href="#DejaVuSans-63" transform="translate(767.822266 0)"/>
     <use xlink:href="#DejaVuSans-6b" transform="translate(822.802734 0)"/>
    </g>
   </g>
   <g id="text_27">
    <!-- Llama 4 Scout -->
    <g style="fill: #1a1c20" transform="translate(288.003159 135.853373) scale(0.065 -0.065)">
     <use xlink:href="#DejaVuSans-4c"/>
     <use xlink:href="#DejaVuSans-6c" transform="translate(55.712891 0)"/>
     <use xlink:href="#DejaVuSans-61" transform="translate(83.496094 0)"/>
     <use xlink:href="#DejaVuSans-6d" transform="translate(144.775391 0)"/>
     <use xlink:href="#DejaVuSans-61" transform="translate(242.1875 0)"/>
     <use xlink:href="#DejaVuSans-20" transform="translate(303.466797 0)"/>
     <use xlink:href="#DejaVuSans-34" transform="translate(335.253906 0)"/>
     <use xlink:href="#DejaVuSans-20" transform="translate(398.876953 0)"/>
     <use xlink:href="#DejaVuSans-53" transform="translate(430.664062 0)"/>
     <use xlink:href="#DejaVuSans-63" transform="translate(494.140625 0)"/>
     <use xlink:href="#DejaVuSans-6f" transform="translate(549.121094 0)"/>
     <use xlink:href="#DejaVuSans-75" transform="translate(610.302734 0)"/>
     <use xlink:href="#DejaVuSans-74" transform="translate(673.681641 0)"/>
    </g>
   </g>
   <g id="text_28">
    <!-- MiniMax M2 -->
    <g style="fill: #1a1c20" transform="translate(232.914998 65.896062) scale(0.065 -0.065)">
     <use xlink:href="#DejaVuSans-4d"/>
     <use xlink:href="#DejaVuSans-69" transform="translate(86.279297 0)"/>
     <use xlink:href="#DejaVuSans-6e" transform="translate(114.0625 0)"/>
     <use xlink:href="#DejaVuSans-69" transform="translate(177.441406 0)"/>
     <use xlink:href="#DejaVuSans-4d" transform="translate(205.224609 0)"/>
     <use xlink:href="#DejaVuSans-61" transform="translate(291.503906 0)"/>
     <use xlink:href="#DejaVuSans-78" transform="translate(352.783203 0)"/>
     <use xlink:href="#DejaVuSans-20" transform="translate(411.962891 0)"/>
     <use xlink:href="#DejaVuSans-4d" transform="translate(443.75 0)"/>
     <use xlink:href="#DejaVuSans-32" transform="translate(530.029297 0)"/>
    </g>
   </g>
   <g id="text_29">
    <!-- Mistral Small 3 -->
    <g style="fill: #1a1c20" transform="translate(260.929102 160.410876) scale(0.065 -0.065)">
     <use xlink:href="#DejaVuSans-4d"/>
     <use xlink:href="#DejaVuSans-69" transform="translate(86.279297 0)"/>
     <use xlink:href="#DejaVuSans-73" transform="translate(114.0625 0)"/>
     <use xlink:href="#DejaVuSans-74" transform="translate(166.162109 0)"/>
     <use xlink:href="#DejaVuSans-72" transform="translate(205.371094 0)"/>
     <use xlink:href="#DejaVuSans-61" transform="translate(246.484375 0)"/>
     <use xlink:href="#DejaVuSans-6c" transform="translate(307.763672 0)"/>
     <use xlink:href="#DejaVuSans-20" transform="translate(335.546875 0)"/>
     <use xlink:href="#DejaVuSans-53" transform="translate(367.333984 0)"/>
     <use xlink:href="#DejaVuSans-6d" transform="translate(430.810547 0)"/>
     <use xlink:href="#DejaVuSans-61" transform="translate(528.222656 0)"/>
     <use xlink:href="#DejaVuSans-6c" transform="translate(589.501953 0)"/>
     <use xlink:href="#DejaVuSans-6c" transform="translate(617.285156 0)"/>
     <use xlink:href="#DejaVuSans-20" transform="translate(645.068359 0)"/>
     <use xlink:href="#DejaVuSans-33" transform="translate(676.855469 0)"/>
    </g>
   </g>
   <g id="text_30">
    <!-- Qwen2.5 72B -->
    <g style="fill: #1a1c20" transform="translate(438.862358 131.097209) scale(0.065 -0.065)">
     <defs>
      <path id="DejaVuSans-51" d="M 2522 4238 
Q 1834 4238 1429 3725 
Q 1025 3213 1025 2328 
Q 1025 1447 1429 934 
Q 1834 422 2522 422 
Q 3209 422 3611 934 
Q 4013 1447 4013 2328 
Q 4013 3213 3611 3725 
Q 3209 4238 2522 4238 
z
M 3406 84 
L 4238 -825 
L 3475 -825 
L 2784 -78 
Q 2681 -84 2626 -87 
Q 2572 -91 2522 -91 
Q 1538 -91 948 567 
Q 359 1225 359 2328 
Q 359 3434 948 4092 
Q 1538 4750 2522 4750 
Q 3503 4750 4090 4092 
Q 4678 3434 4678 2328 
Q 4678 1516 4351 937 
Q 4025 359 3406 84 
z
" transform="scale(0.015625)"/>
      <path id="DejaVuSans-77" d="M 269 3500 
L 844 3500 
L 1563 769 
L 2278 3500 
L 2956 3500 
L 3675 769 
L 4391 3500 
L 4966 3500 
L 4050 0 
L 3372 0 
L 2619 2869 
L 1863 0 
L 1184 0 
L 269 3500 
z
" transform="scale(0.015625)"/>
     </defs>
     <use xlink:href="#DejaVuSans-51"/>
     <use xlink:href="#DejaVuSans-77" transform="translate(78.710938 0)"/>
     <use xlink:href="#DejaVuSans-65" transform="translate(160.498047 0)"/>
     <use xlink:href="#DejaVuSans-6e" transform="translate(222.021484 0)"/>
     <use xlink:href="#DejaVuSans-32" transform="translate(285.400391 0)"/>
     <use xlink:href="#DejaVuSans-2e" transform="translate(349.023438 0)"/>
     <use xlink:href="#DejaVuSans-35" transform="translate(380.810547 0)"/>
     <use xlink:href="#DejaVuSans-20" transform="translate(444.433594 0)"/>
     <use xlink:href="#DejaVuSans-37" transform="translate(476.220703 0)"/>
     <use xlink:href="#DejaVuSans-32" transform="translate(539.84375 0)"/>
     <use xlink:href="#DejaVuSans-42" transform="translate(603.466797 0)"/>
    </g>
   </g>
   <g id="text_31">
    <!-- Qwen3 235B-A22B -->
    <g style="fill: #1a1c20" transform="translate(240.774779 97.163453) scale(0.065 -0.065)">
     <use xlink:href="#DejaVuSans-51"/>
     <use xlink:href="#DejaVuSans-77" transform="translate(78.710938 0)"/>
     <use xlink:href="#DejaVuSans-65" transform="translate(160.498047 0)"/>
     <use xlink:href="#DejaVuSans-6e" transform="translate(222.021484 0)"/>
     <use xlink:href="#DejaVuSans-33" transform="translate(285.400391 0)"/>
     <use xlink:href="#DejaVuSans-20" transform="translate(349.023438 0)"/>
     <use xlink:href="#DejaVuSans-32" transform="translate(380.810547 0)"/>
     <use xlink:href="#DejaVuSans-33" transform="translate(444.433594 0)"/>
     <use xlink:href="#DejaVuSans-35" transform="translate(508.056641 0)"/>
     <use xlink:href="#DejaVuSans-42" transform="translate(571.679688 0)"/>
     <use xlink:href="#DejaVuSans-2d" transform="translate(640.283203 0)"/>
     <use xlink:href="#DejaVuSans-41" transform="translate(674.117188 0)"/>
     <use xlink:href="#DejaVuSans-32" transform="translate(742.525391 0)"/>
     <use xlink:href="#DejaVuSans-32" transform="translate(806.148438 0)"/>
     <use xlink:href="#DejaVuSans-42" transform="translate(869.771484 0)"/>
    </g>
   </g>
   <g id="text_32">
    <!-- Qwen3 30B-A3B -->
    <g style="fill: #1a1c20" transform="translate(117.817119 149.183315) scale(0.065 -0.065)">
     <use xlink:href="#DejaVuSans-51"/>
     <use xlink:href="#DejaVuSans-77" transform="translate(78.710938 0)"/>
     <use xlink:href="#DejaVuSans-65" transform="translate(160.498047 0)"/>
     <use xlink:href="#DejaVuSans-6e" transform="translate(222.021484 0)"/>
     <use xlink:href="#DejaVuSans-33" transform="translate(285.400391 0)"/>
     <use xlink:href="#DejaVuSans-20" transform="translate(349.023438 0)"/>
     <use xlink:href="#DejaVuSans-33" transform="translate(380.810547 0)"/>
     <use xlink:href="#DejaVuSans-30" transform="translate(444.433594 0)"/>
     <use xlink:href="#DejaVuSans-42" transform="translate(508.056641 0)"/>
     <use xlink:href="#DejaVuSans-2d" transform="translate(576.660156 0)"/>
     <use xlink:href="#DejaVuSans-41" transform="translate(610.494141 0)"/>
     <use xlink:href="#DejaVuSans-33" transform="translate(678.902344 0)"/>
     <use xlink:href="#DejaVuSans-42" transform="translate(742.525391 0)"/>
    </g>
   </g>
   <g id="legend_1">
    <g id="patch_8">
     <path d="M 54.14 51.061855 
L 251.244687 51.061855 
Q 252.744687 51.061855 252.744687 49.561855 
L 252.744687 17.286073 
Q 252.744687 15.786073 251.244687 15.786073 
L 54.14 15.786073 
Q 52.64 15.786073 52.64 17.286073 
L 52.64 49.561855 
Q 52.64 51.061855 54.14 51.061855 
z
" style="fill: #ffffff; opacity: 0.9; stroke: #cccccc; stroke-linejoin: miter"/>
    </g>
    <g id="line2d_51">
     <path d="M 55.64 21.859902 
L 63.14 21.859902 
L 70.64 21.859902 
" style="fill: none; stroke-dasharray: 5.18,2.24; stroke-dashoffset: 0; stroke: #16a34a; stroke-width: 1.4"/>
    </g>
    <g id="text_33">
     <!-- Dense-only OLS fit (compute-priced schedule) -->
     <g transform="translate(76.64 24.484902) scale(0.075 -0.075)">
      <defs>
       <path id="DejaVuSans-79" d="M 2059 -325 
Q 1816 -950 1584 -1140 
Q 1353 -1331 966 -1331 
L 506 -1331 
L 506 -850 
L 844 -850 
Q 1081 -850 1212 -737 
Q 1344 -625 1503 -206 
L 1606 56 
L 191 3500 
L 800 3500 
L 1894 763 
L 2988 3500 
L 3597 3500 
L 2059 -325 
z
" transform="scale(0.015625)"/>
       <path id="DejaVuSans-66" d="M 2375 4863 
L 2375 4384 
L 1825 4384 
Q 1516 4384 1395 4259 
Q 1275 4134 1275 3809 
L 1275 3500 
L 2222 3500 
L 2222 3053 
L 1275 3053 
L 1275 0 
L 697 0 
L 697 3053 
L 147 3053 
L 147 3500 
L 697 3500 
L 697 3744 
Q 697 4328 969 4595 
Q 1241 4863 1831 4863 
L 2375 4863 
z
" transform="scale(0.015625)"/>
       <path id="DejaVuSans-68" d="M 3513 2113 
L 3513 0 
L 2938 0 
L 2938 2094 
Q 2938 2591 2744 2837 
Q 2550 3084 2163 3084 
Q 1697 3084 1428 2787 
Q 1159 2491 1159 1978 
L 1159 0 
L 581 0 
L 581 4863 
L 1159 4863 
L 1159 2956 
Q 1366 3272 1645 3428 
Q 1925 3584 2291 3584 
Q 2894 3584 3203 3211 
Q 3513 2838 3513 2113 
z
" transform="scale(0.015625)"/>
      </defs>
      <use xlink:href="#DejaVuSans-44"/>
      <use xlink:href="#DejaVuSans-65" transform="translate(77.001953 0)"/>
      <use xlink:href="#DejaVuSans-6e" transform="translate(138.525391 0)"/>
      <use xlink:href="#DejaVuSans-73" transform="translate(201.904297 0)"/>
      <use xlink:href="#DejaVuSans-65" transform="translate(254.003906 0)"/>
      <use xlink:href="#DejaVuSans-2d" transform="translate(315.527344 0)"/>
      <use xlink:href="#DejaVuSans-6f" transform="translate(353.486328 0)"/>
      <use xlink:href="#DejaVuSans-6e" transform="translate(414.667969 0)"/>
      <use xlink:href="#DejaVuSans-6c" transform="translate(478.046875 0)"/>
      <use xlink:href="#DejaVuSans-79" transform="translate(505.830078 0)"/>
      <use xlink:href="#DejaVuSans-20" transform="translate(565.009766 0)"/>
      <use xlink:href="#DejaVuSans-4f" transform="translate(596.796875 0)"/>
      <use xlink:href="#DejaVuSans-4c" transform="translate(675.507812 0)"/>
      <use xlink:href="#DejaVuSans-53" transform="translate(731.220703 0)"/>
      <use xlink:href="#DejaVuSans-20" transform="translate(794.697266 0)"/>
      <use xlink:href="#DejaVuSans-66" transform="translate(826.484375 0)"/>
      <use xlink:href="#DejaVuSans-69" transform="translate(861.689453 0)"/>
      <use xlink:href="#DejaVuSans-74" transform="translate(889.472656 0)"/>
      <use xlink:href="#DejaVuSans-20" transform="translate(928.681641 0)"/>
      <use xlink:href="#DejaVuSans-28" transform="translate(960.46875 0)"/>
      <use xlink:href="#DejaVuSans-63" transform="translate(999.482422 0)"/>
      <use xlink:href="#DejaVuSans-6f" transform="translate(1054.462891 0)"/>
      <use xlink:href="#DejaVuSans-6d" transform="translate(1115.644531 0)"/>
      <use xlink:href="#DejaVuSans-70" transform="translate(1213.056641 0)"/>
      <use xlink:href="#DejaVuSans-75" transform="translate(1276.533203 0)"/>
      <use xlink:href="#DejaVuSans-74" transform="translate(1339.912109 0)"/>
      <use xlink:href="#DejaVuSans-65" transform="translate(1379.121094 0)"/>
      <use xlink:href="#DejaVuSans-2d" transform="translate(1440.644531 0)"/>
      <use xlink:href="#DejaVuSans-70" transform="translate(1476.728516 0)"/>
      <use xlink:href="#DejaVuSans-72" transform="translate(1540.205078 0)"/>
      <use xlink:href="#DejaVuSans-69" transform="translate(1581.318359 0)"/>
      <use xlink:href="#DejaVuSans-63" transform="translate(1609.101562 0)"/>
      <use xlink:href="#DejaVuSans-65" transform="translate(1664.082031 0)"/>
      <use xlink:href="#DejaVuSans-64" transform="translate(1725.605469 0)"/>
      <use xlink:href="#DejaVuSans-20" transform="translate(1789.082031 0)"/>
      <use xlink:href="#DejaVuSans-73" transform="translate(1820.869141 0)"/>
      <use xlink:href="#DejaVuSans-63" transform="translate(1872.96875 0)"/>
      <use xlink:href="#DejaVuSans-68" transform="translate(1927.949219 0)"/>
      <use xlink:href="#DejaVuSans-65" transform="translate(1991.328125 0)"/>
      <use xlink:href="#DejaVuSans-64" transform="translate(2052.851562 0)"/>
      <use xlink:href="#DejaVuSans-75" transform="translate(2116.328125 0)"/>
      <use xlink:href="#DejaVuSans-6c" transform="translate(2179.707031 0)"/>
      <use xlink:href="#DejaVuSans-65" transform="translate(2207.490234 0)"/>
      <use xlink:href="#DejaVuSans-29" transform="translate(2269.013672 0)"/>
     </g>
    </g>
    <g id="PathCollection_3">
     <g>
      <use xlink:href="#mece985f7a6" x="63.14" y="33.524745" style="fill: #16a34a; stroke: #1a1c20; stroke-width: 0.4"/>
     </g>
    </g>
    <g id="text_34">
     <!-- Dense (6) -->
     <g transform="translate(76.64 35.493495) scale(0.075 -0.075)">
      <use xlink:href="#DejaVuSans-44"/>
      <use xlink:href="#DejaVuSans-65" transform="translate(77.001953 0)"/>
      <use xlink:href="#DejaVuSans-6e" transform="translate(138.525391 0)"/>
      <use xlink:href="#DejaVuSans-73" transform="translate(201.904297 0)"/>
      <use xlink:href="#DejaVuSans-65" transform="translate(254.003906 0)"/>
      <use xlink:href="#DejaVuSans-20" transform="translate(315.527344 0)"/>
      <use xlink:href="#DejaVuSans-28" transform="translate(347.314453 0)"/>
      <use xlink:href="#DejaVuSans-36" transform="translate(386.328125 0)"/>
      <use xlink:href="#DejaVuSans-29" transform="translate(449.951172 0)"/>
     </g>
    </g>
    <g id="PathCollection_4">
     <g>
      <use xlink:href="#m8461d4bcb3" x="63.14" y="44.533339" style="fill: #dc2626; stroke: #1a1c20; stroke-width: 0.4"/>
     </g>
    </g>
    <g id="text_35">
     <!-- MoE (12) -->
     <g transform="translate(76.64 46.502089) scale(0.075 -0.075)">
      <defs>
       <path id="DejaVuSans-45" d="M 628 4666 
L 3578 4666 
L 3578 4134 
L 1259 4134 
L 1259 2753 
L 3481 2753 
L 3481 2222 
L 1259 2222 
L 1259 531 
L 3634 531 
L 3634 0 
L 628 0 
L 628 4666 
z
" transform="scale(0.015625)"/>
      </defs>
      <use xlink:href="#DejaVuSans-4d"/>
      <use xlink:href="#DejaVuSans-6f" transform="translate(86.279297 0)"/>
      <use xlink:href="#DejaVuSans-45" transform="translate(147.460938 0)"/>
      <use xlink:href="#DejaVuSans-20" transform="translate(210.644531 0)"/>
      <use xlink:href="#DejaVuSans-28" transform="translate(242.431641 0)"/>
      <use xlink:href="#DejaVuSans-31" transform="translate(281.445312 0)"/>
      <use xlink:href="#DejaVuSans-32" transform="translate(345.068359 0)"/>
      <use xlink:href="#DejaVuSans-29" transform="translate(408.691406 0)"/>
     </g>
    </g>
   </g>
  </g>
 </g>
 <defs>
  <clipPath id="p4629b35f32">
   <rect x="48.89" y="12.036073" width="444.31" height="280.803927"/>
  </clipPath>
 </defs>
</svg>
