<?xml version="1.0" encoding="utf-8" standalone="no"?>
<!DOCTYPE svg PUBLIC "-//W3C//DTD SVG 1.1//EN"
  "http://www.w3.org/Graphics/SVG/1.1/DTD/svg11.dtd">
<svg xmlns:xlink="http://www.w3.org/1999/xlink" width="504pt" height="280.8pt" viewBox="0 0 504 280.8" xmlns="http://www.w3.org/2000/svg" version="1.1">
 <metadata>
  <rdf:RDF xmlns:dc="http://purl.org/dc/elements/1.1/" xmlns:cc="http://creativecommons.org/ns#" xmlns:rdf="http://www.w3.org/1999/02/22-rdf-syntax-ns#">
   <cc:Work>
    <dc:type rdf:resource="http://purl.org/dc/dcmitype/StillImage"/>
    <dc:date>2026-07-04T19:31:23.385585</dc:date>
    <dc:format>image/svg+xml</dc:format>
    <dc:creator>
     <cc:Agent>
      <dc:title>Matplotlib v3.10.8, https://matplotlib.org/</dc:title>
     </cc:Agent>
    </dc:creator>
   </cc:Work>
  </rdf:RDF>
 </metadata>
 <defs>
  <style type="text/css">*{stroke-linejoin: round; stroke-linecap: butt}</style>
 </defs>
 <g id="figure_1">
  <g id="patch_1">
   <path d="M 0 280.8 
L 504 280.8 
L 504 0 
L 0 0 
z
" style="fill: #ffffff"/>
  </g>
  <g id="axes_1">
   <g id="patch_2">
    <path d="M 122.47 242.44 
L 493.2 242.44 
L 493.2 10.8 
L 122.47 10.8 
z
" style="fill: #ffffff"/>
   </g>
   <g id="matplotlib.axis_1">
    <g id="xtick_1">
     <g id="line2d_1">
      <path d="M 149.697534 242.44 
L 149.697534 10.8 
" clip-path="url(#p3d43823558)" style="fill: none; stroke-dasharray: 0.5,0.825; stroke-dashoffset: 0; stroke: #b0b0b0; stroke-opacity: 0.5; stroke-width: 0.5"/>
     </g>
     <g id="line2d_2">
      <defs>
       <path id="m3d7c227e08" d="M 0 0 
L 0 3.5 
" style="stroke: #000000; stroke-width: 0.8"/>
      </defs>
      <g>
       <use xlink:href="#m3d7c227e08" x="149.697534" y="242.44" style="stroke: #000000; stroke-width: 0.8"/>
      </g>
     </g>
     <g id="text_1">
      <!-- 0.1 -->
      <g transform="translate(143.336284 255.51875) scale(0.08 -0.08)">
       <defs>
        <path id="DejaVuSans-30" d="M 2034 4250 
Q 1547 4250 1301 3770 
Q 1056 3291 1056 2328 
Q 1056 1369 1301 889 
Q 1547 409 2034 409 
Q 2525 409 2770 889 
Q 3016 1369 3016 2328 
Q 3016 3291 2770 3770 
Q 2525 4250 2034 4250 
z
M 2034 4750 
Q 2819 4750 3233 4129 
Q 3647 3509 3647 2328 
Q 3647 1150 3233 529 
Q 2819 -91 2034 -91 
Q 1250 -91 836 529 
Q 422 1150 422 2328 
Q 422 3509 836 4129 
Q 1250 4750 2034 4750 
z
" transform="scale(0.015625)"/>
        <path id="DejaVuSans-2e" d="M 684 794 
L 1344 794 
L 1344 0 
L 684 0 
L 684 794 
z
" transform="scale(0.015625)"/>
        <path id="DejaVuSans-31" d="M 794 531 
L 1825 531 
L 1825 4091 
L 703 3866 
L 703 4441 
L 1819 4666 
L 2450 4666 
L 2450 531 
L 3481 531 
L 3481 0 
L 794 0 
L 794 531 
z
" transform="scale(0.015625)"/>
       </defs>
       <use xlink:href="#DejaVuSans-30"/>
       <use xlink:href="#DejaVuSans-2e" transform="translate(63.623047 0)"/>
       <use xlink:href="#DejaVuSans-31" transform="translate(95.410156 0)"/>
      </g>
     </g>
    </g>
    <g id="xtick_2">
     <g id="line2d_3">
      <path d="M 233.562421 242.44 
L 233.562421 10.8 
" clip-path="url(#p3d43823558)" style="fill: none; stroke-dasharray: 0.5,0.825; stroke-dashoffset: 0; stroke: #b0b0b0; stroke-opacity: 0.5; stroke-width: 0.5"/>
     </g>
     <g id="line2d_4">
      <g>
       <use xlink:href="#m3d7c227e08" x="233.562421" y="242.44" style="stroke: #000000; stroke-width: 0.8"/>
      </g>
     </g>
     <g id="text_2">
      <!-- 0.3 -->
      <g transform="translate(227.201171 255.51875) scale(0.08 -0.08)">
       <defs>
        <path id="DejaVuSans-33" d="M 2597 2516 
Q 3050 2419 3304 2112 
Q 3559 1806 3559 1356 
Q 3559 666 3084 287 
Q 2609 -91 1734 -91 
Q 1441 -91 1130 -33 
Q 819 25 488 141 
L 488 750 
Q 750 597 1062 519 
Q 1375 441 1716 441 
Q 2309 441 2620 675 
Q 2931 909 2931 1356 
Q 2931 1769 2642 2001 
Q 2353 2234 1838 2234 
L 1294 2234 
L 1294 2753 
L 1863 2753 
Q 2328 2753 2575 2939 
Q 2822 3125 2822 3475 
Q 2822 3834 2567 4026 
Q 2313 4219 1838 4219 
Q 1578 4219 1281 4162 
Q 984 4106 628 3988 
L 628 4550 
Q 988 4650 1302 4700 
Q 1616 4750 1894 4750 
Q 2613 4750 3031 4423 
Q 3450 4097 3450 3541 
Q 3450 3153 3228 2886 
Q 3006 2619 2597 2516 
z
" transform="scale(0.015625)"/>
       </defs>
       <use xlink:href="#DejaVuSans-30"/>
       <use xlink:href="#DejaVuSans-2e" transform="translate(63.623047 0)"/>
       <use xlink:href="#DejaVuSans-33" transform="translate(95.410156 0)"/>
      </g>
     </g>
    </g>
    <g id="xtick_3">
     <g id="line2d_5">
      <path d="M 325.470226 242.44 
L 325.470226 10.8 
" clip-path="url(#p3d43823558)" style="fill: none; stroke-dasharray: 0.5,0.825; stroke-dashoffset: 0; stroke: #b0b0b0; stroke-opacity: 0.5; stroke-width: 0.5"/>
     </g>
     <g id="line2d_6">
      <g>
       <use xlink:href="#m3d7c227e08" x="325.470226" y="242.44" style="stroke: #000000; stroke-width: 0.8"/>
      </g>
     </g>
     <g id="text_3">
      <!-- 1 -->
      <g transform="translate(322.925226 255.51875) scale(0.08 -0.08)">
       <use xlink:href="#DejaVuSans-31"/>
      </g>
     </g>
    </g>
    <g id="xtick_4">
     <g id="line2d_7">
      <path d="M 409.335113 242.44 
L 409.335113 10.8 
" clip-path="url(#p3d43823558)" style="fill: none; stroke-dasharray: 0.5,0.825; stroke-dashoffset: 0; stroke: #b0b0b0; stroke-opacity: 0.5; stroke-width: 0.5"/>
     </g>
     <g id="line2d_8">
      <g>
       <use xlink:href="#m3d7c227e08" x="409.335113" y="242.44" style="stroke: #000000; stroke-width: 0.8"/>
      </g>
     </g>
     <g id="text_4">
      <!-- 3 -->
      <g transform="translate(406.790113 255.51875) scale(0.08 -0.08)">
       <use xlink:href="#DejaVuSans-33"/>
      </g>
     </g>
    </g>
    <g id="xtick_5">
     <g id="line2d_9">
      <defs>
       <path id="mb2bc5b27e5" d="M 0 0 
L 0 2 
" style="stroke: #000000; stroke-width: 0.6"/>
      </defs>
      <g>
       <use xlink:href="#mb2bc5b27e5" x="122.47" y="242.44" style="stroke: #000000; stroke-width: 0.6"/>
      </g>
     </g>
    </g>
    <g id="xtick_6">
     <g id="line2d_10">
      <g>
       <use xlink:href="#mb2bc5b27e5" x="132.663401" y="242.44" style="stroke: #000000; stroke-width: 0.6"/>
      </g>
     </g>
    </g>
    <g id="xtick_7">
     <g id="line2d_11">
      <g>
       <use xlink:href="#mb2bc5b27e5" x="141.654617" y="242.44" style="stroke: #000000; stroke-width: 0.6"/>
      </g>
     </g>
    </g>
    <g id="xtick_8">
     <g id="line2d_12">
      <g>
       <use xlink:href="#mb2bc5b27e5" x="202.610387" y="242.44" style="stroke: #000000; stroke-width: 0.6"/>
      </g>
     </g>
    </g>
    <g id="xtick_9">
     <g id="line2d_13">
      <g>
       <use xlink:href="#mb2bc5b27e5" x="255.523239" y="242.44" style="stroke: #000000; stroke-width: 0.6"/>
      </g>
     </g>
    </g>
    <g id="xtick_10">
     <g id="line2d_14">
      <g>
       <use xlink:href="#mb2bc5b27e5" x="272.557373" y="242.44" style="stroke: #000000; stroke-width: 0.6"/>
      </g>
     </g>
    </g>
    <g id="xtick_11">
     <g id="line2d_15">
      <g>
       <use xlink:href="#mb2bc5b27e5" x="286.475274" y="242.44" style="stroke: #000000; stroke-width: 0.6"/>
      </g>
     </g>
    </g>
    <g id="xtick_12">
     <g id="line2d_16">
      <g>
       <use xlink:href="#mb2bc5b27e5" x="298.242691" y="242.44" style="stroke: #000000; stroke-width: 0.6"/>
      </g>
     </g>
    </g>
    <g id="xtick_13">
     <g id="line2d_17">
      <g>
       <use xlink:href="#mb2bc5b27e5" x="308.436092" y="242.44" style="stroke: #000000; stroke-width: 0.6"/>
      </g>
     </g>
    </g>
    <g id="xtick_14">
     <g id="line2d_18">
      <g>
       <use xlink:href="#mb2bc5b27e5" x="317.427309" y="242.44" style="stroke: #000000; stroke-width: 0.6"/>
      </g>
     </g>
    </g>
    <g id="xtick_15">
     <g id="line2d_19">
      <g>
       <use xlink:href="#mb2bc5b27e5" x="378.383078" y="242.44" style="stroke: #000000; stroke-width: 0.6"/>
      </g>
     </g>
    </g>
    <g id="xtick_16">
     <g id="line2d_20">
      <g>
       <use xlink:href="#mb2bc5b27e5" x="431.295931" y="242.44" style="stroke: #000000; stroke-width: 0.6"/>
      </g>
     </g>
    </g>
    <g id="xtick_17">
     <g id="line2d_21">
      <g>
       <use xlink:href="#mb2bc5b27e5" x="448.330065" y="242.44" style="stroke: #000000; stroke-width: 0.6"/>
      </g>
     </g>
    </g>
    <g id="xtick_18">
     <g id="line2d_22">
      <g>
       <use xlink:href="#mb2bc5b27e5" x="462.247965" y="242.44" style="stroke: #000000; stroke-width: 0.6"/>
      </g>
     </g>
    </g>
    <g id="xtick_19">
     <g id="line2d_23">
      <g>
       <use xlink:href="#mb2bc5b27e5" x="474.015383" y="242.44" style="stroke: #000000; stroke-width: 0.6"/>
      </g>
     </g>
    </g>
    <g id="xtick_20">
     <g id="line2d_24">
      <g>
       <use xlink:href="#mb2bc5b27e5" x="484.208783" y="242.44" style="stroke: #000000; stroke-width: 0.6"/>
      </g>
     </g>
    </g>
    <g id="xtick_21">
     <g id="line2d_25">
      <g>
       <use xlink:href="#mb2bc5b27e5" x="493.2" y="242.44" style="stroke: #000000; stroke-width: 0.6"/>
      </g>
     </g>
    </g>
    <g id="text_5">
     <!-- Output price ($/M tokens, log scale) -->
     <g transform="translate(227.268828 268.021094) scale(0.09 -0.09)">
      <defs>
       <path id="DejaVuSans-4f" d="M 2522 4238 
Q 1834 4238 1429 3725 
Q 1025 3213 1025 2328 
Q 1025 1447 1429 934 
Q 1834 422 2522 422 
Q 3209 422 3611 934 
Q 4013 1447 4013 2328 
Q 4013 3213 3611 3725 
Q 3209 4238 2522 4238 
z
M 2522 4750 
Q 3503 4750 4090 4092 
Q 4678 3434 4678 2328 
Q 4678 1225 4090 567 
Q 3503 -91 2522 -91 
Q 1538 -91 948 565 
Q 359 1222 359 2328 
Q 359 3434 948 4092 
Q 1538 4750 2522 4750 
z
" transform="scale(0.015625)"/>
       <path id="DejaVuSans-75" d="M 544 1381 
L 544 3500 
L 1119 3500 
L 1119 1403 
Q 1119 906 1312 657 
Q 1506 409 1894 409 
Q 2359 409 2629 706 
Q 2900 1003 2900 1516 
L 2900 3500 
L 3475 3500 
L 3475 0 
L 2900 0 
L 2900 538 
Q 2691 219 2414 64 
Q 2138 -91 1772 -91 
Q 1169 -91 856 284 
Q 544 659 544 1381 
z
M 1991 3584 
L 1991 3584 
z
" transform="scale(0.015625)"/>
       <path id="DejaVuSans-74" d="M 1172 4494 
L 1172 3500 
L 2356 3500 
L 2356 3053 
L 1172 3053 
L 1172 1153 
Q 1172 725 1289 603 
Q 1406 481 1766 481 
L 2356 481 
L 2356 0 
L 1766 0 
Q 1100 0 847 248 
Q 594 497 594 1153 
L 594 3053 
L 172 3053 
L 172 3500 
L 594 3500 
L 594 4494 
L 1172 4494 
z
" transform="scale(0.015625)"/>
       <path id="DejaVuSans-70" d="M 1159 525 
L 1159 -1331 
L 581 -1331 
L 581 3500 
L 1159 3500 
L 1159 2969 
Q 1341 3281 1617 3432 
Q 1894 3584 2278 3584 
Q 2916 3584 3314 3078 
Q 3713 2572 3713 1747 
Q 3713 922 3314 415 
Q 2916 -91 2278 -91 
Q 1894 -91 1617 61 
Q 1341 213 1159 525 
z
M 3116 1747 
Q 3116 2381 2855 2742 
Q 2594 3103 2138 3103 
Q 1681 3103 1420 2742 
Q 1159 2381 1159 1747 
Q 1159 1113 1420 752 
Q 1681 391 2138 391 
Q 2594 391 2855 752 
Q 3116 1113 3116 1747 
z
" transform="scale(0.015625)"/>
       <path id="DejaVuSans-20" transform="scale(0.015625)"/>
       <path id="DejaVuSans-72" d="M 2631 2963 
Q 2534 3019 2420 3045 
Q 2306 3072 2169 3072 
Q 1681 3072 1420 2755 
Q 1159 2438 1159 1844 
L 1159 0 
L 581 0 
L 581 3500 
L 1159 3500 
L 1159 2956 
Q 1341 3275 1631 3429 
Q 1922 3584 2338 3584 
Q 2397 3584 2469 3576 
Q 2541 3569 2628 3553 
L 2631 2963 
z
" transform="scale(0.015625)"/>
       <path id="DejaVuSans-69" d="M 603 3500 
L 1178 3500 
L 1178 0 
L 603 0 
L 603 3500 
z
M 603 4863 
L 1178 4863 
L 1178 4134 
L 603 4134 
L 603 4863 
z
" transform="scale(0.015625)"/>
       <path id="DejaVuSans-63" d="M 3122 3366 
L 3122 2828 
Q 2878 2963 2633 3030 
Q 2388 3097 2138 3097 
Q 1578 3097 1268 2742 
Q 959 2388 959 1747 
Q 959 1106 1268 751 
Q 1578 397 2138 397 
Q 2388 397 2633 464 
Q 2878 531 3122 666 
L 3122 134 
Q 2881 22 2623 -34 
Q 2366 -91 2075 -91 
Q 1284 -91 818 406 
Q 353 903 353 1747 
Q 353 2603 823 3093 
Q 1294 3584 2113 3584 
Q 2378 3584 2631 3529 
Q 2884 3475 3122 3366 
z
" transform="scale(0.015625)"/>
       <path id="DejaVuSans-65" d="M 3597 1894 
L 3597 1613 
L 953 1613 
Q 991 1019 1311 708 
Q 1631 397 2203 397 
Q 2534 397 2845 478 
Q 3156 559 3463 722 
L 3463 178 
Q 3153 47 2828 -22 
Q 2503 -91 2169 -91 
Q 1331 -91 842 396 
Q 353 884 353 1716 
Q 353 2575 817 3079 
Q 1281 3584 2069 3584 
Q 2775 3584 3186 3129 
Q 3597 2675 3597 1894 
z
M 3022 2063 
Q 3016 2534 2758 2815 
Q 2500 3097 2075 3097 
Q 1594 3097 1305 2825 
Q 1016 2553 972 2059 
L 3022 2063 
z
" transform="scale(0.015625)"/>
       <path id="DejaVuSans-28" d="M 1984 4856 
Q 1566 4138 1362 3434 
Q 1159 2731 1159 2009 
Q 1159 1288 1364 580 
Q 1569 -128 1984 -844 
L 1484 -844 
Q 1016 -109 783 600 
Q 550 1309 550 2009 
Q 550 2706 781 3412 
Q 1013 4119 1484 4856 
L 1984 4856 
z
" transform="scale(0.015625)"/>
       <path id="DejaVuSans-24" d="M 2163 -941 
L 1850 -941 
L 1847 0 
Q 1519 6 1191 76 
Q 863 147 531 288 
L 531 850 
Q 850 650 1176 548 
Q 1503 447 1850 444 
L 1850 1869 
Q 1159 1981 845 2250 
Q 531 2519 531 2988 
Q 531 3497 872 3790 
Q 1213 4084 1850 4128 
L 1850 4863 
L 2163 4863 
L 2163 4138 
Q 2453 4125 2725 4076 
Q 2997 4028 3256 3944 
L 3256 3397 
Q 2997 3528 2723 3600 
Q 2450 3672 2163 3684 
L 2163 2350 
Q 2872 2241 3206 1959 
Q 3541 1678 3541 1191 
Q 3541 663 3186 358 
Q 2831 53 2163 6 
L 2163 -941 
z
M 1850 2406 
L 1850 3688 
Q 1488 3647 1297 3481 
Q 1106 3316 1106 3041 
Q 1106 2772 1282 2622 
Q 1459 2472 1850 2406 
z
M 2163 1806 
L 2163 453 
Q 2559 506 2761 678 
Q 2963 850 2963 1131 
Q 2963 1406 2770 1568 
Q 2578 1731 2163 1806 
z
" transform="scale(0.015625)"/>
       <path id="DejaVuSans-2f" d="M 1625 4666 
L 2156 4666 
L 531 -594 
L 0 -594 
L 1625 4666 
z
" transform="scale(0.015625)"/>
       <path id="DejaVuSans-4d" d="M 628 4666 
L 1569 4666 
L 2759 1491 
L 3956 4666 
L 4897 4666 
L 4897 0 
L 4281 0 
L 4281 4097 
L 3078 897 
L 2444 897 
L 1241 4097 
L 1241 0 
L 628 0 
L 628 4666 
z
" transform="scale(0.015625)"/>
       <path id="DejaVuSans-6f" d="M 1959 3097 
Q 1497 3097 1228 2736 
Q 959 2375 959 1747 
Q 959 1119 1226 758 
Q 1494 397 1959 397 
Q 2419 397 2687 759 
Q 2956 1122 2956 1747 
Q 2956 2369 2687 2733 
Q 2419 3097 1959 3097 
z
M 1959 3584 
Q 2709 3584 3137 3096 
Q 3566 2609 3566 1747 
Q 3566 888 3137 398 
Q 2709 -91 1959 -91 
Q 1206 -91 779 398 
Q 353 888 353 1747 
Q 353 2609 779 3096 
Q 1206 3584 1959 3584 
z
" transform="scale(0.015625)"/>
       <path id="DejaVuSans-6b" d="M 581 4863 
L 1159 4863 
L 1159 1991 
L 2875 3500 
L 3609 3500 
L 1753 1863 
L 3688 0 
L 2938 0 
L 1159 1709 
L 1159 0 
L 581 0 
L 581 4863 
z
" transform="scale(0.015625)"/>
       <path id="DejaVuSans-6e" d="M 3513 2113 
L 3513 0 
L 2938 0 
L 2938 2094 
Q 2938 2591 2744 2837 
Q 2550 3084 2163 3084 
Q 1697 3084 1428 2787 
Q 1159 2491 1159 1978 
L 1159 0 
L 581 0 
L 581 3500 
L 1159 3500 
L 1159 2956 
Q 1366 3272 1645 3428 
Q 1925 3584 2291 3584 
Q 2894 3584 3203 3211 
Q 3513 2838 3513 2113 
z
" transform="scale(0.015625)"/>
       <path id="DejaVuSans-73" d="M 2834 3397 
L 2834 2853 
Q 2591 2978 2328 3040 
Q 2066 3103 1784 3103 
Q 1356 3103 1142 2972 
Q 928 2841 928 2578 
Q 928 2378 1081 2264 
Q 1234 2150 1697 2047 
L 1894 2003 
Q 2506 1872 2764 1633 
Q 3022 1394 3022 966 
Q 3022 478 2636 193 
Q 2250 -91 1575 -91 
Q 1294 -91 989 -36 
Q 684 19 347 128 
L 347 722 
Q 666 556 975 473 
Q 1284 391 1588 391 
Q 1994 391 2212 530 
Q 2431 669 2431 922 
Q 2431 1156 2273 1281 
Q 2116 1406 1581 1522 
L 1381 1569 
Q 847 1681 609 1914 
Q 372 2147 372 2553 
Q 372 3047 722 3315 
Q 1072 3584 1716 3584 
Q 2034 3584 2315 3537 
Q 2597 3491 2834 3397 
z
" transform="scale(0.015625)"/>
       <path id="DejaVuSans-2c" d="M 750 794 
L 1409 794 
L 1409 256 
L 897 -744 
L 494 -744 
L 750 256 
L 750 794 
z
" transform="scale(0.015625)"/>
       <path id="DejaVuSans-6c" d="M 603 4863 
L 1178 4863 
L 1178 0 
L 603 0 
L 603 4863 
z
" transform="scale(0.015625)"/>
       <path id="DejaVuSans-67" d="M 2906 1791 
Q 2906 2416 2648 2759 
Q 2391 3103 1925 3103 
Q 1463 3103 1205 2759 
Q 947 2416 947 1791 
Q 947 1169 1205 825 
Q 1463 481 1925 481 
Q 2391 481 2648 825 
Q 2906 1169 2906 1791 
z
M 3481 434 
Q 3481 -459 3084 -895 
Q 2688 -1331 1869 -1331 
Q 1566 -1331 1297 -1286 
Q 1028 -1241 775 -1147 
L 775 -588 
Q 1028 -725 1275 -790 
Q 1522 -856 1778 -856 
Q 2344 -856 2625 -561 
Q 2906 -266 2906 331 
L 2906 616 
Q 2728 306 2450 153 
Q 2172 0 1784 0 
Q 1141 0 747 490 
Q 353 981 353 1791 
Q 353 2603 747 3093 
Q 1141 3584 1784 3584 
Q 2172 3584 2450 3431 
Q 2728 3278 2906 2969 
L 2906 3500 
L 3481 3500 
L 3481 434 
z
" transform="scale(0.015625)"/>
       <path id="DejaVuSans-61" d="M 2194 1759 
Q 1497 1759 1228 1600 
Q 959 1441 959 1056 
Q 959 750 1161 570 
Q 1363 391 1709 391 
Q 2188 391 2477 730 
Q 2766 1069 2766 1631 
L 2766 1759 
L 2194 1759 
z
M 3341 1997 
L 3341 0 
L 2766 0 
L 2766 531 
Q 2569 213 2275 61 
Q 1981 -91 1556 -91 
Q 1019 -91 701 211 
Q 384 513 384 1019 
Q 384 1609 779 1909 
Q 1175 2209 1959 2209 
L 2766 2209 
L 2766 2266 
Q 2766 2663 2505 2880 
Q 2244 3097 1772 3097 
Q 1472 3097 1187 3025 
Q 903 2953 641 2809 
L 641 3341 
Q 956 3463 1253 3523 
Q 1550 3584 1831 3584 
Q 2591 3584 2966 3190 
Q 3341 2797 3341 1997 
z
" transform="scale(0.015625)"/>
       <path id="DejaVuSans-29" d="M 513 4856 
L 1013 4856 
Q 1481 4119 1714 3412 
Q 1947 2706 1947 2009 
Q 1947 1309 1714 600 
Q 1481 -109 1013 -844 
L 513 -844 
Q 928 -128 1133 580 
Q 1338 1288 1338 2009 
Q 1338 2731 1133 3434 
Q 928 4138 513 4856 
z
" transform="scale(0.015625)"/>
      </defs>
      <use xlink:href="#DejaVuSans-4f"/>
      <use xlink:href="#DejaVuSans-75" transform="translate(78.710938 0)"/>
      <use xlink:href="#DejaVuSans-74" transform="translate(142.089844 0)"/>
      <use xlink:href="#DejaVuSans-70" transform="translate(181.298828 0)"/>
      <use xlink:href="#DejaVuSans-75" transform="translate(244.775391 0)"/>
      <use xlink:href="#DejaVuSans-74" transform="translate(308.154297 0)"/>
      <use xlink:href="#DejaVuSans-20" transform="translate(347.363281 0)"/>
      <use xlink:href="#DejaVuSans-70" transform="translate(379.150391 0)"/>
      <use xlink:href="#DejaVuSans-72" transform="translate(442.626953 0)"/>
      <use xlink:href="#DejaVuSans-69" transform="translate(483.740234 0)"/>
      <use xlink:href="#DejaVuSans-63" transform="translate(511.523438 0)"/>
      <use xlink:href="#DejaVuSans-65" transform="translate(566.503906 0)"/>
      <use xlink:href="#DejaVuSans-20" transform="translate(628.027344 0)"/>
      <use xlink:href="#DejaVuSans-28" transform="translate(659.814453 0)"/>
      <use xlink:href="#DejaVuSans-24" transform="translate(698.828125 0)"/>
      <use xlink:href="#DejaVuSans-2f" transform="translate(762.451172 0)"/>
      <use xlink:href="#DejaVuSans-4d" transform="translate(796.142578 0)"/>
      <use xlink:href="#DejaVuSans-20" transform="translate(882.421875 0)"/>
      <use xlink:href="#DejaVuSans-74" transform="translate(914.208984 0)"/>
      <use xlink:href="#DejaVuSans-6f" transform="translate(953.417969 0)"/>
      <use xlink:href="#DejaVuSans-6b" transform="translate(1014.599609 0)"/>
      <use xlink:href="#DejaVuSans-65" transform="translate(1068.884766 0)"/>
      <use xlink:href="#DejaVuSans-6e" transform="translate(1130.408203 0)"/>
      <use xlink:href="#DejaVuSans-73" transform="translate(1193.787109 0)"/>
      <use xlink:href="#DejaVuSans-2c" transform="translate(1245.886719 0)"/>
      <use xlink:href="#DejaVuSans-20" transform="translate(1277.673828 0)"/>
      <use xlink:href="#DejaVuSans-6c" transform="translate(1309.460938 0)"/>
      <use xlink:href="#DejaVuSans-6f" transform="translate(1337.244141 0)"/>
      <use xlink:href="#DejaVuSans-67" transform="translate(1398.425781 0)"/>
      <use xlink:href="#DejaVuSans-20" transform="translate(1461.902344 0)"/>
      <use xlink:href="#DejaVuSans-73" transform="translate(1493.689453 0)"/>
      <use xlink:href="#DejaVuSans-63" transform="translate(1545.789062 0)"/>
      <use xlink:href="#DejaVuSans-61" transform="translate(1600.769531 0)"/>
      <use xlink:href="#DejaVuSans-6c" transform="translate(1662.048828 0)"/>
      <use xlink:href="#DejaVuSans-65" transform="translate(1689.832031 0)"/>
      <use xlink:href="#DejaVuSans-29" transform="translate(1751.355469 0)"/>
     </g>
    </g>
   </g>
   <g id="matplotlib.axis_2">
    <g id="ytick_1">
     <g id="line2d_26">
      <defs>
       <path id="m946f2889e7" d="M 0 0 
L -3.5 0 
" style="stroke: #000000; stroke-width: 0.8"/>
      </defs>
      <g>
       <use xlink:href="#m946f2889e7" x="122.47" y="231.910909" style="stroke: #000000; stroke-width: 0.8"/>
      </g>
     </g>
     <g id="text_6">
      <!-- MiniMax M2 (230B) -->
      <g transform="translate(38.43375 234.950284) scale(0.08 -0.08)">
       <defs>
        <path id="DejaVuSans-78" d="M 3513 3500 
L 2247 1797 
L 3578 0 
L 2900 0 
L 1881 1375 
L 863 0 
L 184 0 
L 1544 1831 
L 300 3500 
L 978 3500 
L 1906 2253 
L 2834 3500 
L 3513 3500 
z
" transform="scale(0.015625)"/>
        <path id="DejaVuSans-32" d="M 1228 531 
L 3431 531 
L 3431 0 
L 469 0 
L 469 531 
Q 828 903 1448 1529 
Q 2069 2156 2228 2338 
Q 2531 2678 2651 2914 
Q 2772 3150 2772 3378 
Q 2772 3750 2511 3984 
Q 2250 4219 1831 4219 
Q 1534 4219 1204 4116 
Q 875 4013 500 3803 
L 500 4441 
Q 881 4594 1212 4672 
Q 1544 4750 1819 4750 
Q 2544 4750 2975 4387 
Q 3406 4025 3406 3419 
Q 3406 3131 3298 2873 
Q 3191 2616 2906 2266 
Q 2828 2175 2409 1742 
Q 1991 1309 1228 531 
z
" transform="scale(0.015625)"/>
        <path id="DejaVuSans-42" d="M 1259 2228 
L 1259 519 
L 2272 519 
Q 2781 519 3026 730 
Q 3272 941 3272 1375 
Q 3272 1813 3026 2020 
Q 2781 2228 2272 2228 
L 1259 2228 
z
M 1259 4147 
L 1259 2741 
L 2194 2741 
Q 2656 2741 2882 2914 
Q 3109 3088 3109 3444 
Q 3109 3797 2882 3972 
Q 2656 4147 2194 4147 
L 1259 4147 
z
M 628 4666 
L 2241 4666 
Q 2963 4666 3353 4366 
Q 3744 4066 3744 3513 
Q 3744 3084 3544 2831 
Q 3344 2578 2956 2516 
Q 3422 2416 3680 2098 
Q 3938 1781 3938 1306 
Q 3938 681 3513 340 
Q 3088 0 2303 0 
L 628 0 
L 628 4666 
z
" transform="scale(0.015625)"/>
       </defs>
       <use xlink:href="#DejaVuSans-4d"/>
       <use xlink:href="#DejaVuSans-69" transform="translate(86.279297 0)"/>
       <use xlink:href="#DejaVuSans-6e" transform="translate(114.0625 0)"/>
       <use xlink:href="#DejaVuSans-69" transform="translate(177.441406 0)"/>
       <use xlink:href="#DejaVuSans-4d" transform="translate(205.224609 0)"/>
       <use xlink:href="#DejaVuSans-61" transform="translate(291.503906 0)"/>
       <use xlink:href="#DejaVuSans-78" transform="translate(352.783203 0)"/>
       <use xlink:href="#DejaVuSans-20" transform="translate(411.962891 0)"/>
       <use xlink:href="#DejaVuSans-4d" transform="translate(443.75 0)"/>
       <use xlink:href="#DejaVuSans-32" transform="translate(530.029297 0)"/>
       <use xlink:href="#DejaVuSans-20" transform="translate(593.652344 0)"/>
       <use xlink:href="#DejaVuSans-28" transform="translate(625.439453 0)"/>
       <use xlink:href="#DejaVuSans-32" transform="translate(664.453125 0)"/>
       <use xlink:href="#DejaVuSans-33" transform="translate(728.076172 0)"/>
       <use xlink:href="#DejaVuSans-30" transform="translate(791.699219 0)"/>
       <use xlink:href="#DejaVuSans-42" transform="translate(855.322266 0)"/>
       <use xlink:href="#DejaVuSans-29" transform="translate(923.925781 0)"/>
      </g>
     </g>
    </g>
    <g id="ytick_2">
     <g id="line2d_27">
      <g>
       <use xlink:href="#m946f2889e7" x="122.47" y="196.813939" style="stroke: #000000; stroke-width: 0.8"/>
      </g>
     </g>
     <g id="text_7">
      <!-- Qwen3 235B-A22B (235B) -->
      <g transform="translate(10.855 199.853314) scale(0.08 -0.08)">
       <defs>
        <path id="DejaVuSans-51" d="M 2522 4238 
Q 1834 4238 1429 3725 
Q 1025 3213 1025 2328 
Q 1025 1447 1429 934 
Q 1834 422 2522 422 
Q 3209 422 3611 934 
Q 4013 1447 4013 2328 
Q 4013 3213 3611 3725 
Q 3209 4238 2522 4238 
z
M 3406 84 
L 4238 -825 
L 3475 -825 
L 2784 -78 
Q 2681 -84 2626 -87 
Q 2572 -91 2522 -91 
Q 1538 -91 948 567 
Q 359 1225 359 2328 
Q 359 3434 948 4092 
Q 1538 4750 2522 4750 
Q 3503 4750 4090 4092 
Q 4678 3434 4678 2328 
Q 4678 1516 4351 937 
Q 4025 359 3406 84 
z
" transform="scale(0.015625)"/>
        <path id="DejaVuSans-77" d="M 269 3500 
L 844 3500 
L 1563 769 
L 2278 3500 
L 2956 3500 
L 3675 769 
L 4391 3500 
L 4966 3500 
L 4050 0 
L 3372 0 
L 2619 2869 
L 1863 0 
L 1184 0 
L 269 3500 
z
" transform="scale(0.015625)"/>
        <path id="DejaVuSans-35" d="M 691 4666 
L 3169 4666 
L 3169 4134 
L 1269 4134 
L 1269 2991 
Q 1406 3038 1543 3061 
Q 1681 3084 1819 3084 
Q 2600 3084 3056 2656 
Q 3513 2228 3513 1497 
Q 3513 744 3044 326 
Q 2575 -91 1722 -91 
Q 1428 -91 1123 -41 
Q 819 9 494 109 
L 494 744 
Q 775 591 1075 516 
Q 1375 441 1709 441 
Q 2250 441 2565 725 
Q 2881 1009 2881 1497 
Q 2881 1984 2565 2268 
Q 2250 2553 1709 2553 
Q 1456 2553 1204 2497 
Q 953 2441 691 2322 
L 691 4666 
z
" transform="scale(0.015625)"/>
        <path id="DejaVuSans-2d" d="M 313 2009 
L 1997 2009 
L 1997 1497 
L 313 1497 
L 313 2009 
z
" transform="scale(0.015625)"/>
        <path id="DejaVuSans-41" d="M 2188 4044 
L 1331 1722 
L 3047 1722 
L 2188 4044 
z
M 1831 4666 
L 2547 4666 
L 4325 0 
L 3669 0 
L 3244 1197 
L 1141 1197 
L 716 0 
L 50 0 
L 1831 4666 
z
" transform="scale(0.015625)"/>
       </defs>
       <use xlink:href="#DejaVuSans-51"/>
       <use xlink:href="#DejaVuSans-77" transform="translate(78.710938 0)"/>
       <use xlink:href="#DejaVuSans-65" transform="translate(160.498047 0)"/>
       <use xlink:href="#DejaVuSans-6e" transform="translate(222.021484 0)"/>
       <use xlink:href="#DejaVuSans-33" transform="translate(285.400391 0)"/>
       <use xlink:href="#DejaVuSans-20" transform="translate(349.023438 0)"/>
       <use xlink:href="#DejaVuSans-32" transform="translate(380.810547 0)"/>
       <use xlink:href="#DejaVuSans-33" transform="translate(444.433594 0)"/>
       <use xlink:href="#DejaVuSans-35" transform="translate(508.056641 0)"/>
       <use xlink:href="#DejaVuSans-42" transform="translate(571.679688 0)"/>
       <use xlink:href="#DejaVuSans-2d" transform="translate(640.283203 0)"/>
       <use xlink:href="#DejaVuSans-41" transform="translate(674.117188 0)"/>
       <use xlink:href="#DejaVuSans-32" transform="translate(742.525391 0)"/>
       <use xlink:href="#DejaVuSans-32" transform="translate(806.148438 0)"/>
       <use xlink:href="#DejaVuSans-42" transform="translate(869.771484 0)"/>
       <use xlink:href="#DejaVuSans-20" transform="translate(938.375 0)"/>
       <use xlink:href="#DejaVuSans-28" transform="translate(970.162109 0)"/>
       <use xlink:href="#DejaVuSans-32" transform="translate(1009.175781 0)"/>
       <use xlink:href="#DejaVuSans-33" transform="translate(1072.798828 0)"/>
       <use xlink:href="#DejaVuSans-35" transform="translate(1136.421875 0)"/>
       <use xlink:href="#DejaVuSans-42" transform="translate(1200.044922 0)"/>
       <use xlink:href="#DejaVuSans-29" transform="translate(1268.648438 0)"/>
      </g>
     </g>
    </g>
    <g id="ytick_3">
     <g id="line2d_28">
      <g>
       <use xlink:href="#m946f2889e7" x="122.47" y="161.71697" style="stroke: #000000; stroke-width: 0.8"/>
      </g>
     </g>
     <g id="text_8">
      <!-- Llama 4 Maverick (400B) -->
      <g transform="translate(15.46875 164.756345) scale(0.08 -0.08)">
       <defs>
        <path id="DejaVuSans-4c" d="M 628 4666 
L 1259 4666 
L 1259 531 
L 3531 531 
L 3531 0 
L 628 0 
L 628 4666 
z
" transform="scale(0.015625)"/>
        <path id="DejaVuSans-6d" d="M 3328 2828 
Q 3544 3216 3844 3400 
Q 4144 3584 4550 3584 
Q 5097 3584 5394 3201 
Q 5691 2819 5691 2113 
L 5691 0 
L 5113 0 
L 5113 2094 
Q 5113 2597 4934 2840 
Q 4756 3084 4391 3084 
Q 3944 3084 3684 2787 
Q 3425 2491 3425 1978 
L 3425 0 
L 2847 0 
L 2847 2094 
Q 2847 2600 2669 2842 
Q 2491 3084 2119 3084 
Q 1678 3084 1418 2786 
Q 1159 2488 1159 1978 
L 1159 0 
L 581 0 
L 581 3500 
L 1159 3500 
L 1159 2956 
Q 1356 3278 1631 3431 
Q 1906 3584 2284 3584 
Q 2666 3584 2933 3390 
Q 3200 3197 3328 2828 
z
" transform="scale(0.015625)"/>
        <path id="DejaVuSans-34" d="M 2419 4116 
L 825 1625 
L 2419 1625 
L 2419 4116 
z
M 2253 4666 
L 3047 4666 
L 3047 1625 
L 3713 1625 
L 3713 1100 
L 3047 1100 
L 3047 0 
L 2419 0 
L 2419 1100 
L 313 1100 
L 313 1709 
L 2253 4666 
z
" transform="scale(0.015625)"/>
        <path id="DejaVuSans-76" d="M 191 3500 
L 800 3500 
L 1894 563 
L 2988 3500 
L 3597 3500 
L 2284 0 
L 1503 0 
L 191 3500 
z
" transform="scale(0.015625)"/>
       </defs>
       <use xlink:href="#DejaVuSans-4c"/>
       <use xlink:href="#DejaVuSans-6c" transform="translate(55.712891 0)"/>
       <use xlink:href="#DejaVuSans-61" transform="translate(83.496094 0)"/>
       <use xlink:href="#DejaVuSans-6d" transform="translate(144.775391 0)"/>
       <use xlink:href="#DejaVuSans-61" transform="translate(242.1875 0)"/>
       <use xlink:href="#DejaVuSans-20" transform="translate(303.466797 0)"/>
       <use xlink:href="#DejaVuSans-34" transform="translate(335.253906 0)"/>
       <use xlink:href="#DejaVuSans-20" transform="translate(398.876953 0)"/>
       <use xlink:href="#DejaVuSans-4d" transform="translate(430.664062 0)"/>
       <use xlink:href="#DejaVuSans-61" transform="translate(516.943359 0)"/>
       <use xlink:href="#DejaVuSans-76" transform="translate(578.222656 0)"/>
       <use xlink:href="#DejaVuSans-65" transform="translate(637.402344 0)"/>
       <use xlink:href="#DejaVuSans-72" transform="translate(698.925781 0)"/>
       <use xlink:href="#DejaVuSans-69" transform="translate(740.039062 0)"/>
       <use xlink:href="#DejaVuSans-63" transform="translate(767.822266 0)"/>
       <use xlink:href="#DejaVuSans-6b" transform="translate(822.802734 0)"/>
       <use xlink:href="#DejaVuSans-20" transform="translate(880.712891 0)"/>
       <use xlink:href="#DejaVuSans-28" transform="translate(912.5 0)"/>
       <use xlink:href="#DejaVuSans-34" transform="translate(951.513672 0)"/>
       <use xlink:href="#DejaVuSans-30" transform="translate(1015.136719 0)"/>
       <use xlink:href="#DejaVuSans-30" transform="translate(1078.759766 0)"/>
       <use xlink:href="#DejaVuSans-42" transform="translate(1142.382812 0)"/>
       <use xlink:href="#DejaVuSans-29" transform="translate(1210.986328 0)"/>
      </g>
     </g>
    </g>
    <g id="ytick_4">
     <g id="line2d_29">
      <g>
       <use xlink:href="#m946f2889e7" x="122.47" y="126.62" style="stroke: #000000; stroke-width: 0.8"/>
      </g>
     </g>
     <g id="text_9">
      <!-- DeepSeek V3.1 (671B) -->
      <g transform="translate(24.54875 129.659375) scale(0.08 -0.08)">
       <defs>
        <path id="DejaVuSans-44" d="M 1259 4147 
L 1259 519 
L 2022 519 
Q 2988 519 3436 956 
Q 3884 1394 3884 2338 
Q 3884 3275 3436 3711 
Q 2988 4147 2022 4147 
L 1259 4147 
z
M 628 4666 
L 1925 4666 
Q 3281 4666 3915 4102 
Q 4550 3538 4550 2338 
Q 4550 1131 3912 565 
Q 3275 0 1925 0 
L 628 0 
L 628 4666 
z
" transform="scale(0.015625)"/>
        <path id="DejaVuSans-53" d="M 3425 4513 
L 3425 3897 
Q 3066 4069 2747 4153 
Q 2428 4238 2131 4238 
Q 1616 4238 1336 4038 
Q 1056 3838 1056 3469 
Q 1056 3159 1242 3001 
Q 1428 2844 1947 2747 
L 2328 2669 
Q 3034 2534 3370 2195 
Q 3706 1856 3706 1288 
Q 3706 609 3251 259 
Q 2797 -91 1919 -91 
Q 1588 -91 1214 -16 
Q 841 59 441 206 
L 441 856 
Q 825 641 1194 531 
Q 1563 422 1919 422 
Q 2459 422 2753 634 
Q 3047 847 3047 1241 
Q 3047 1584 2836 1778 
Q 2625 1972 2144 2069 
L 1759 2144 
Q 1053 2284 737 2584 
Q 422 2884 422 3419 
Q 422 4038 858 4394 
Q 1294 4750 2059 4750 
Q 2388 4750 2728 4690 
Q 3069 4631 3425 4513 
z
" transform="scale(0.015625)"/>
        <path id="DejaVuSans-56" d="M 1831 0 
L 50 4666 
L 709 4666 
L 2188 738 
L 3669 4666 
L 4325 4666 
L 2547 0 
L 1831 0 
z
" transform="scale(0.015625)"/>
        <path id="DejaVuSans-36" d="M 2113 2584 
Q 1688 2584 1439 2293 
Q 1191 2003 1191 1497 
Q 1191 994 1439 701 
Q 1688 409 2113 409 
Q 2538 409 2786 701 
Q 3034 994 3034 1497 
Q 3034 2003 2786 2293 
Q 2538 2584 2113 2584 
z
M 3366 4563 
L 3366 3988 
Q 3128 4100 2886 4159 
Q 2644 4219 2406 4219 
Q 1781 4219 1451 3797 
Q 1122 3375 1075 2522 
Q 1259 2794 1537 2939 
Q 1816 3084 2150 3084 
Q 2853 3084 3261 2657 
Q 3669 2231 3669 1497 
Q 3669 778 3244 343 
Q 2819 -91 2113 -91 
Q 1303 -91 875 529 
Q 447 1150 447 2328 
Q 447 3434 972 4092 
Q 1497 4750 2381 4750 
Q 2619 4750 2861 4703 
Q 3103 4656 3366 4563 
z
" transform="scale(0.015625)"/>
        <path id="DejaVuSans-37" d="M 525 4666 
L 3525 4666 
L 3525 4397 
L 1831 0 
L 1172 0 
L 2766 4134 
L 525 4134 
L 525 4666 
z
" transform="scale(0.015625)"/>
       </defs>
       <use xlink:href="#DejaVuSans-44"/>
       <use xlink:href="#DejaVuSans-65" transform="translate(77.001953 0)"/>
       <use xlink:href="#DejaVuSans-65" transform="translate(138.525391 0)"/>
       <use xlink:href="#DejaVuSans-70" transform="translate(200.048828 0)"/>
       <use xlink:href="#DejaVuSans-53" transform="translate(263.525391 0)"/>
       <use xlink:href="#DejaVuSans-65" transform="translate(327.001953 0)"/>
       <use xlink:href="#DejaVuSans-65" transform="translate(388.525391 0)"/>
       <use xlink:href="#DejaVuSans-6b" transform="translate(450.048828 0)"/>
       <use xlink:href="#DejaVuSans-20" transform="translate(507.958984 0)"/>
       <use xlink:href="#DejaVuSans-56" transform="translate(539.746094 0)"/>
       <use xlink:href="#DejaVuSans-33" transform="translate(608.154297 0)"/>
       <use xlink:href="#DejaVuSans-2e" transform="translate(671.777344 0)"/>
       <use xlink:href="#DejaVuSans-31" transform="translate(703.564453 0)"/>
       <use xlink:href="#DejaVuSans-20" transform="translate(767.1875 0)"/>
       <use xlink:href="#DejaVuSans-28" transform="translate(798.974609 0)"/>
       <use xlink:href="#DejaVuSans-36" transform="translate(837.988281 0)"/>
       <use xlink:href="#DejaVuSans-37" transform="translate(901.611328 0)"/>
       <use xlink:href="#DejaVuSans-31" transform="translate(965.234375 0)"/>
       <use xlink:href="#DejaVuSans-42" transform="translate(1028.857422 0)"/>
       <use xlink:href="#DejaVuSans-29" transform="translate(1097.460938 0)"/>
      </g>
     </g>
    </g>
    <g id="ytick_5">
     <g id="line2d_30">
      <g>
       <use xlink:href="#m946f2889e7" x="122.47" y="91.52303" style="stroke: #000000; stroke-width: 0.8"/>
      </g>
     </g>
     <g id="text_10">
      <!-- DeepSeek V3 (671B) -->
      <g transform="translate(32.18125 94.562405) scale(0.08 -0.08)">
       <use xlink:href="#DejaVuSans-44"/>
       <use xlink:href="#DejaVuSans-65" transform="translate(77.001953 0)"/>
       <use xlink:href="#DejaVuSans-65" transform="translate(138.525391 0)"/>
       <use xlink:href="#DejaVuSans-70" transform="translate(200.048828 0)"/>
       <use xlink:href="#DejaVuSans-53" transform="translate(263.525391 0)"/>
       <use xlink:href="#DejaVuSans-65" transform="translate(327.001953 0)"/>
       <use xlink:href="#DejaVuSans-65" transform="translate(388.525391 0)"/>
       <use xlink:href="#DejaVuSans-6b" transform="translate(450.048828 0)"/>
       <use xlink:href="#DejaVuSans-20" transform="translate(507.958984 0)"/>
       <use xlink:href="#DejaVuSans-56" transform="translate(539.746094 0)"/>
       <use xlink:href="#DejaVuSans-33" transform="translate(608.154297 0)"/>
       <use xlink:href="#DejaVuSans-20" transform="translate(671.777344 0)"/>
       <use xlink:href="#DejaVuSans-28" transform="translate(703.564453 0)"/>
       <use xlink:href="#DejaVuSans-36" transform="translate(742.578125 0)"/>
       <use xlink:href="#DejaVuSans-37" transform="translate(806.201172 0)"/>
       <use xlink:href="#DejaVuSans-31" transform="translate(869.824219 0)"/>
       <use xlink:href="#DejaVuSans-42" transform="translate(933.447266 0)"/>
       <use xlink:href="#DejaVuSans-29" transform="translate(1002.050781 0)"/>
      </g>
     </g>
    </g>
    <g id="ytick_6">
     <g id="line2d_31">
      <g>
       <use xlink:href="#m946f2889e7" x="122.47" y="56.426061" style="stroke: #000000; stroke-width: 0.8"/>
      </g>
     </g>
     <g id="text_11">
      <!-- DeepSeek R1 (671B) -->
      <g transform="translate(32.095 59.465436) scale(0.08 -0.08)">
       <defs>
        <path id="DejaVuSans-52" d="M 2841 2188 
Q 3044 2119 3236 1894 
Q 3428 1669 3622 1275 
L 4263 0 
L 3584 0 
L 2988 1197 
Q 2756 1666 2539 1819 
Q 2322 1972 1947 1972 
L 1259 1972 
L 1259 0 
L 628 0 
L 628 4666 
L 2053 4666 
Q 2853 4666 3247 4331 
Q 3641 3997 3641 3322 
Q 3641 2881 3436 2590 
Q 3231 2300 2841 2188 
z
M 1259 4147 
L 1259 2491 
L 2053 2491 
Q 2509 2491 2742 2702 
Q 2975 2913 2975 3322 
Q 2975 3731 2742 3939 
Q 2509 4147 2053 4147 
L 1259 4147 
z
" transform="scale(0.015625)"/>
       </defs>
       <use xlink:href="#DejaVuSans-44"/>
       <use xlink:href="#DejaVuSans-65" transform="translate(77.001953 0)"/>
       <use xlink:href="#DejaVuSans-65" transform="translate(138.525391 0)"/>
       <use xlink:href="#DejaVuSans-70" transform="translate(200.048828 0)"/>
       <use xlink:href="#DejaVuSans-53" transform="translate(263.525391 0)"/>
       <use xlink:href="#DejaVuSans-65" transform="translate(327.001953 0)"/>
       <use xlink:href="#DejaVuSans-65" transform="translate(388.525391 0)"/>
       <use xlink:href="#DejaVuSans-6b" transform="translate(450.048828 0)"/>
       <use xlink:href="#DejaVuSans-20" transform="translate(507.958984 0)"/>
       <use xlink:href="#DejaVuSans-52" transform="translate(539.746094 0)"/>
       <use xlink:href="#DejaVuSans-31" transform="translate(609.228516 0)"/>
       <use xlink:href="#DejaVuSans-20" transform="translate(672.851562 0)"/>
       <use xlink:href="#DejaVuSans-28" transform="translate(704.638672 0)"/>
       <use xlink:href="#DejaVuSans-36" transform="translate(743.652344 0)"/>
       <use xlink:href="#DejaVuSans-37" transform="translate(807.275391 0)"/>
       <use xlink:href="#DejaVuSans-31" transform="translate(870.898438 0)"/>
       <use xlink:href="#DejaVuSans-42" transform="translate(934.521484 0)"/>
       <use xlink:href="#DejaVuSans-29" transform="translate(1003.125 0)"/>
      </g>
     </g>
    </g>
    <g id="ytick_7">
     <g id="line2d_32">
      <g>
       <use xlink:href="#m946f2889e7" x="122.47" y="21.329091" style="stroke: #000000; stroke-width: 0.8"/>
      </g>
     </g>
     <g id="text_12">
      <!-- Kimi K2 (1,000B) -->
      <g transform="translate(47.93125 24.368466) scale(0.08 -0.08)">
       <defs>
        <path id="DejaVuSans-4b" d="M 628 4666 
L 1259 4666 
L 1259 2694 
L 3353 4666 
L 4166 4666 
L 1850 2491 
L 4331 0 
L 3500 0 
L 1259 2247 
L 1259 0 
L 628 0 
L 628 4666 
z
" transform="scale(0.015625)"/>
       </defs>
       <use xlink:href="#DejaVuSans-4b"/>
       <use xlink:href="#DejaVuSans-69" transform="translate(65.576172 0)"/>
       <use xlink:href="#DejaVuSans-6d" transform="translate(93.359375 0)"/>
       <use xlink:href="#DejaVuSans-69" transform="translate(190.771484 0)"/>
       <use xlink:href="#DejaVuSans-20" transform="translate(218.554688 0)"/>
       <use xlink:href="#DejaVuSans-4b" transform="translate(250.341797 0)"/>
       <use xlink:href="#DejaVuSans-32" transform="translate(315.917969 0)"/>
       <use xlink:href="#DejaVuSans-20" transform="translate(379.541016 0)"/>
       <use xlink:href="#DejaVuSans-28" transform="translate(411.328125 0)"/>
       <use xlink:href="#DejaVuSans-31" transform="translate(450.341797 0)"/>
       <use xlink:href="#DejaVuSans-2c" transform="translate(513.964844 0)"/>
       <use xlink:href="#DejaVuSans-30" transform="translate(545.751953 0)"/>
       <use xlink:href="#DejaVuSans-30" transform="translate(609.375 0)"/>
       <use xlink:href="#DejaVuSans-30" transform="translate(672.998047 0)"/>
       <use xlink:href="#DejaVuSans-42" transform="translate(736.621094 0)"/>
       <use xlink:href="#DejaVuSans-29" transform="translate(805.224609 0)"/>
      </g>
     </g>
    </g>
   </g>
   <g id="PathCollection_1">
    <path d="M 395.417212 24.067704 
C 396.143501 24.067704 396.84014 23.779146 397.353704 23.265583 
C 397.867267 22.752019 398.155825 22.05538 398.155825 21.329091 
C 398.155825 20.602802 397.867267 19.906163 397.353704 19.392599 
C 396.84014 18.879036 396.143501 18.590478 395.417212 18.590478 
C 394.690924 18.590478 393.994284 18.879036 393.480721 19.392599 
C 392.967157 19.906163 392.678599 20.602802 392.678599 21.329091 
C 392.678599 22.05538 392.967157 22.752019 393.480721 23.265583 
C 393.994284 23.779146 394.690924 24.067704 395.417212 24.067704 
L 395.417212 24.067704 
z
" clip-path="url(#p3d43823558)" style="fill: none; stroke: #5b6470; stroke-width: 0.9"/>
   </g>
   <g id="PathCollection_2">
    <path d="M 409.335113 24.067704 
C 410.061402 24.067704 410.758041 23.779146 411.271605 23.265583 
C 411.785168 22.752019 412.073726 22.05538 412.073726 21.329091 
C 412.073726 20.602802 411.785168 19.906163 411.271605 19.392599 
C 410.758041 18.879036 410.061402 18.590478 409.335113 18.590478 
C 408.608824 18.590478 407.912185 18.879036 407.398621 19.392599 
C 406.885058 19.906163 406.5965 20.602802 406.5965 21.329091 
C 406.5965 22.05538 406.885058 22.752019 407.398621 23.265583 
C 407.912185 23.779146 408.608824 24.067704 409.335113 24.067704 
L 409.335113 24.067704 
z
" clip-path="url(#p3d43823558)" style="fill: none; stroke: #5b6470; stroke-width: 0.9"/>
   </g>
   <g id="PathCollection_3">
    <path d="M 384.961635 59.164673 
C 385.687923 59.164673 386.384563 58.876116 386.898126 58.362552 
C 387.41169 57.848989 387.700247 57.152349 387.700247 56.426061 
C 387.700247 55.699772 387.41169 55.003133 386.898126 54.489569 
C 386.384563 53.976005 385.687923 53.687448 384.961635 53.687448 
C 384.235346 53.687448 383.538707 53.976005 383.025143 54.489569 
C 382.511579 55.003133 382.223022 55.699772 382.223022 56.426061 
C 382.223022 57.152349 382.511579 57.848989 383.025143 58.362552 
C 383.538707 58.876116 384.235346 59.164673 384.961635 59.164673 
L 384.961635 59.164673 
z
" clip-path="url(#p3d43823558)" style="fill: none; stroke: #5b6470; stroke-width: 0.9"/>
   </g>
   <g id="PathCollection_4">
    <path d="M 388.586021 59.164673 
C 389.312309 59.164673 390.008949 58.876116 390.522512 58.362552 
C 391.036076 57.848989 391.324633 57.152349 391.324633 56.426061 
C 391.324633 55.699772 391.036076 55.003133 390.522512 54.489569 
C 390.008949 53.976005 389.312309 53.687448 388.586021 53.687448 
C 387.859732 53.687448 387.163092 53.976005 386.649529 54.489569 
C 386.135965 55.003133 385.847408 55.699772 385.847408 56.426061 
C 385.847408 57.152349 386.135965 57.848989 386.649529 58.362552 
C 387.163092 58.876116 387.859732 59.164673 388.586021 59.164673 
L 388.586021 59.164673 
z
" clip-path="url(#p3d43823558)" style="fill: none; stroke: #5b6470; stroke-width: 0.9"/>
   </g>
   <g id="PathCollection_5">
    <path d="M 395.417212 59.164673 
C 396.143501 59.164673 396.84014 58.876116 397.353704 58.362552 
C 397.867267 57.848989 398.155825 57.152349 398.155825 56.426061 
C 398.155825 55.699772 397.867267 55.003133 397.353704 54.489569 
C 396.84014 53.976005 396.143501 53.687448 395.417212 53.687448 
C 394.690924 53.687448 393.994284 53.976005 393.480721 54.489569 
C 392.967157 55.003133 392.678599 55.699772 392.678599 56.426061 
C 392.678599 57.152349 392.967157 57.848989 393.480721 58.362552 
C 393.994284 58.876116 394.690924 59.164673 395.417212 59.164673 
L 395.417212 59.164673 
z
" clip-path="url(#p3d43823558)" style="fill: none; stroke: #5b6470; stroke-width: 0.9"/>
   </g>
   <g id="PathCollection_6">
    <path d="M 325.470226 94.261643 
C 326.196514 94.261643 326.893154 93.973086 327.406718 93.459522 
C 327.920281 92.945958 328.208839 92.249319 328.208839 91.52303 
C 328.208839 90.796742 327.920281 90.100102 327.406718 89.586539 
C 326.893154 89.072975 326.196514 88.784418 325.470226 88.784418 
C 324.743937 88.784418 324.047298 89.072975 323.533734 89.586539 
C 323.020171 90.100102 322.731613 90.796742 322.731613 91.52303 
C 322.731613 92.249319 323.020171 92.945958 323.533734 93.459522 
C 324.047298 93.973086 324.743937 94.261643 325.470226 94.261643 
L 325.470226 94.261643 
z
" clip-path="url(#p3d43823558)" style="fill: none; stroke: #5b6470; stroke-width: 0.9"/>
   </g>
   <g id="PathCollection_7">
    <path d="M 334.12141 94.261643 
C 334.847699 94.261643 335.544338 93.973086 336.057902 93.459522 
C 336.571465 92.945958 336.860023 92.249319 336.860023 91.52303 
C 336.860023 90.796742 336.571465 90.100102 336.057902 89.586539 
C 335.544338 89.072975 334.847699 88.784418 334.12141 88.784418 
C 333.395122 88.784418 332.698482 89.072975 332.184918 89.586539 
C 331.671355 90.100102 331.382797 90.796742 331.382797 91.52303 
C 331.382797 92.249319 331.671355 92.945958 332.184918 93.459522 
C 332.698482 93.973086 333.395122 94.261643 334.12141 94.261643 
L 334.12141 94.261643 
z
" clip-path="url(#p3d43823558)" style="fill: none; stroke: #5b6470; stroke-width: 0.9"/>
   </g>
   <g id="PathCollection_8">
    <path d="M 335.472545 94.261643 
C 336.198833 94.261643 336.895473 93.973086 337.409036 93.459522 
C 337.9226 92.945958 338.211158 92.249319 338.211158 91.52303 
C 338.211158 90.796742 337.9226 90.100102 337.409036 89.586539 
C 336.895473 89.072975 336.198833 88.784418 335.472545 88.784418 
C 334.746256 88.784418 334.049617 89.072975 333.536053 89.586539 
C 333.022489 90.100102 332.733932 90.796742 332.733932 91.52303 
C 332.733932 92.249319 333.022489 92.945958 333.536053 93.459522 
C 334.049617 93.973086 334.746256 94.261643 335.472545 94.261643 
L 335.472545 94.261643 
z
" clip-path="url(#p3d43823558)" style="fill: none; stroke: #5b6470; stroke-width: 0.9"/>
   </g>
   <g id="PathCollection_9">
    <path d="M 325.470226 129.358613 
C 326.196514 129.358613 326.893154 129.070055 327.406718 128.556492 
C 327.920281 128.042928 328.208839 127.346289 328.208839 126.62 
C 328.208839 125.893711 327.920281 125.197072 327.406718 124.683508 
C 326.893154 124.169945 326.196514 123.881387 325.470226 123.881387 
C 324.743937 123.881387 324.047298 124.169945 323.533734 124.683508 
C 323.020171 125.197072 322.731613 125.893711 322.731613 126.62 
C 322.731613 127.346289 323.020171 128.042928 323.533734 128.556492 
C 324.047298 129.070055 324.743937 129.358613 325.470226 129.358613 
L 325.470226 129.358613 
z
" clip-path="url(#p3d43823558)" style="fill: none; stroke: #5b6470; stroke-width: 0.9"/>
   </g>
   <g id="PathCollection_10">
    <path d="M 325.470226 129.358613 
C 326.196514 129.358613 326.893154 129.070055 327.406718 128.556492 
C 327.920281 128.042928 328.208839 127.346289 328.208839 126.62 
C 328.208839 125.893711 327.920281 125.197072 327.406718 124.683508 
C 326.893154 124.169945 326.196514 123.881387 325.470226 123.881387 
C 324.743937 123.881387 324.047298 124.169945 323.533734 124.683508 
C 323.020171 125.197072 322.731613 125.893711 322.731613 126.62 
C 322.731613 127.346289 323.020171 128.042928 323.533734 128.556492 
C 324.047298 129.070055 324.743937 129.358613 325.470226 129.358613 
L 325.470226 129.358613 
z
" clip-path="url(#p3d43823558)" style="fill: none; stroke: #5b6470; stroke-width: 0.9"/>
   </g>
   <g id="PathCollection_11">
    <path d="M 321.554644 129.358613 
C 322.280933 129.358613 322.977572 129.070055 323.491136 128.556492 
C 324.004699 128.042928 324.293257 127.346289 324.293257 126.62 
C 324.293257 125.893711 324.004699 125.197072 323.491136 124.683508 
C 322.977572 124.169945 322.280933 123.881387 321.554644 123.881387 
C 320.828355 123.881387 320.131716 124.169945 319.618152 124.683508 
C 319.104589 125.197072 318.816031 125.893711 318.816031 126.62 
C 318.816031 127.346289 319.104589 128.042928 319.618152 128.556492 
C 320.131716 129.070055 320.828355 129.358613 321.554644 129.358613 
L 321.554644 129.358613 
z
" clip-path="url(#p3d43823558)" style="fill: none; stroke: #5b6470; stroke-width: 0.9"/>
   </g>
   <g id="PathCollection_12">
    <path d="M 356.42226 129.358613 
C 357.148549 129.358613 357.845188 129.070055 358.358752 128.556492 
C 358.872316 128.042928 359.160873 127.346289 359.160873 126.62 
C 359.160873 125.893711 358.872316 125.197072 358.358752 124.683508 
C 357.845188 124.169945 357.148549 123.881387 356.42226 123.881387 
C 355.695972 123.881387 354.999332 124.169945 354.485769 124.683508 
C 353.972205 125.197072 353.683648 125.893711 353.683648 126.62 
C 353.683648 127.346289 353.972205 128.042928 354.485769 128.556492 
C 354.999332 129.070055 355.695972 129.358613 356.42226 129.358613 
L 356.42226 129.358613 
z
" clip-path="url(#p3d43823558)" style="fill: none; stroke: #5b6470; stroke-width: 0.9"/>
   </g>
   <g id="PathCollection_13">
    <path d="M 363.697964 129.358613 
C 364.424253 129.358613 365.120892 129.070055 365.634456 128.556492 
C 366.148019 128.042928 366.436577 127.346289 366.436577 126.62 
C 366.436577 125.893711 366.148019 125.197072 365.634456 124.683508 
C 365.120892 124.169945 364.424253 123.881387 363.697964 123.881387 
C 362.971675 123.881387 362.275036 124.169945 361.761472 124.683508 
C 361.247909 125.197072 360.959351 125.893711 360.959351 126.62 
C 360.959351 127.346289 361.247909 128.042928 361.761472 128.556492 
C 362.275036 129.070055 362.971675 129.358613 363.697964 129.358613 
L 363.697964 129.358613 
z
" clip-path="url(#p3d43823558)" style="fill: none; stroke: #5b6470; stroke-width: 0.9"/>
   </g>
   <g id="PathCollection_14">
    <path d="M 363.697964 129.358613 
C 364.424253 129.358613 365.120892 129.070055 365.634456 128.556492 
C 366.148019 128.042928 366.436577 127.346289 366.436577 126.62 
C 366.436577 125.893711 366.148019 125.197072 365.634456 124.683508 
C 365.120892 124.169945 364.424253 123.881387 363.697964 123.881387 
C 362.971675 123.881387 362.275036 124.169945 361.761472 124.683508 
C 361.247909 125.197072 360.959351 125.893711 360.959351 126.62 
C 360.959351 127.346289 361.247909 128.042928 361.761472 128.556492 
C 362.275036 129.070055 362.971675 129.358613 363.697964 129.358613 
L 363.697964 129.358613 
z
" clip-path="url(#p3d43823558)" style="fill: none; stroke: #5b6470; stroke-width: 0.9"/>
   </g>
   <g id="PathCollection_15">
    <path d="M 356.42226 129.358613 
C 357.148549 129.358613 357.845188 129.070055 358.358752 128.556492 
C 358.872316 128.042928 359.160873 127.346289 359.160873 126.62 
C 359.160873 125.893711 358.872316 125.197072 358.358752 124.683508 
C 357.845188 124.169945 357.148549 123.881387 356.42226 123.881387 
C 355.695972 123.881387 354.999332 124.169945 354.485769 124.683508 
C 353.972205 125.197072 353.683648 125.893711 353.683648 126.62 
C 353.683648 127.346289 353.972205 128.042928 354.485769 128.556492 
C 354.999332 129.070055 355.695972 129.358613 356.42226 129.358613 
L 356.42226 129.358613 
z
" clip-path="url(#p3d43823558)" style="fill: none; stroke: #5b6470; stroke-width: 0.9"/>
   </g>
   <g id="PathCollection_16">
    <path d="M 314.839362 164.455582 
C 315.565651 164.455582 316.26229 164.167025 316.775854 163.653461 
C 317.289417 163.139898 317.577975 162.443258 317.577975 161.71697 
C 317.577975 160.990681 317.289417 160.294042 316.775854 159.780478 
C 316.26229 159.266914 315.565651 158.978357 314.839362 158.978357 
C 314.113073 158.978357 313.416434 159.266914 312.90287 159.780478 
C 312.389307 160.294042 312.100749 160.990681 312.100749 161.71697 
C 312.100749 162.443258 312.389307 163.139898 312.90287 163.653461 
C 313.416434 164.167025 314.113073 164.455582 314.839362 164.455582 
L 314.839362 164.455582 
z
" clip-path="url(#p3d43823558)" style="fill: none; stroke: #5b6470; stroke-width: 0.9"/>
   </g>
   <g id="PathCollection_17">
    <path d="M 313.064 164.455582 
C 313.790289 164.455582 314.486929 164.167025 315.000492 163.653461 
C 315.514056 163.139898 315.802613 162.443258 315.802613 161.71697 
C 315.802613 160.990681 315.514056 160.294042 315.000492 159.780478 
C 314.486929 159.266914 313.790289 158.978357 313.064 158.978357 
C 312.337712 158.978357 311.641072 159.266914 311.127509 159.780478 
C 310.613945 160.294042 310.325388 160.990681 310.325388 161.71697 
C 310.325388 162.443258 310.613945 163.139898 311.127509 163.653461 
C 311.641072 164.167025 312.337712 164.455582 313.064 164.455582 
L 313.064 164.455582 
z
" clip-path="url(#p3d43823558)" style="fill: none; stroke: #5b6470; stroke-width: 0.9"/>
   </g>
   <g id="PathCollection_18">
    <path d="M 325.470226 164.455582 
C 326.196514 164.455582 326.893154 164.167025 327.406718 163.653461 
C 327.920281 163.139898 328.208839 162.443258 328.208839 161.71697 
C 328.208839 160.990681 327.920281 160.294042 327.406718 159.780478 
C 326.893154 159.266914 326.196514 158.978357 325.470226 158.978357 
C 324.743937 158.978357 324.047298 159.266914 323.533734 159.780478 
C 323.020171 160.294042 322.731613 160.990681 322.731613 161.71697 
C 322.731613 162.443258 323.020171 163.139898 323.533734 163.653461 
C 324.047298 164.167025 324.743937 164.455582 325.470226 164.455582 
L 325.470226 164.455582 
z
" clip-path="url(#p3d43823558)" style="fill: none; stroke: #5b6470; stroke-width: 0.9"/>
   </g>
   <g id="PathCollection_19">
    <path d="M 283.887328 199.552552 
C 284.613616 199.552552 285.310256 199.263995 285.823819 198.750431 
C 286.337383 198.236867 286.62594 197.540228 286.62594 196.813939 
C 286.62594 196.087651 286.337383 195.391011 285.823819 194.877448 
C 285.310256 194.363884 284.613616 194.075327 283.887328 194.075327 
C 283.161039 194.075327 282.464399 194.363884 281.950836 194.877448 
C 281.437272 195.391011 281.148715 196.087651 281.148715 196.813939 
C 281.148715 197.540228 281.437272 198.236867 281.950836 198.750431 
C 282.464399 199.263995 283.161039 199.552552 283.887328 199.552552 
L 283.887328 199.552552 
z
" clip-path="url(#p3d43823558)" style="fill: none; stroke: #5b6470; stroke-width: 0.9"/>
   </g>
   <g id="PathCollection_20">
    <path d="M 308.436092 199.552552 
C 309.162381 199.552552 309.85902 199.263995 310.372584 198.750431 
C 310.886147 198.236867 311.174705 197.540228 311.174705 196.813939 
C 311.174705 196.087651 310.886147 195.391011 310.372584 194.877448 
C 309.85902 194.363884 309.162381 194.075327 308.436092 194.075327 
C 307.709803 194.075327 307.013164 194.363884 306.4996 194.877448 
C 305.986037 195.391011 305.697479 196.087651 305.697479 196.813939 
C 305.697479 197.540228 305.986037 198.236867 306.4996 198.750431 
C 307.013164 199.263995 307.709803 199.552552 308.436092 199.552552 
L 308.436092 199.552552 
z
" clip-path="url(#p3d43823558)" style="fill: none; stroke: #5b6470; stroke-width: 0.9"/>
   </g>
   <g id="PathCollection_21">
    <path d="M 286.220392 199.552552 
C 286.946681 199.552552 287.64332 199.263995 288.156884 198.750431 
C 288.670447 198.236867 288.959005 197.540228 288.959005 196.813939 
C 288.959005 196.087651 288.670447 195.391011 288.156884 194.877448 
C 287.64332 194.363884 286.946681 194.075327 286.220392 194.075327 
C 285.494103 194.075327 284.797464 194.363884 284.2839 194.877448 
C 283.770337 195.391011 283.481779 196.087651 283.481779 196.813939 
C 283.481779 197.540228 283.770337 198.236867 284.2839 198.750431 
C 284.797464 199.263995 285.494103 199.552552 286.220392 199.552552 
L 286.220392 199.552552 
z
" clip-path="url(#p3d43823558)" style="fill: none; stroke: #5b6470; stroke-width: 0.9"/>
   </g>
   <g id="PathCollection_22">
    <path d="M 303.509408 199.552552 
C 304.235696 199.552552 304.932336 199.263995 305.4459 198.750431 
C 305.959463 198.236867 306.248021 197.540228 306.248021 196.813939 
C 306.248021 196.087651 305.959463 195.391011 305.4459 194.877448 
C 304.932336 194.363884 304.235696 194.075327 303.509408 194.075327 
C 302.783119 194.075327 302.08648 194.363884 301.572916 194.877448 
C 301.059353 195.391011 300.770795 196.087651 300.770795 196.813939 
C 300.770795 197.540228 301.059353 198.236867 301.572916 198.750431 
C 302.08648 199.263995 302.783119 199.552552 303.509408 199.552552 
L 303.509408 199.552552 
z
" clip-path="url(#p3d43823558)" style="fill: none; stroke: #5b6470; stroke-width: 0.9"/>
   </g>
   <g id="PathCollection_23">
    <path d="M 286.475274 199.552552 
C 287.201563 199.552552 287.898202 199.263995 288.411766 198.750431 
C 288.925329 198.236867 289.213887 197.540228 289.213887 196.813939 
C 289.213887 196.087651 288.925329 195.391011 288.411766 194.877448 
C 287.898202 194.363884 287.201563 194.075327 286.475274 194.075327 
C 285.748985 194.075327 285.052346 194.363884 284.538782 194.877448 
C 284.025219 195.391011 283.736661 196.087651 283.736661 196.813939 
C 283.736661 197.540228 284.025219 198.236867 284.538782 198.750431 
C 285.052346 199.263995 285.748985 199.552552 286.475274 199.552552 
L 286.475274 199.552552 
z
" clip-path="url(#p3d43823558)" style="fill: none; stroke: #5b6470; stroke-width: 0.9"/>
   </g>
   <g id="PathCollection_24">
    <path d="M 308.436092 199.552552 
C 309.162381 199.552552 309.85902 199.263995 310.372584 198.750431 
C 310.886147 198.236867 311.174705 197.540228 311.174705 196.813939 
C 311.174705 196.087651 310.886147 195.391011 310.372584 194.877448 
C 309.85902 194.363884 309.162381 194.075327 308.436092 194.075327 
C 307.709803 194.075327 307.013164 194.363884 306.4996 194.877448 
C 305.986037 195.391011 305.697479 196.087651 305.697479 196.813939 
C 305.697479 197.540228 305.986037 198.236867 306.4996 198.750431 
C 307.013164 199.263995 307.709803 199.552552 308.436092 199.552552 
L 308.436092 199.552552 
z
" clip-path="url(#p3d43823558)" style="fill: none; stroke: #5b6470; stroke-width: 0.9"/>
   </g>
   <g id="PathCollection_25">
    <path d="M 315.711796 199.552552 
C 316.438084 199.552552 317.134724 199.263995 317.648287 198.750431 
C 318.161851 198.236867 318.450408 197.540228 318.450408 196.813939 
C 318.450408 196.087651 318.161851 195.391011 317.648287 194.877448 
C 317.134724 194.363884 316.438084 194.075327 315.711796 194.075327 
C 314.985507 194.075327 314.288868 194.363884 313.775304 194.877448 
C 313.26174 195.391011 312.973183 196.087651 312.973183 196.813939 
C 312.973183 197.540228 313.26174 198.236867 313.775304 198.750431 
C 314.288868 199.263995 314.985507 199.552552 315.711796 199.552552 
L 315.711796 199.552552 
z
" clip-path="url(#p3d43823558)" style="fill: none; stroke: #5b6470; stroke-width: 0.9"/>
   </g>
   <g id="PathCollection_26">
    <path d="M 312.160592 199.552552 
C 312.886881 199.552552 313.58352 199.263995 314.097084 198.750431 
C 314.610647 198.236867 314.899205 197.540228 314.899205 196.813939 
C 314.899205 196.087651 314.610647 195.391011 314.097084 194.877448 
C 313.58352 194.363884 312.886881 194.075327 312.160592 194.075327 
C 311.434304 194.075327 310.737664 194.363884 310.2241 194.877448 
C 309.710537 195.391011 309.421979 196.087651 309.421979 196.813939 
C 309.421979 197.540228 309.710537 198.236867 310.2241 198.750431 
C 310.737664 199.263995 311.434304 199.552552 312.160592 199.552552 
L 312.160592 199.552552 
z
" clip-path="url(#p3d43823558)" style="fill: none; stroke: #5b6470; stroke-width: 0.9"/>
   </g>
   <g id="PathCollection_27">
    <path d="M 339.388127 234.649522 
C 340.114415 234.649522 340.811055 234.360964 341.324618 233.847401 
C 341.838182 233.333837 342.126739 232.637198 342.126739 231.910909 
C 342.126739 231.18462 341.838182 230.487981 341.324618 229.974417 
C 340.811055 229.460854 340.114415 229.172296 339.388127 229.172296 
C 338.661838 229.172296 337.965198 229.460854 337.451635 229.974417 
C 336.938071 230.487981 336.649514 231.18462 336.649514 231.910909 
C 336.649514 232.637198 336.938071 233.333837 337.451635 233.847401 
C 337.965198 234.360964 338.661838 234.649522 339.388127 234.649522 
L 339.388127 234.649522 
z
" clip-path="url(#p3d43823558)" style="fill: none; stroke: #5b6470; stroke-width: 0.9"/>
   </g>
   <g id="patch_3">
    <path d="M 122.47 242.44 
L 122.47 10.8 
" style="fill: none; stroke: #000000; stroke-width: 0.8; stroke-linejoin: miter; stroke-linecap: square"/>
   </g>
   <g id="patch_4">
    <path d="M 493.2 242.44 
L 493.2 10.8 
" style="fill: none; stroke: #000000; stroke-width: 0.8; stroke-linejoin: miter; stroke-linecap: square"/>
   </g>
   <g id="patch_5">
    <path d="M 122.47 242.44 
L 493.2 242.44 
" style="fill: none; stroke: #000000; stroke-width: 0.8; stroke-linejoin: miter; stroke-linecap: square"/>
   </g>
   <g id="patch_6">
    <path d="M 122.47 10.8 
L 493.2 10.8 
" style="fill: none; stroke: #000000; stroke-width: 0.8; stroke-linejoin: miter; stroke-linecap: square"/>
   </g>
   <g id="text_13">
    <!-- DeepInfra -->
    <g style="fill: #14532d" transform="translate(362.327571 32.329091) scale(0.065 -0.065)">
     <defs>
      <path id="DejaVuSans-49" d="M 628 4666 
L 1259 4666 
L 1259 0 
L 628 0 
L 628 4666 
z
" transform="scale(0.015625)"/>
      <path id="DejaVuSans-66" d="M 2375 4863 
L 2375 4384 
L 1825 4384 
Q 1516 4384 1395 4259 
Q 1275 4134 1275 3809 
L 1275 3500 
L 2222 3500 
L 2222 3053 
L 1275 3053 
L 1275 0 
L 697 0 
L 697 3053 
L 147 3053 
L 147 3500 
L 697 3500 
L 697 3744 
Q 697 4328 969 4595 
Q 1241 4863 1831 4863 
L 2375 4863 
z
" transform="scale(0.015625)"/>
     </defs>
     <use xlink:href="#DejaVuSans-44"/>
     <use xlink:href="#DejaVuSans-65" transform="translate(77.001953 0)"/>
     <use xlink:href="#DejaVuSans-65" transform="translate(138.525391 0)"/>
     <use xlink:href="#DejaVuSans-70" transform="translate(200.048828 0)"/>
     <use xlink:href="#DejaVuSans-49" transform="translate(263.525391 0)"/>
     <use xlink:href="#DejaVuSans-6e" transform="translate(293.017578 0)"/>
     <use xlink:href="#DejaVuSans-66" transform="translate(356.396484 0)"/>
     <use xlink:href="#DejaVuSans-72" transform="translate(391.601562 0)"/>
     <use xlink:href="#DejaVuSans-61" transform="translate(432.714844 0)"/>
    </g>
   </g>
   <g id="PathCollection_28">
    <defs>
     <path id="m47487ca6b0" d="M -3.391165 3.391165 
L 3.391165 3.391165 
L 3.391165 -3.391165 
L -3.391165 -3.391165 
z
" style="stroke: #1a1c20; stroke-width: 0.4"/>
    </defs>
    <g clip-path="url(#p3d43823558)">
     <use xlink:href="#m47487ca6b0" x="454.205048" y="56.426061" style="fill: #dc2626; stroke: #1a1c20; stroke-width: 0.4"/>
    </g>
   </g>
   <g id="PathCollection_29">
    <g clip-path="url(#p3d43823558)">
     <use xlink:href="#m47487ca6b0" x="454.205048" y="56.426061" style="fill: #dc2626; stroke: #1a1c20; stroke-width: 0.4"/>
    </g>
   </g>
   <g id="text_14">
    <!-- DeepInfra -->
    <g style="fill: #14532d" transform="translate(367.848321 67.426061) scale(0.065 -0.065)">
     <use xlink:href="#DejaVuSans-44"/>
     <use xlink:href="#DejaVuSans-65" transform="translate(77.001953 0)"/>
     <use xlink:href="#DejaVuSans-65" transform="translate(138.525391 0)"/>
     <use xlink:href="#DejaVuSans-70" transform="translate(200.048828 0)"/>
     <use xlink:href="#DejaVuSans-49" transform="translate(263.525391 0)"/>
     <use xlink:href="#DejaVuSans-6e" transform="translate(293.017578 0)"/>
     <use xlink:href="#DejaVuSans-66" transform="translate(356.396484 0)"/>
     <use xlink:href="#DejaVuSans-72" transform="translate(391.601562 0)"/>
     <use xlink:href="#DejaVuSans-61" transform="translate(432.714844 0)"/>
    </g>
   </g>
   <g id="PathCollection_30">
    <g clip-path="url(#p3d43823558)">
     <use xlink:href="#m47487ca6b0" x="441.29825" y="91.52303" style="fill: #dc2626; stroke: #1a1c20; stroke-width: 0.4"/>
    </g>
   </g>
   <g id="text_15">
    <!-- DeepInfra -->
    <g style="fill: #14532d" transform="translate(301.371801 102.52303) scale(0.065 -0.065)">
     <use xlink:href="#DejaVuSans-44"/>
     <use xlink:href="#DejaVuSans-65" transform="translate(77.001953 0)"/>
     <use xlink:href="#DejaVuSans-65" transform="translate(138.525391 0)"/>
     <use xlink:href="#DejaVuSans-70" transform="translate(200.048828 0)"/>
     <use xlink:href="#DejaVuSans-49" transform="translate(263.525391 0)"/>
     <use xlink:href="#DejaVuSans-6e" transform="translate(293.017578 0)"/>
     <use xlink:href="#DejaVuSans-66" transform="translate(356.396484 0)"/>
     <use xlink:href="#DejaVuSans-72" transform="translate(391.601562 0)"/>
     <use xlink:href="#DejaVuSans-61" transform="translate(432.714844 0)"/>
    </g>
   </g>
   <g id="PathCollection_31">
    <g clip-path="url(#p3d43823558)">
     <use xlink:href="#m47487ca6b0" x="332.74593" y="126.62" style="fill: #dc2626; stroke: #1a1c20; stroke-width: 0.4"/>
    </g>
   </g>
   <g id="PathCollection_32">
    <g clip-path="url(#p3d43823558)">
     <use xlink:href="#m47487ca6b0" x="365.976853" y="126.62" style="fill: #dc2626; stroke: #1a1c20; stroke-width: 0.4"/>
    </g>
   </g>
   <g id="text_16">
    <!-- DeepInfra -->
    <g style="fill: #14532d" transform="translate(291.420356 137.62) scale(0.065 -0.065)">
     <use xlink:href="#DejaVuSans-44"/>
     <use xlink:href="#DejaVuSans-65" transform="translate(77.001953 0)"/>
     <use xlink:href="#DejaVuSans-65" transform="translate(138.525391 0)"/>
     <use xlink:href="#DejaVuSans-70" transform="translate(200.048828 0)"/>
     <use xlink:href="#DejaVuSans-49" transform="translate(263.525391 0)"/>
     <use xlink:href="#DejaVuSans-6e" transform="translate(293.017578 0)"/>
     <use xlink:href="#DejaVuSans-66" transform="translate(356.396484 0)"/>
     <use xlink:href="#DejaVuSans-72" transform="translate(391.601562 0)"/>
     <use xlink:href="#DejaVuSans-61" transform="translate(432.714844 0)"/>
    </g>
   </g>
   <g id="PathCollection_33">
    <g clip-path="url(#p3d43823558)">
     <use xlink:href="#m47487ca6b0" x="336.139249" y="161.71697" style="fill: #dc2626; stroke: #1a1c20; stroke-width: 0.4"/>
    </g>
   </g>
   <g id="text_17">
    <!-- DeepInfra -->
    <g style="fill: #14532d" transform="translate(270.419766 172.71697) scale(0.065 -0.065)">
     <use xlink:href="#DejaVuSans-44"/>
     <use xlink:href="#DejaVuSans-65" transform="translate(77.001953 0)"/>
     <use xlink:href="#DejaVuSans-65" transform="translate(138.525391 0)"/>
     <use xlink:href="#DejaVuSans-70" transform="translate(200.048828 0)"/>
     <use xlink:href="#DejaVuSans-49" transform="translate(263.525391 0)"/>
     <use xlink:href="#DejaVuSans-6e" transform="translate(293.017578 0)"/>
     <use xlink:href="#DejaVuSans-66" transform="translate(356.396484 0)"/>
     <use xlink:href="#DejaVuSans-72" transform="translate(391.601562 0)"/>
     <use xlink:href="#DejaVuSans-61" transform="translate(432.714844 0)"/>
    </g>
   </g>
   <g id="PathCollection_34">
    <g clip-path="url(#p3d43823558)">
     <use xlink:href="#m47487ca6b0" x="315.711796" y="196.813939" style="fill: #dc2626; stroke: #1a1c20; stroke-width: 0.4"/>
    </g>
   </g>
   <g id="text_18">
    <!-- DeepInfra -->
    <g style="fill: #14532d" transform="translate(133.642027 207.813939) scale(0.065 -0.065)">
     <use xlink:href="#DejaVuSans-44"/>
     <use xlink:href="#DejaVuSans-65" transform="translate(77.001953 0)"/>
     <use xlink:href="#DejaVuSans-65" transform="translate(138.525391 0)"/>
     <use xlink:href="#DejaVuSans-70" transform="translate(200.048828 0)"/>
     <use xlink:href="#DejaVuSans-49" transform="translate(263.525391 0)"/>
     <use xlink:href="#DejaVuSans-6e" transform="translate(293.017578 0)"/>
     <use xlink:href="#DejaVuSans-66" transform="translate(356.396484 0)"/>
     <use xlink:href="#DejaVuSans-72" transform="translate(391.601562 0)"/>
     <use xlink:href="#DejaVuSans-61" transform="translate(432.714844 0)"/>
    </g>
   </g>
   <g id="PathCollection_35">
    <g clip-path="url(#p3d43823558)">
     <use xlink:href="#m47487ca6b0" x="339.388127" y="231.910909" style="fill: #dc2626; stroke: #1a1c20; stroke-width: 0.4"/>
    </g>
   </g>
   <g id="PathCollection_36">
    <g clip-path="url(#p3d43823558)">
     <use xlink:href="#m47487ca6b0" x="339.388127" y="231.910909" style="fill: #dc2626; stroke: #1a1c20; stroke-width: 0.4"/>
    </g>
   </g>
   <g id="text_19">
    <!-- MiniMax -->
    <g style="fill: #14532d" transform="translate(325.999142 242.910909) scale(0.065 -0.065)">
     <use xlink:href="#DejaVuSans-4d"/>
     <use xlink:href="#DejaVuSans-69" transform="translate(86.279297 0)"/>
     <use xlink:href="#DejaVuSans-6e" transform="translate(114.0625 0)"/>
     <use xlink:href="#DejaVuSans-69" transform="translate(177.441406 0)"/>
     <use xlink:href="#DejaVuSans-4d" transform="translate(205.224609 0)"/>
     <use xlink:href="#DejaVuSans-61" transform="translate(291.503906 0)"/>
     <use xlink:href="#DejaVuSans-78" transform="translate(352.783203 0)"/>
    </g>
   </g>
   <g id="PathCollection_37">
    <defs>
     <path id="mb69e02a814" d="M 0 -4.1833 
L -4.1833 4.1833 
L 4.1833 4.1833 
z
" style="stroke: #1a1c20; stroke-width: 0.4"/>
    </defs>
    <g clip-path="url(#p3d43823558)">
     <use xlink:href="#mb69e02a814" x="378.383078" y="21.329091" style="fill: #16a34a; stroke: #1a1c20; stroke-width: 0.4"/>
    </g>
   </g>
   <g id="PathCollection_38">
    <g clip-path="url(#p3d43823558)">
     <use xlink:href="#mb69e02a814" x="383.903829" y="56.426061" style="fill: #16a34a; stroke: #1a1c20; stroke-width: 0.4"/>
    </g>
   </g>
   <g id="PathCollection_39">
    <g clip-path="url(#p3d43823558)">
     <use xlink:href="#mb69e02a814" x="317.427309" y="91.52303" style="fill: #16a34a; stroke: #1a1c20; stroke-width: 0.4"/>
    </g>
   </g>
   <g id="PathCollection_40">
    <g clip-path="url(#p3d43823558)">
     <use xlink:href="#mb69e02a814" x="307.475864" y="126.62" style="fill: #16a34a; stroke: #1a1c20; stroke-width: 0.4"/>
    </g>
   </g>
   <g id="PathCollection_41">
    <g clip-path="url(#p3d43823558)">
     <use xlink:href="#mb69e02a814" x="286.475274" y="161.71697" style="fill: #16a34a; stroke: #1a1c20; stroke-width: 0.4"/>
    </g>
   </g>
   <g id="PathCollection_42">
    <g clip-path="url(#p3d43823558)">
     <use xlink:href="#mb69e02a814" x="149.697534" y="196.813939" style="fill: #16a34a; stroke: #1a1c20; stroke-width: 0.4"/>
    </g>
   </g>
   <g id="PathCollection_43">
    <g clip-path="url(#p3d43823558)">
     <use xlink:href="#mb69e02a814" x="339.388127" y="231.910909" style="fill: #16a34a; stroke: #1a1c20; stroke-width: 0.4"/>
    </g>
   </g>
   <g id="legend_1">
    <g id="patch_7">
     <path d="M 127.72 49.825781 
L 290.607109 49.825781 
Q 292.107109 49.825781 292.107109 48.325781 
L 292.107109 16.05 
Q 292.107109 14.55 290.607109 14.55 
L 127.72 14.55 
Q 126.22 14.55 126.22 16.05 
L 126.22 48.325781 
Q 126.22 49.825781 127.72 49.825781 
z
" style="fill: #ffffff; opacity: 0.8; stroke: #cccccc; stroke-linejoin: miter"/>
    </g>
    <g id="line2d_33">
     <path d="M 129.22 20.623828 
L 136.72 20.623828 
L 144.22 20.623828 
" style="fill: none; stroke: #000000; stroke-opacity: 0; stroke-width: 1.5; stroke-linecap: square"/>
     <defs>
      <path id="m15394a4242" d="M 0 -4 
L -4 4 
L 4 4 
z
" style="stroke: #1a1c20; stroke-linejoin: miter"/>
     </defs>
     <g>
      <use xlink:href="#m15394a4242" x="136.72" y="20.623828" style="fill: #16a34a; stroke: #1a1c20; stroke-linejoin: miter"/>
     </g>
    </g>
    <g id="text_20">
     <!-- panel floor (neocloud / model owner) -->
     <g transform="translate(150.22 23.248828) scale(0.075 -0.075)">
      <defs>
       <path id="DejaVuSans-64" d="M 2906 2969 
L 2906 4863 
L 3481 4863 
L 3481 0 
L 2906 0 
L 2906 525 
Q 2725 213 2448 61 
Q 2172 -91 1784 -91 
Q 1150 -91 751 415 
Q 353 922 353 1747 
Q 353 2572 751 3078 
Q 1150 3584 1784 3584 
Q 2172 3584 2448 3432 
Q 2725 3281 2906 2969 
z
M 947 1747 
Q 947 1113 1208 752 
Q 1469 391 1925 391 
Q 2381 391 2643 752 
Q 2906 1113 2906 1747 
Q 2906 2381 2643 2742 
Q 2381 3103 1925 3103 
Q 1469 3103 1208 2742 
Q 947 2381 947 1747 
z
" transform="scale(0.015625)"/>
      </defs>
      <use xlink:href="#DejaVuSans-70"/>
      <use xlink:href="#DejaVuSans-61" transform="translate(63.476562 0)"/>
      <use xlink:href="#DejaVuSans-6e" transform="translate(124.755859 0)"/>
      <use xlink:href="#DejaVuSans-65" transform="translate(188.134766 0)"/>
      <use xlink:href="#DejaVuSans-6c" transform="translate(249.658203 0)"/>
      <use xlink:href="#DejaVuSans-20" transform="translate(277.441406 0)"/>
      <use xlink:href="#DejaVuSans-66" transform="translate(309.228516 0)"/>
      <use xlink:href="#DejaVuSans-6c" transform="translate(344.433594 0)"/>
      <use xlink:href="#DejaVuSans-6f" transform="translate(372.216797 0)"/>
      <use xlink:href="#DejaVuSans-6f" transform="translate(433.398438 0)"/>
      <use xlink:href="#DejaVuSans-72" transform="translate(494.580078 0)"/>
      <use xlink:href="#DejaVuSans-20" transform="translate(535.693359 0)"/>
      <use xlink:href="#DejaVuSans-28" transform="translate(567.480469 0)"/>
      <use xlink:href="#DejaVuSans-6e" transform="translate(606.494141 0)"/>
      <use xlink:href="#DejaVuSans-65" transform="translate(669.873047 0)"/>
      <use xlink:href="#DejaVuSans-6f" transform="translate(731.396484 0)"/>
      <use xlink:href="#DejaVuSans-63" transform="translate(792.578125 0)"/>
      <use xlink:href="#DejaVuSans-6c" transform="translate(847.558594 0)"/>
      <use xlink:href="#DejaVuSans-6f" transform="translate(875.341797 0)"/>
      <use xlink:href="#DejaVuSans-75" transform="translate(936.523438 0)"/>
      <use xlink:href="#DejaVuSans-64" transform="translate(999.902344 0)"/>
      <use xlink:href="#DejaVuSans-20" transform="translate(1063.378906 0)"/>
      <use xlink:href="#DejaVuSans-2f" transform="translate(1095.166016 0)"/>
      <use xlink:href="#DejaVuSans-20" transform="translate(1128.857422 0)"/>
      <use xlink:href="#DejaVuSans-6d" transform="translate(1160.644531 0)"/>
      <use xlink:href="#DejaVuSans-6f" transform="translate(1258.056641 0)"/>
      <use xlink:href="#DejaVuSans-64" transform="translate(1319.238281 0)"/>
      <use xlink:href="#DejaVuSans-65" transform="translate(1382.714844 0)"/>
      <use xlink:href="#DejaVuSans-6c" transform="translate(1444.238281 0)"/>
      <use xlink:href="#DejaVuSans-20" transform="translate(1472.021484 0)"/>
      <use xlink:href="#DejaVuSans-6f" transform="translate(1503.808594 0)"/>
      <use xlink:href="#DejaVuSans-77" transform="translate(1564.990234 0)"/>
      <use xlink:href="#DejaVuSans-6e" transform="translate(1646.777344 0)"/>
      <use xlink:href="#DejaVuSans-65" transform="translate(1710.15625 0)"/>
      <use xlink:href="#DejaVuSans-72" transform="translate(1771.679688 0)"/>
      <use xlink:href="#DejaVuSans-29" transform="translate(1812.792969 0)"/>
     </g>
    </g>
    <g id="line2d_34">
     <path d="M 129.22 31.632422 
L 136.72 31.632422 
L 144.22 31.632422 
" style="fill: none; stroke: #000000; stroke-opacity: 0; stroke-width: 1.5; stroke-linecap: square"/>
     <defs>
      <path id="mea4afc97cf" d="M -3.5 3.5 
L 3.5 3.5 
L 3.5 -3.5 
L -3.5 -3.5 
z
" style="stroke: #1a1c20; stroke-linejoin: miter"/>
     </defs>
     <g>
      <use xlink:href="#mea4afc97cf" x="136.72" y="31.632422" style="fill: #dc2626; stroke: #1a1c20; stroke-linejoin: miter"/>
     </g>
    </g>
    <g id="text_21">
     <!-- hyperscaler listing -->
     <g transform="translate(150.22 34.257422) scale(0.075 -0.075)">
      <defs>
       <path id="DejaVuSans-68" d="M 3513 2113 
L 3513 0 
L 2938 0 
L 2938 2094 
Q 2938 2591 2744 2837 
Q 2550 3084 2163 3084 
Q 1697 3084 1428 2787 
Q 1159 2491 1159 1978 
L 1159 0 
L 581 0 
L 581 4863 
L 1159 4863 
L 1159 2956 
Q 1366 3272 1645 3428 
Q 1925 3584 2291 3584 
Q 2894 3584 3203 3211 
Q 3513 2838 3513 2113 
z
" transform="scale(0.015625)"/>
       <path id="DejaVuSans-79" d="M 2059 -325 
Q 1816 -950 1584 -1140 
Q 1353 -1331 966 -1331 
L 506 -1331 
L 506 -850 
L 844 -850 
Q 1081 -850 1212 -737 
Q 1344 -625 1503 -206 
L 1606 56 
L 191 3500 
L 800 3500 
L 1894 763 
L 2988 3500 
L 3597 3500 
L 2059 -325 
z
" transform="scale(0.015625)"/>
      </defs>
      <use xlink:href="#DejaVuSans-68"/>
      <use xlink:href="#DejaVuSans-79" transform="translate(63.378906 0)"/>
      <use xlink:href="#DejaVuSans-70" transform="translate(122.558594 0)"/>
      <use xlink:href="#DejaVuSans-65" transform="translate(186.035156 0)"/>
      <use xlink:href="#DejaVuSans-72" transform="translate(247.558594 0)"/>
      <use xlink:href="#DejaVuSans-73" transform="translate(288.671875 0)"/>
      <use xlink:href="#DejaVuSans-63" transform="translate(340.771484 0)"/>
      <use xlink:href="#DejaVuSans-61" transform="translate(395.751953 0)"/>
      <use xlink:href="#DejaVuSans-6c" transform="translate(457.03125 0)"/>
      <use xlink:href="#DejaVuSans-65" transform="translate(484.814453 0)"/>
      <use xlink:href="#DejaVuSans-72" transform="translate(546.337891 0)"/>
      <use xlink:href="#DejaVuSans-20" transform="translate(587.451172 0)"/>
      <use xlink:href="#DejaVuSans-6c" transform="translate(619.238281 0)"/>
      <use xlink:href="#DejaVuSans-69" transform="translate(647.021484 0)"/>
      <use xlink:href="#DejaVuSans-73" transform="translate(674.804688 0)"/>
      <use xlink:href="#DejaVuSans-74" transform="translate(726.904297 0)"/>
      <use xlink:href="#DejaVuSans-69" transform="translate(766.113281 0)"/>
      <use xlink:href="#DejaVuSans-6e" transform="translate(793.896484 0)"/>
      <use xlink:href="#DejaVuSans-67" transform="translate(857.275391 0)"/>
     </g>
    </g>
    <g id="line2d_35">
     <path d="M 129.22 42.641016 
L 136.72 42.641016 
L 144.22 42.641016 
" style="fill: none; stroke: #000000; stroke-opacity: 0; stroke-width: 1.5; stroke-linecap: square"/>
     <defs>
      <path id="m72e2e13d7c" d="M 0 3.25 
C 0.86191 3.25 1.688635 2.907559 2.298097 2.298097 
C 2.907559 1.688635 3.25 0.86191 3.25 0 
C 3.25 -0.86191 2.907559 -1.688635 2.298097 -2.298097 
C 1.688635 -2.907559 0.86191 -3.25 0 -3.25 
C -0.86191 -3.25 -1.688635 -2.907559 -2.298097 -2.298097 
C -2.907559 -1.688635 -3.25 -0.86191 -3.25 0 
C -3.25 0.86191 -2.907559 1.688635 -2.298097 2.298097 
C -1.688635 2.907559 -0.86191 3.25 0 3.25 
z
" style="stroke: #5b6470"/>
     </defs>
     <g>
      <use xlink:href="#m72e2e13d7c" x="136.72" y="42.641016" style="fill-opacity: 0; stroke: #5b6470"/>
     </g>
    </g>
    <g id="text_22">
     <!-- other providers -->
     <g transform="translate(150.22 45.266016) scale(0.075 -0.075)">
      <use xlink:href="#DejaVuSans-6f"/>
      <use xlink:href="#DejaVuSans-74" transform="translate(61.181641 0)"/>
      <use xlink:href="#DejaVuSans-68" transform="translate(100.390625 0)"/>
      <use xlink:href="#DejaVuSans-65" transform="translate(163.769531 0)"/>
      <use xlink:href="#DejaVuSans-72" transform="translate(225.292969 0)"/>
      <use xlink:href="#DejaVuSans-20" transform="translate(266.40625 0)"/>
      <use xlink:href="#DejaVuSans-70" transform="translate(298.193359 0)"/>
      <use xlink:href="#DejaVuSans-72" transform="translate(361.669922 0)"/>
      <use xlink:href="#DejaVuSans-6f" transform="translate(400.533203 0)"/>
      <use xlink:href="#DejaVuSans-76" transform="translate(461.714844 0)"/>
      <use xlink:href="#DejaVuSans-69" transform="translate(520.894531 0)"/>
      <use xlink:href="#DejaVuSans-64" transform="translate(548.677734 0)"/>
      <use xlink:href="#DejaVuSans-65" transform="translate(612.154297 0)"/>
      <use xlink:href="#DejaVuSans-72" transform="translate(673.677734 0)"/>
      <use xlink:href="#DejaVuSans-73" transform="translate(714.791016 0)"/>
     </g>
    </g>
   </g>
  </g>
 </g>
 <defs>
  <clipPath id="p3d43823558">
   <rect x="122.47" y="10.8" width="370.73" height="231.64"/>
  </clipPath>
 </defs>
</svg>
